{
.appVersion = "3151";
.formatVersion = 3;
customParameters = (
{
name = "Use Typo Metrics";
value = 1;
},
{
name = fsType;
value = (
);
}
);
date = "2023-07-30 15:19:26 +0000";
familyName = "Clear Fantastic Serif";
featurePrefixes = (
{
automatic = 1;
code = "languagesystem DFLT dflt;

languagesystem latn dflt;
languagesystem latn AZE;
languagesystem latn CRT;
languagesystem latn KAZ;
languagesystem latn TAT;
languagesystem latn TRK;
languagesystem latn ROM;
languagesystem latn MOL;
languagesystem latn CAT;
";
name = Languagesystems;
}
);
features = (
{
automatic = 1;
code = "feature locl;
feature ordn;
feature case;
feature ss01;
";
tag = aalt;
},
{
automatic = 1;
code = "lookup ccmp_Other_1 {
	@CombiningTopAccents = [acutecomb brevecomb caroncomb circumflexcomb commaturnedabovecomb dieresiscomb dotaccentcomb gravecomb hungarumlautcomb macroncomb ringcomb tildecomb];
	@CombiningNonTopAccents = [cedillacomb ogonekcomb];
	sub [i j]' @CombiningTopAccents by [idotless jdotless];
	sub [i j]' @CombiningNonTopAccents @CombiningTopAccents by [idotless jdotless];
} ccmp_Other_1;
";
tag = ccmp;
},
{
automatic = 1;
code = "lookup locl_latn_0 {
	script latn;
	language AZE;
	sub i by idotaccent;
	language CRT;
	sub i by idotaccent;
	language KAZ;
	sub i by idotaccent;
	language TAT;
	sub i by idotaccent;
	language TRK;
	sub i by idotaccent;
} locl_latn_0;

lookup locl_latn_1 {
	script latn;
	language ROM;
	sub Scedilla by Scommaaccent;
	sub scedilla by scommaaccent;
	language MOL;
	sub Scedilla by Scommaaccent;
	sub scedilla by scommaaccent;
} locl_latn_1;

lookup locl_latn_2 {
	script latn;
	language CAT;
	sub l periodcentered' l by periodcentered.loclCAT;
	sub L periodcentered' L by periodcentered.loclCAT.case;
} locl_latn_2;
";
tag = locl;
},
{
automatic = 1;
code = "sub [zero one two three four five six seven eight nine] [A a]' by ordfeminine;
sub [zero one two three four five six seven eight nine] [O o]' by ordmasculine;
";
tag = ordn;
},
{
automatic = 1;

glyphs = (
{
glyphname = A;
kernLeft = A;
kernRight = A;
lastChange = "2023-02-01 21:01:03 +0000";
layers = (
{
anchors = (
{
name = bottom;
pos = (229,0);
},
{
name = ogonek;
pos = (421,0);
},
{
name = top;
pos = (229,720);
}
);
layerId = m01;
shapes = (
{
closed = 1;
nodes = (
(139,2,ls),
(145,-2,o),
(152,2,o),
(150,9,cs),
(153,16,o),
(147,19,o),
(133,22,cs),
(121,26,ls),
(86,31,o),
(77,52,o),
(91,89,cs),
(124,220,ls),
(127,239,o),
(137,250,o),
(157,249,cs),
(259,247,ls),
(281,246,o),
(291,241,o),
(296,221,cs),
(331,69,ls),
(337,36,o),
(333,25,o),
(313,26,cs),
(293,25,ls),
(279,24,o),
(277,18,o),
(273,9,cs),
(276,6,o),
(280,3,o),
(288,-1,cs),
(461,-2,ls),
(468,-1,o),
(476,1,o),
(477,11,cs),
(473,16,o),
(469,19,o),
(459,24,cs),
(444,28,ls),
(418,29,o),
(410,41,o),
(401,82,cs),
(246,715,ls),
(242,729,o),
(232,732,o),
(230,729,cs),
(221,732,o),
(218,726,o),
(214,716,cs),
(59,87,ls),
(51,53,o),
(39,29,o),
(12,28,cs),
(-4,23,ls),
(-13,21,o),
(-18,17,o),
(-18,10,cs),
(-18,3,o),
(-12,0,o),
(-3,0,cs)
);
},
{
closed = 1;
nodes = (
(145,280,o),
(139,286,o),
(139,296,cs),
(209,564,l),
(214,564,l),
(274,297,ls),
(277,284,o),
(274,280,o),
(261,277,cs),
(151,280,ls)
);
}
);
width = 457;
}
);
unicode = 65;
},
{
glyphname = AE;
kernRight = E;
lastChange = "2023-02-23 19:51:09 +0000";
layers = (
{
background = {
shapes = (
{
closed = 1;
nodes = (
(155,1,ls),
(161,1,o),
(166,5,o),
(169,13,cs),
(165,18,o),
(163,19,o),
(148,21,cs),
(134,23,ls),
(106,28,o),
(94,48,o),
(106,87,cs),
(141,224,ls),
(143,239,o),
(152,250,o),
(173,246,cs),
(279,250,ls),
(297,250,o),
(304,240,o),
(308,220,cs),
(347,69,l),
(420,81,l),
(262,716,ls),
(255,726,o),
(248,731,o),
(245,729,cs),
(240,732,o),
(234,726,o),
(231,713,cs),
(72,91,ls),
(63,50,o),
(54,33,o),
(25,28,cs),
(13,21,ls),
(5,20,o),
(-2,17,o),
(-2,10,cs),
(-2,3,o),
(6,1,o),
(11,1,cs)
);
},
{
closed = 1;
nodes = (
(160,280,o),
(152,284,o),
(158,297,cs),
(221,561,l),
(230,564,l),
(294,297,ls),
(295,286,o),
(288,277,o),
(280,277,cs),
(167,280,ls)
);
},
{
closed = 1;
nodes = (
(709,-2,ls),
(727,1,o),
(732,6,o),
(733,21,cs),
(743,203,ls),
(747,210,o),
(742,220,o),
(735,219,cs),
(723,217,o),
(722,211,o),
(719,203,cs),
(705,144,ls),
(686,55,o),
(636,23,o),
(569,26,cs),
(508,27,o),
(484,43,o),
(484,94,cs),
(484,343,ls),
(487,354,o),
(491,357,o),
(500,359,cs),
(546,359,ls),
(580,360,o),
(596,346,o),
(601,299,cs),
(611,250,ls),
(614,245,o),
(620,240,o),
(629,237,cs),
(636,238,o),
(643,246,o),
(642,254,cs),
(640,483,ls),
(640,494,o),
(638,496,o),
(632,500,cs),
(620,500,o),
(616,491,o),
(611,483,cs),
(604,436,ls),
(597,404,o),
(577,386,o),
(548,390,cs),
(497,389,ls),
(489,390,o),
(484,394,o),
(487,401,cs),
(487,645,ls),
(483,683,o),
(500,694,o),
(555,696,cs),
(637,693,o),
(679,656,o),
(694,563,cs),
(699,528,ls),
(704,517,o),
(708,515,o),
(713,513,cs),
(724,512,o),
(731,519,o),
(727,533,cs),
(721,695,ls),
(721,710,o),
(712,721,o),
(697,719,cs),
(361,718,ls),
(350,719,o),
(343,718,o),
(345,710,cs),
(346,701,o),
(349,701,o),
(356,695,cs),
(378,691,ls),
(406,687,o),
(412,683,o),
(416,656,cs),
(412,65,ls),
(412,36,o),
(410,31,o),
(381,26,cs),
(358,25,ls),
(350,19,o),
(346,18,o),
(343,12,cs),
(342,6,o),
(351,1,o),
(360,1,cs)
);
}
);
};
layerId = m01;
shapes = (
{
closed = 1;
nodes = (
(146,1,ls),
(157,1,o),
(162,3,o),
(162,9,cs),
(165,18,o),
(156,22,o),
(148,25,cs),
(129,27,ls),
(97,28,o),
(95,54,o),
(109,87,cs),
(243,346,ls),
(246,354,o),
(249,359,o),
(255,359,cs),
(402,360,ls),
(410,356,o),
(416,354,o),
(416,343,cs),
(412,65,ls),
(412,36,o),
(410,31,o),
(381,26,cs),
(358,25,ls),
(350,19,o),
(346,18,o),
(343,12,cs),
(342,6,o),
(351,1,o),
(360,1,cs),
(709,-2,ls),
(727,1,o),
(732,6,o),
(733,21,cs),
(743,203,ls),
(747,210,o),
(742,220,o),
(735,219,cs),
(723,217,o),
(722,211,o),
(719,203,cs),
(705,144,ls),
(686,55,o),
(636,23,o),
(569,26,cs),
(508,27,o),
(484,43,o),
(484,94,cs),
(484,343,ls),
(487,354,o),
(491,357,o),
(500,359,cs),
(546,359,ls),
(580,360,o),
(596,346,o),
(601,299,cs),
(611,250,ls),
(614,245,o),
(620,240,o),
(629,237,cs),
(636,238,o),
(643,246,o),
(642,254,cs),
(640,483,ls),
(640,494,o),
(638,496,o),
(632,500,cs),
(620,500,o),
(616,491,o),
(611,483,cs),
(604,436,ls),
(597,404,o),
(577,386,o),
(548,390,cs),
(497,389,ls),
(489,390,o),
(484,394,o),
(487,401,cs),
(487,645,ls),
(483,683,o),
(500,694,o),
(555,696,cs),
(637,693,o),
(679,656,o),
(694,563,cs),
(699,528,ls),
(704,517,o),
(708,515,o),
(713,513,cs),
(724,512,o),
(731,519,o),
(727,533,cs),
(721,695,ls),
(721,710,o),
(712,721,o),
(697,719,cs),
(314,718,ls),
(306,718,o),
(299,714,o),
(301,707,cs),
(301,701,o),
(302,700,o),
(312,698,cs),
(335,690,ls),
(363,687,o),
(372,680,o),
(362,656,cs),
(79,91,ls),
(59,52,o),
(39,29,o),
(12,28,cs),
(-4,23,ls),
(-13,21,o),
(-18,18,o),
(-18,11,cs),
(-18,4,o),
(-12,0,o),
(-3,0,cs)
);
},
{
closed = 1;
nodes = (
(399,666,ls),
(404,676,o),
(413,675,o),
(415,666,cs),
(412,403,ls),
(412,395,o),
(411,390,o),
(398,387,cs),
(280,386,ls),
(267,387,o),
(266,397,o),
(268,406,cs)
);
}
);
width = 778;
}
);
metricLeft = A;
metricRight = E;
unicode = 198;
},
{
glyphname = B;
kernLeft = H;
lastChange = "2023-02-01 21:00:59 +0000";
layers = (
{
background = {
shapes = (
{
closed = 1;
nodes = (
(242,-2,ls),
(362,-1,o),
(449,87,o),
(449,206,cs),
(451,300,o),
(389,379,o),
(293,403,c),
(293,407,l),
(365,439,o),
(412,496,o),
(411,562,cs),
(408,651,o),
(335,721,o),
(238,719,cs),
(36,721,ls),
(26,722,o),
(21,718,o),
(21,710,cs),
(21,704,o),
(22,697,o),
(31,698,cs),
(57,695,ls),
(81,689,o),
(90,684,o),
(88,652,cs),
(90,68,ls),
(91,39,o),
(85,31,o),
(54,28,cs),
(31,25,ls),
(24,22,o),
(18,16,o),
(17,12,cs),
(20,3,o),
(26,-2,o),
(35,-1,cs)
);
},
{
closed = 1;
nodes = (
(180,27,o),
(158,45,o),
(161,92,cs),
(159,335,ls),
(161,373,o),
(178,385,o),
(223,388,cs),
(314,385,o),
(374,319,o),
(376,209,cs),
(376,94,o),
(316,24,o),
(226,26,cs)
);
},
{
closed = 1;
nodes = (
(174,410,o),
(162,428,o),
(161,468,cs),
(158,656,ls),
(162,680,o),
(178,696,o),
(212,696,cs),
(286,694,o),
(338,637,o),
(336,558,cs),
(335,475,o),
(286,409,o),
(212,410,cs)
);
}
);
};
layerId = m01;
shapes = (
{
closed = 1;
nodes = (
(242,-2,ls),
(362,-1,o),
(449,87,o),
(449,206,cs),
(452,295,o),
(397,365,o),
(307,395,cs),
(297,399,o),
(301,406,o),
(305,410,cs),
(375,447,o),
(409,499,o),
(411,562,cs),
(408,651,o),
(335,721,o),
(238,719,cs),
(36,721,ls),
(26,722,o),
(21,718,o),
(21,710,cs),
(21,704,o),
(22,697,o),
(31,698,cs),
(57,695,ls),
(81,689,o),
(90,684,o),
(88,652,cs),
(90,68,ls),
(91,39,o),
(85,31,o),
(54,28,cs),
(31,25,ls),
(24,22,o),
(18,16,o),
(17,12,cs),
(20,3,o),
(26,-2,o),
(35,-1,cs)
);
},
{
closed = 1;
nodes = (
(180,27,o),
(158,45,o),
(161,92,cs),
(159,335,ls),
(161,373,o),
(178,385,o),
(223,388,cs),
(314,385,o),
(374,319,o),
(376,209,cs),
(376,94,o),
(316,24,o),
(226,26,cs)
);
},
{
closed = 1;
nodes = (
(174,410,o),
(162,428,o),
(161,468,cs),
(158,656,ls),
(162,680,o),
(178,696,o),
(212,696,cs),
(286,694,o),
(338,637,o),
(336,558,cs),
(335,475,o),
(286,409,o),
(212,410,cs)
);
}
);
width = 478;
}
);
unicode = 66;
},
{
glyphname = C;
kernLeft = O;
kernRight = C;
lastChange = "2023-02-01 20:50:49 +0000";
layers = (
{
anchors = (
{
name = bottom;
pos = (276,0);
},
{
name = top;
pos = (280,720);
}
);
background = {
shapes = (
{
closed = 1;
nodes = (
(350,-9,o),
(390,4,o),
(421,19,cs),
(430,21,o),
(434,30,o),
(435,40,cs),
(441,202,ls),
(441,214,o),
(437,219,o),
(434,221,cs),
(424,217,o),
(418,216,o),
(414,207,cs),
(404,157,ls),
(384,48,o),
(346,18,o),
(288,17,cs),
(197,20,o),
(116,140,o),
(119,365,cs),
(120,583,o),
(189,705,o),
(287,701,cs),
(338,705,o),
(376,669,o),
(399,566,cs),
(403,528,ls),
(409,519,o),
(414,510,o),
(423,514,cs),
(427,512,o),
(430,521,o),
(430,531,cs),
(429,681,ls),
(428,695,o),
(426,696,o),
(417,701,cs),
(382,718,o),
(345,729,o),
(290,731,cs),
(149,729,o),
(41,582,o),
(41,366,cs),
(38,135,o),
(138,-9,o),
(286,-9,cs)
);
}
);
};
layerId = m01;
shapes = (
{
closed = 1;
nodes = (
(350,-9,o),
(390,4,o),
(421,19,cs),
(430,21,o),
(434,27,o),
(434,38,cs),
(442,199,ls),
(442,211,o),
(437,218,o),
(430,220,cs),
(423,220,o),
(413,212,o),
(412,207,cs),
(399,158,ls),
(377,48,o),
(340,21,o),
(280,19,cs),
(196,22,o),
(116,140,o),
(119,365,cs),
(120,583,o),
(190,700,o),
(283,699,cs),
(329,702,o),
(365,665,o),
(397,564,cs),
(403,528,ls),
(409,519,o),
(409,511,o),
(417,511,cs),
(428,512,o),
(429,517,o),
(429,531,cs),
(427,681,ls),
(427,692,o),
(426,696,o),
(417,701,cs),
(382,718,o),
(345,729,o),
(290,731,cs),
(149,729,o),
(41,582,o),
(41,366,cs),
(38,135,o),
(138,-9,o),
(286,-9,cs)
);
}
);
width = 480;
}
);
unicode = 67;
},
{
glyphname = D;
kernLeft = H;
kernRight = O;
lastChange = "2023-02-01 20:50:56 +0000";
layers = (
{
anchors = (
{
name = bottom;
pos = (265,0);
},
{
name = center;
pos = (265,360);
},
{
name = top;
pos = (255,720);
}
);
background = {
shapes = (
{
closed = 0;
nodes = (
(220,29,l),
(193,26,ls),
(165,29,o),
(161,37,o),
(161,68,cs),
(162,655,ls),
(158,682,o),
(164,687,o),
(196,692,cs),
(219,695,ls),
(226,700,o),
(230,704,o),
(233,707,cs),
(230,715,o),
(228,718,o),
(218,718,cs),
(36,721,ls),
(26,722,o),
(21,718,o),
(21,710,cs),
(18,704,o),
(22,697,o),
(31,698,cs),
(57,695,ls),
(81,689,o),
(90,684,o),
(88,652,cs),
(90,68,ls),
(91,39,o),
(85,31,o),
(54,28,cs),
(31,25,ls),
(24,22,o),
(22,20,o),
(17,12,cs),
(20,3,o),
(26,-2,o),
(35,-1,cs),
(271,2,ls),
(397,-1,o),
(498,150,o),
(501,359,cs),
(501,570,o),
(399,718,o),
(268,722,cs)
);
},
{
closed = 0;
nodes = (
(269,695,l),
(366,691,o),
(421,590,o),
(423,362,cs),
(424,131,o),
(362,26,o),
(271,29,cs)
);
}
);
};
layerId = m01;
shapes = (
{
closed = 1;
nodes = (
(228,-1,ls),
(385,-1,o),
(489,141,o),
(489,359,cs),
(488,575,o),
(394,722,o),
(238,718,cs),
(36,721,ls),
(26,722,o),
(21,718,o),
(21,710,cs),
(21,704,o),
(22,697,o),
(31,698,cs),
(57,695,ls),
(81,689,o),
(90,684,o),
(88,652,cs),
(90,68,ls),
(90,41,o),
(81,30,o),
(54,28,cs),
(31,25,ls),
(24,22,o),
(18,16,o),
(17,12,cs),
(20,3,o),
(26,-2,o),
(35,-1,cs)
);
},
{
closed = 1;
nodes = (
(178,28,o),
(161,44,o),
(158,100,cs),
(158,623,ls),
(160,671,o),
(185,695,o),
(235,696,cs),
(350,695,o),
(410,572,o),
(410,359,cs),
(414,143,o),
(349,28,o),
(231,25,cs)
);
}
);
width = 530;
}
);
unicode = 68;
},
{
glyphname = Eth;
kernLeft = H;
kernRight = O;
lastChange = "2023-02-23 19:52:33 +0000";
layers = (
{
layerId = m01;
shapes = (
{
ref = D;
},
{
closed = 1;
nodes = (
(282,356,ls),
(288,356,o),
(295,361,o),
(296,369,cs),
(296,377,ls),
(295,383,o),
(289,388,o),
(282,384,cs),
(28,385,ls),
(24,385,o),
(20,383,o),
(20,378,cs),
(20,367,ls),
(20,363,o),
(24,360,o),
(30,359,cs)
);
}
);
width = 530;
}
);
unicode = 208;
},
{
glyphname = E;
kernLeft = H;
kernRight = E;
lastChange = "2023-02-01 20:51:22 +0000";
layers = (
{
anchors = (
{
name = bottom;
pos = (227,0);
},
{
name = ogonek;
pos = (385,0);
},
{
name = top;
pos = (227,720);
},
{
name = topleft;
pos = (20,720);
}
);
background = {
shapes = (
{
closed = 1;
nodes = (
(384,-1,ls),
(402,-2,o),
(411,9,o),
(408,22,cs),
(421,200,ls),
(419,211,o),
(416,219,o),
(409,216,cs),
(401,220,o),
(393,211,o),
(392,207,cs),
(380,126,ls),
(364,44,o),
(318,23,o),
(248,24,cs),
(180,27,o),
(158,44,o),
(158,92,cs),
(159,345,ls),
(161,352,o),
(167,357,o),
(176,356,cs),
(227,356,ls),
(257,359,o),
(275,348,o),
(283,300,cs),
(288,253,ls),
(289,246,o),
(299,240,o),
(304,240,cs),
(313,238,o),
(317,246,o),
(317,255,cs),
(315,480,ls),
(314,490,o),
(311,495,o),
(306,496,cs),
(299,500,o),
(291,494,o),
(287,483,cs),
(280,437,ls),
(274,404,o),
(259,389,o),
(229,387,cs),
(173,390,ls),
(164,387,o),
(161,394,o),
(161,401,cs),
(158,641,ls),
(158,682,o),
(178,696,o),
(233,696,cs),
(299,696,o),
(355,672,o),
(371,583,cs),
(375,526,ls),
(379,517,o),
(380,512,o),
(388,516,cs),
(397,516,o),
(405,519,o),
(404,533,cs),
(393,699,ls),
(392,710,o),
(387,722,o),
(371,722,cs),
(36,721,ls),
(26,722,o),
(21,718,o),
(21,710,cs),
(18,704,o),
(22,697,o),
(31,698,cs),
(57,695,ls),
(81,689,o),
(90,684,o),
(88,652,cs),
(90,68,ls),
(91,39,o),
(85,31,o),
(54,28,cs),
(31,25,ls),
(24,22,o),
(22,20,o),
(17,12,cs),
(20,3,o),
(26,-2,o),
(35,-1,cs)
);
}
);
};
layerId = m01;
shapes = (
{
closed = 1;
nodes = (
(384,-1,ls),
(402,-2,o),
(411,9,o),
(408,22,cs),
(421,200,ls),
(419,211,o),
(416,219,o),
(409,216,cs),
(401,220,o),
(393,211,o),
(392,207,cs),
(380,144,ls),
(364,51,o),
(312,26,o),
(248,24,cs),
(180,27,o),
(158,44,o),
(158,92,cs),
(159,345,ls),
(161,352,o),
(167,357,o),
(176,356,cs),
(221,359,ls),
(252,360,o),
(267,348,o),
(277,303,cs),
(289,250,ls),
(289,246,o),
(299,240,o),
(304,240,cs),
(313,238,o),
(317,246,o),
(317,255,cs),
(315,480,ls),
(314,490,o),
(311,495,o),
(306,496,cs),
(299,500,o),
(291,494,o),
(286,484,cs),
(276,437,ls),
(272,400,o),
(256,389,o),
(226,389,cs),
(173,390,ls),
(164,387,o),
(161,394,o),
(161,401,cs),
(158,641,ls),
(158,682,o),
(178,696,o),
(233,696,cs),
(313,697,o),
(354,652,o),
(371,566,cs),
(375,526,ls),
(379,517,o),
(380,512,o),
(388,516,cs),
(397,516,o),
(405,519,o),
(404,533,cs),
(393,699,ls),
(392,710,o),
(387,722,o),
(371,722,cs),
(36,721,ls),
(26,722,o),
(21,718,o),
(21,710,cs),
(18,704,o),
(22,697,o),
(31,698,cs),
(57,695,ls),
(81,689,o),
(90,684,o),
(88,652,cs),
(90,68,ls),
(91,39,o),
(85,31,o),
(54,28,cs),
(31,25,ls),
(24,22,o),
(22,20,o),
(17,12,cs),
(20,3,o),
(26,-2,o),
(35,-1,cs)
);
}
);
width = 453;
}
);
unicode = 69;
},
{
glyphname = F;
kernLeft = H;
lastChange = "2023-02-01 20:52:39 +0000";
layers = (
{
background = {
shapes = (
{
closed = 1;
nodes = (
(238,1,ls),
(245,1,o),
(250,8,o),
(253,14,cs),
(253,19,o),
(247,21,o),
(243,24,cs),
(195,28,ls),
(169,33,o),
(159,42,o),
(162,72,cs),
(159,345,ls),
(161,352,o),
(167,357,o),
(176,356,cs),
(210,359,ls),
(243,356,o),
(259,345,o),
(267,299,cs),
(272,251,ls),
(277,246,o),
(281,238,o),
(291,238,cs),
(295,243,o),
(300,248,o),
(300,259,cs),
(300,479,ls),
(299,490,o),
(295,497,o),
(289,499,cs),
(284,496,o),
(277,493,o),
(276,485,cs),
(268,436,ls),
(260,403,o),
(243,385,o),
(213,389,cs),
(173,390,ls),
(164,387,o),
(161,394,o),
(161,401,cs),
(159,637,ls),
(159,675,o),
(178,696,o),
(234,697,cs),
(294,697,o),
(342,676,o),
(354,583,cs),
(363,526,ls),
(361,517,o),
(370,515,o),
(377,512,cs),
(383,512,o),
(392,521,o),
(387,529,cs),
(382,698,ls),
(379,714,o),
(372,722,o),
(354,722,cs),
(36,721,ls),
(26,722,o),
(21,718,o),
(21,710,cs),
(18,704,o),
(22,697,o),
(31,698,cs),
(57,695,ls),
(81,689,o),
(90,684,o),
(88,652,cs),
(90,68,ls),
(91,39,o),
(85,31,o),
(54,28,cs),
(31,25,ls),
(24,22,o),
(22,20,o),
(17,12,cs),
(20,3,o),
(26,-2,o),
(35,-1,cs)
);
}
);
};
layerId = m01;
shapes = (
{
closed = 1;
nodes = (
(238,1,ls),
(245,1,o),
(250,8,o),
(253,14,cs),
(253,19,o),
(247,21,o),
(243,24,cs),
(195,28,ls),
(169,33,o),
(159,42,o),
(162,72,cs),
(159,345,ls),
(161,352,o),
(167,357,o),
(176,356,cs),
(209,357,ls),
(236,359,o),
(254,348,o),
(262,303,cs),
(272,250,ls),
(275,243,o),
(280,238,o),
(288,241,cs),
(297,238,o),
(300,247,o),
(299,255,cs),
(303,483,ls),
(299,494,o),
(295,497,o),
(287,499,cs),
(283,497,o),
(275,491,o),
(272,483,cs),
(265,436,ls),
(255,401,o),
(238,389,o),
(211,390,cs),
(173,390,ls),
(164,387,o),
(161,394,o),
(161,401,cs),
(159,637,ls),
(159,675,o),
(178,696,o),
(234,697,cs),
(283,693,o),
(343,665,o),
(358,562,cs),
(363,526,ls),
(361,517,o),
(370,515,o),
(377,512,cs),
(383,512,o),
(392,521,o),
(387,529,cs),
(382,698,ls),
(379,714,o),
(372,722,o),
(354,722,cs),
(36,721,ls),
(26,722,o),
(21,718,o),
(21,710,cs),
(18,704,o),
(22,697,o),
(31,698,cs),
(57,695,ls),
(81,689,o),
(90,684,o),
(88,652,cs),
(90,68,ls),
(91,39,o),
(85,31,o),
(54,28,cs),
(31,25,ls),
(24,22,o),
(22,20,o),
(17,12,cs),
(20,3,o),
(26,-2,o),
(35,-1,cs)
);
}
);
width = 408;
}
);
unicode = 70;
},
{
glyphname = G;
kernLeft = O;
kernRight = G;
lastChange = "2023-02-01 20:53:01 +0000";
layers = (
{
anchors = (
{
name = bottom;
pos = (291,0);
},
{
name = top;
pos = (291,720);
}
);
background = {
shapes = (
{
closed = 1;
nodes = (
(350,-9,o),
(390,4,o),
(421,19,cs),
(430,21,o),
(434,30,o),
(435,40,cs),
(441,202,ls),
(441,214,o),
(437,219,o),
(434,221,cs),
(424,217,o),
(418,216,o),
(414,207,cs),
(404,157,ls),
(384,48,o),
(346,18,o),
(288,17,cs),
(197,20,o),
(116,140,o),
(119,365,cs),
(120,583,o),
(189,705,o),
(287,701,cs),
(338,705,o),
(376,669,o),
(399,566,cs),
(403,528,ls),
(409,519,o),
(414,510,o),
(423,514,cs),
(427,512,o),
(430,521,o),
(430,531,cs),
(429,681,ls),
(428,695,o),
(426,696,o),
(417,701,cs),
(382,718,o),
(345,729,o),
(290,731,cs),
(149,729,o),
(41,582,o),
(41,366,cs),
(38,135,o),
(138,-9,o),
(286,-9,cs)
);
}
);
};
guides = (
{
pos = (361,730);
},
{
angle = 90;
pos = (452,530);
}
);
layerId = m01;
shapes = (
{
closed = 1;
nodes = (
(345,-9,o),
(387,1,o),
(420,16,cs),
(436,26,o),
(444,33,o),
(443,52,cs),
(447,320,ls),
(447,351,o),
(444,357,o),
(476,361,cs),
(489,364,ls),
(499,364,o),
(499,371,o),
(502,378,cs),
(500,382,o),
(498,390,o),
(485,386,cs),
(301,390,ls),
(291,386,o),
(289,386,o),
(287,379,cs),
(286,373,o),
(290,368,o),
(303,367,cs),
(342,362,ls),
(366,356,o),
(375,348,o),
(376,323,cs),
(375,101,ls),
(376,37,o),
(346,18,o),
(292,17,cs),
(189,15,o),
(116,140,o),
(119,365,cs),
(120,583,o),
(190,700,o),
(284,700,cs),
(352,700,o),
(385,668,o),
(415,555,cs),
(420,525,ls),
(425,518,o),
(428,512,o),
(434,515,cs),
(440,512,o),
(446,517,o),
(445,531,cs),
(446,684,ls),
(445,695,o),
(442,700,o),
(433,704,cs),
(397,718,o),
(354,728,o),
(306,728,cs),
(149,729,o),
(41,582,o),
(41,366,cs),
(38,135,o),
(128,-9,o),
(291,-9,cs)
);
}
);
width = 521;
}
);
unicode = 71;
},
{
glyphname = H;
kernLeft = H;
kernRight = H;
lastChange = "2023-02-01 20:53:06 +0000";
layers = (
{
background = {
shapes = (
{
closed = 1;
nodes = (
(227,1,l),
(227,20,l),
(184,27,ls),
(164,33,o),
(161,37,o),
(161,63,cs),
(159,360,l),
(384,360,l),
(387,64,ls),
(385,40,o),
(379,34,o),
(362,28,cs),
(318,23,l),
(315,-2,l),
(525,1,l),
(525,20,l),
(484,30,ls),
(464,33,o),
(456,36,o),
(458,63,cs),
(455,657,ls),
(456,683,o),
(465,686,o),
(481,692,cs),
(529,700,l),
(526,718,l),
(315,721,l),
(316,697,l),
(362,689,ls),
(378,690,o),
(384,683,o),
(384,656,cs),
(385,387,l),
(162,386,l),
(161,660,ls),
(162,680,o),
(164,690,o),
(187,689,cs),
(230,700,l),
(230,722,l),
(21,718,l),
(20,699,l),
(62,689,ls),
(81,689,o),
(90,684,o),
(90,659,cs),
(87,64,ls),
(91,39,o),
(85,31,o),
(62,28,cs),
(20,23,l),
(18,-1,l)
);
}
);
};
layerId = m01;
shapes = (
{
closed = 1;
nodes = (
(219,-2,ls),
(228,-2,o),
(233,5,o),
(229,12,cs),
(231,20,o),
(229,20,o),
(220,22,cs),
(193,26,ls),
(164,32,o),
(161,37,o),
(161,68,cs),
(159,345,ls),
(161,352,o),
(167,357,o),
(176,356,cs),
(370,359,ls),
(379,360,o),
(385,355,o),
(385,345,cs),
(385,69,ls),
(388,38,o),
(381,30,o),
(353,25,cs),
(324,25,ls),
(319,23,o),
(313,16,o),
(316,14,cs),
(312,3,o),
(320,2,o),
(330,2,cs),
(511,2,ls),
(521,2,o),
(526,6,o),
(528,12,cs),
(525,18,o),
(521,19,o),
(513,24,cs),
(489,26,ls),
(464,33,o),
(456,36,o),
(455,68,cs),
(458,656,ls),
(456,683,o),
(465,686,o),
(493,694,cs),
(512,695,ls),
(521,701,o),
(525,704,o),
(525,711,cs),
(526,714,o),
(524,722,o),
(510,721,cs),
(331,718,ls),
(320,718,o),
(312,718,o),
(312,709,cs),
(313,700,o),
(317,696,o),
(324,699,cs),
(350,692,ls),
(378,688,o),
(385,682,o),
(388,652,cs),
(388,400,ls),
(385,392,o),
(379,390,o),
(370,387,cs),
(173,390,ls),
(164,387,o),
(161,394,o),
(161,401,cs),
(162,655,ls),
(158,682,o),
(164,687,o),
(196,692,cs),
(219,695,ls),
(226,700,o),
(230,704,o),
(233,707,cs),
(230,715,o),
(228,718,o),
(218,718,cs),
(36,721,ls),
(26,722,o),
(21,718,o),
(21,710,cs),
(18,704,o),
(22,697,o),
(31,698,cs),
(57,695,ls),
(81,689,o),
(90,684,o),
(88,652,cs),
(90,68,ls),
(91,39,o),
(85,31,o),
(54,28,cs),
(31,25,ls),
(24,22,o),
(22,20,o),
(17,12,cs),
(20,3,o),
(26,-2,o),
(35,-1,cs)
);
}
);
width = 546;
}
);
unicode = 72;
},
{
glyphname = Hbar;
kernLeft = H;
kernRight = H;
lastChange = "2023-02-23 19:52:53 +0000";
layers = (
{
layerId = m01;
shapes = (
{
ref = H;
},
{
closed = 1;
nodes = (
(515,534,ls),
(522,530,o),
(525,534,o),
(528,541,cs),
(528,551,ls),
(526,558,o),
(522,559,o),
(515,559,cs),
(31,561,ls),
(25,561,o),
(20,555,o),
(17,552,cs),
(21,544,ls),
(17,535,o),
(21,533,o),
(27,531,cs)
);
}
);
width = 546;
}
);
unicode = 294;
},
{
glyphname = I;
kernLeft = H;
kernRight = H;
lastChange = "2023-08-25 19:54:44 +0000";
layers = (
{
anchors = (
{
name = bottom;
pos = (125,0);
},
{
name = ogonek;
pos = (160,0);
},
{
name = top;
pos = (125,720);
},
{
name = topleft;
pos = (20,720);
}
);
background = {
shapes = (
{
closed = 1;
nodes = (
(229,2,l),
(231,24,l),
(184,27,ls),
(164,33,o),
(161,37,o),
(161,63,cs),
(161,660,ls),
(162,680,o),
(164,690,o),
(187,689,cs),
(228,697,l),
(229,722,l),
(21,718,l),
(20,699,l),
(62,689,ls),
(81,689,o),
(90,684,o),
(90,659,cs),
(87,64,ls),
(91,39,o),
(85,31,o),
(62,28,cs),
(20,23,l),
(18,-1,l)
);
}
);
};
layerId = m01;
shapes = (
{
closed = 1;
nodes = (
(217,-2,ls),
(227,2,o),
(228,6,o),
(229,12,cs),
(232,15,o),
(224,22,o),
(218,22,cs),
(193,26,ls),
(164,33,o),
(161,37,o),
(159,67,cs),
(162,652,ls),
(162,680,o),
(164,690,o),
(196,692,cs),
(216,696,ls),
(228,697,o),
(232,701,o),
(231,708,cs),
(231,717,o),
(223,721,o),
(216,722,cs),
(36,721,ls),
(26,722,o),
(21,718,o),
(21,710,cs),
(18,704,o),
(22,697,o),
(31,698,cs),
(57,695,ls),
(81,689,o),
(90,684,o),
(88,652,cs),
(90,68,ls),
(91,39,o),
(85,31,o),
(54,28,cs),
(31,25,ls),
(24,22,o),
(22,20,o),
(17,12,cs),
(20,3,o),
(26,-2,o),
(35,-1,cs)
);
}
);
width = 249;
}
);
unicode = 73;
},
{
glyphname = J;
kernRight = J;
lastChange = "2023-02-01 21:01:27 +0000";
layers = (
{
layerId = m01;
shapes = (
{
closed = 1;
nodes = (
(104,-215,o),
(160,-116,o),
(161,42,cs),
(162,652,ls),
(162,680,o),
(164,690,o),
(196,692,cs),
(216,696,ls),
(228,697,o),
(229,704,o),
(231,708,cs),
(231,717,o),
(223,721,o),
(216,722,cs),
(36,721,ls),
(26,722,o),
(21,718,o),
(21,710,cs),
(21,704,o),
(22,697,o),
(31,698,cs),
(57,695,ls),
(81,689,o),
(90,684,o),
(88,652,cs),
(89,-91,ls),
(89,-144,o),
(75,-175,o),
(50,-175,cs),
(14,-175,o),
(29,-109,o),
(-15,-109,cs),
(-39,-109,o),
(-56,-128,o),
(-56,-155,cs),
(-56,-191,o),
(-28,-215,o),
(14,-215,cs)
);
}
);
width = 249;
}
);
unicode = 74;
},
{
glyphname = K;
kernLeft = H;
kernRight = K;
lastChange = "2023-02-01 20:53:20 +0000";
layers = (
{
anchors = (
{
name = bottom;
pos = (268,0);
},
{
name = top;
pos = (248,720);
}
);
background = {
shapes = (
{
closed = 1;
nodes = (
(219,-2,ls),
(228,-2,o),
(233,5,o),
(229,12,cs),
(231,20,o),
(229,20,o),
(220,22,cs),
(193,26,ls),
(164,32,o),
(161,37,o),
(161,68,cs),
(162,655,ls),
(158,682,o),
(164,687,o),
(196,692,cs),
(219,695,ls),
(226,700,o),
(230,704,o),
(233,707,cs),
(230,715,o),
(228,718,o),
(218,718,cs),
(36,721,ls),
(26,722,o),
(21,718,o),
(21,710,cs),
(18,704,o),
(22,697,o),
(31,698,cs),
(57,695,ls),
(81,689,o),
(90,684,o),
(88,652,cs),
(90,68,ls),
(91,39,o),
(85,31,o),
(54,28,cs),
(31,25,ls),
(24,22,o),
(22,20,o),
(17,12,cs),
(20,3,o),
(26,-2,o),
(35,-1,cs)
);
},
{
closed = 1;
nodes = (
(370,625,ls),
(400,674,o),
(425,693,o),
(466,697,cs),
(485,695,ls),
(495,700,o),
(498,702,o),
(498,707,cs),
(498,714,o),
(491,721,o),
(481,719,cs),
(315,722,ls),
(303,722,o),
(297,715,o),
(297,712,cs),
(301,701,o),
(301,700,o),
(313,696,cs),
(337,692,ls),
(360,686,o),
(365,670,o),
(340,634,cs),
(167,361,l),
(152,358,l),
(152,285,l)
);
},
{
closed = 1;
nodes = (
(199,371,l),
(199,358,l),
(206,361,l),
(354,73,ls),
(369,43,o),
(367,30,o),
(342,23,cs),
(324,24,ls),
(313,23,o),
(311,18,o),
(312,9,cs),
(309,3,o),
(313,-1,o),
(323,1,cs),
(500,1,ls),
(509,-2,o),
(517,2,o),
(517,13,cs),
(514,16,o),
(513,23,o),
(502,24,cs),
(482,26,ls),
(463,32,o),
(455,40,o),
(441,58,cs),
(244,438,l)
);
}
);
};
layerId = m01;
shapes = (
{
closed = 1;
nodes = (
(219,-2,ls),
(228,-2,o),
(233,5,o),
(229,12,cs),
(231,20,o),
(229,20,o),
(220,22,cs),
(193,26,ls),
(164,32,o),
(161,37,o),
(161,68,cs),
(159,273,ls),
(158,292,o),
(164,301,o),
(173,317,cs),
(191,347,ls),
(200,360,o),
(206,359,o),
(214,349,cs),
(354,73,ls),
(369,43,o),
(367,30,o),
(342,23,cs),
(324,24,ls),
(313,23,o),
(311,18,o),
(312,9,cs),
(309,3,o),
(313,-1,o),
(323,1,cs),
(500,1,ls),
(509,-2,o),
(517,2,o),
(517,13,cs),
(514,16,o),
(513,23,o),
(502,24,cs),
(482,26,ls),
(463,32,o),
(455,40,o),
(441,58,cs),
(256,411,ls),
(250,423,o),
(247,432,o),
(258,447,cs),
(370,625,ls),
(400,674,o),
(425,693,o),
(466,697,cs),
(485,695,ls),
(495,700,o),
(498,702,o),
(498,707,cs),
(498,714,o),
(491,721,o),
(481,719,cs),
(315,722,ls),
(303,722,o),
(297,715,o),
(297,712,cs),
(301,701,o),
(301,700,o),
(313,696,cs),
(337,692,ls),
(360,686,o),
(365,670,o),
(340,634,cs),
(178,379,ls),
(168,367,o),
(162,371,o),
(162,384,cs),
(162,655,ls),
(158,682,o),
(164,687,o),
(196,692,cs),
(219,695,ls),
(226,700,o),
(230,704,o),
(233,707,cs),
(230,715,o),
(228,718,o),
(218,718,cs),
(36,721,ls),
(26,722,o),
(21,718,o),
(21,710,cs),
(18,704,o),
(22,697,o),
(31,698,cs),
(57,695,ls),
(81,689,o),
(90,684,o),
(88,652,cs),
(90,68,ls),
(91,39,o),
(85,31,o),
(54,28,cs),
(31,25,ls),
(24,22,o),
(22,20,o),
(17,12,cs),
(20,3,o),
(26,-2,o),
(35,-1,cs)
);
}
);
width = 496;
}
);
unicode = 75;
},
{
glyphname = L;
kernLeft = H;
kernRight = L;
lastChange = "2023-02-01 20:16:45 +0000";
layers = (
{
anchors = (
{
name = bottom;
pos = (207,0);
},
{
name = center;
pos = (207,360);
},
{
name = top;
pos = (125,720);
},
{
name = topright;
pos = (275,720);
}
);
layerId = m01;
shapes = (
{
closed = 1;
nodes = (
(359,-2,ls),
(371,-2,o),
(382,10,o),
(383,25,cs),
(393,212,ls),
(393,221,o),
(387,230,o),
(383,226,cs),
(372,227,o),
(371,224,o),
(365,214,cs),
(353,150,ls),
(332,44,o),
(276,24,o),
(230,24,cs),
(193,26,o),
(158,44,o),
(158,92,cs),
(162,655,ls),
(158,682,o),
(164,687,o),
(196,692,cs),
(219,695,ls),
(226,700,o),
(230,704,o),
(233,707,cs),
(230,715,o),
(228,718,o),
(218,718,cs),
(36,721,ls),
(26,722,o),
(21,718,o),
(21,710,cs),
(18,704,o),
(22,697,o),
(31,698,cs),
(57,695,ls),
(81,689,o),
(90,684,o),
(88,652,cs),
(90,68,ls),
(91,39,o),
(85,31,o),
(54,28,cs),
(31,25,ls),
(24,22,o),
(22,20,o),
(17,12,cs),
(20,3,o),
(26,-2,o),
(35,-1,cs)
);
}
);
width = 413;
}
);
unicode = 76;
},
{
glyphname = Lslash;
kernLeft = H;
kernRight = L;
lastChange = "2023-02-23 19:53:25 +0000";
layers = (
{
layerId = m01;
shapes = (
{
ref = L;
},
{
closed = 1;
nodes = (
(136,384,l),
(14,306,ls),
(11,306,o),
(8,297,o),
(13,292,cs),
(15,287,ls),
(21,283,o),
(27,279,o),
(32,284,cs),
(139,349,l)
);
},
{
closed = 1;
nodes = (
(138,354,l),
(265,433,ls),
(271,436,o),
(272,443,o),
(269,445,cs),
(264,454,ls),
(260,459,o),
(256,461,o),
(248,455,cs),
(135,387,l)
);
}
);
width = 413;
}
);
unicode = 321;
},
{
glyphname = M;
lastChange = "2023-02-01 20:53:28 +0000";
layers = (
{
background = {
shapes = (
{
closed = 1;
nodes = (
(321,9,o),
(328,15,o),
(328,28,cs),
(486,660,l),
(499,663,l),
(500,722,l),
(496,721,ls),
(477,718,o),
(472,710,o),
(465,693,cs),
(335,176,l),
(333,178,l),
(206,691,ls),
(200,710,o),
(191,718,o),
(168,721,cs),
(126,718,l),
(297,25,ls),
(304,14,o),
(307,9,o),
(316,9,cs)
);
},
{
closed = 1;
nodes = (
(635,2,ls),
(644,1,o),
(650,3,o),
(649,13,cs),
(650,19,o),
(646,23,o),
(640,22,cs),
(616,26,ls),
(589,33,o),
(580,36,o),
(579,67,cs),
(563,652,ls),
(561,684,o),
(565,689,o),
(597,692,cs),
(616,698,ls),
(626,701,o),
(632,702,o),
(633,710,cs),
(633,715,o),
(624,719,o),
(614,718,cs),
(500,722,l),
(489,687,l),
(509,64,ls),
(512,39,o),
(506,31,o),
(478,26,cs),
(455,25,ls),
(442,20,o),
(439,19,o),
(438,13,cs),
(439,3,o),
(446,1,o),
(457,2,cs)
);
},
{
closed = 1;
nodes = (
(147,721,l),
(47,722,ls),
(41,721,o),
(32,718,o),
(36,708,cs),
(33,702,o),
(36,698,o),
(49,695,cs),
(72,692,ls),
(99,686,o),
(108,684,o),
(107,652,cs),
(88,85,ls),
(86,47,o),
(76,29,o),
(39,23,cs),
(25,25,ls),
(16,23,o),
(15,15,o),
(16,10,cs),
(13,3,o),
(17,-1,o),
(28,1,cs),
(171,-1,ls),
(180,-2,o),
(185,6,o),
(189,10,cs),
(189,15,o),
(184,20,o),
(176,25,cs),
(162,27,ls),
(127,31,o),
(118,47,o),
(118,85,cs),
(135,660,l),
(140,662,l)
);
}
);
};
guides = (
{
angle = 177.9834;
pos = (96,370);
showMeasurement = 1;
},
{
angle = 1.9481;
pos = (571,360);
showMeasurement = 1;
}
);
layerId = m01;
shapes = (
{
closed = 1;
nodes = (
(321,9,o),
(328,15,o),
(328,28,cs),
(481,638,ls),
(482,647,o),
(491,646,o),
(491,636,cs),
(509,64,ls),
(512,39,o),
(506,31,o),
(478,26,cs),
(455,25,ls),
(442,20,o),
(439,19,o),
(438,13,cs),
(439,3,o),
(446,1,o),
(457,2,cs),
(635,2,ls),
(644,1,o),
(650,3,o),
(649,13,cs),
(650,19,o),
(646,23,o),
(640,22,cs),
(616,26,ls),
(589,33,o),
(580,36,o),
(579,67,cs),
(563,652,ls),
(561,684,o),
(565,689,o),
(597,692,cs),
(616,698,ls),
(626,701,o),
(632,702,o),
(633,710,cs),
(633,715,o),
(624,719,o),
(614,718,cs),
(496,721,ls),
(477,718,o),
(472,710,o),
(465,693,cs),
(338,193,ls),
(340,183,o),
(332,183,o),
(326,193,cs),
(206,691,ls),
(200,710,o),
(191,718,o),
(168,721,cs),
(47,722,ls),
(41,721,o),
(32,718,o),
(36,708,cs),
(33,702,o),
(36,698,o),
(49,695,cs),
(72,692,ls),
(99,686,o),
(108,684,o),
(107,652,cs),
(88,85,ls),
(86,47,o),
(76,29,o),
(39,23,cs),
(25,25,ls),
(16,23,o),
(15,15,o),
(16,10,cs),
(13,3,o),
(17,-1,o),
(28,1,cs),
(171,-1,ls),
(180,-2,o),
(185,6,o),
(189,10,cs),
(189,15,o),
(184,20,o),
(176,25,cs),
(162,27,ls),
(127,31,o),
(118,47,o),
(118,85,cs),
(138,637,ls),
(138,648,o),
(147,650,o),
(146,638,cs),
(297,25,ls),
(304,14,o),
(307,9,o),
(316,9,cs)
);
}
);
width = 665;
}
);
unicode = 77;
},
{
glyphname = N;
kernLeft = N;
kernRight = N;
lastChange = "2023-02-01 20:53:33 +0000";
layers = (
{
anchors = (
{
name = bottom;
pos = (270,0);
},
{
name = top;
pos = (270,720);
}
);
background = {
shapes = (
{
closed = 1;
nodes = (
(444,-9,o),
(452,-1,o),
(453,12,cs),
(453,632,ls),
(451,678,o),
(462,689,o),
(497,696,cs),
(513,699,ls),
(522,699,o),
(525,705,o),
(523,711,cs),
(527,717,o),
(520,722,o),
(507,718,cs),
(367,721,ls),
(357,722,o),
(349,714,o),
(349,708,cs),
(352,702,o),
(357,701,o),
(366,696,cs),
(380,692,ls),
(406,691,o),
(419,677,o),
(420,632,cs),
(423,164,l),
(414,164,l),
(162,699,ls),
(156,713,o),
(143,722,o),
(130,722,cs),
(33,721,ls),
(19,719,o),
(14,717,o),
(17,711,cs),
(14,701,o),
(22,701,o),
(27,696,cs),
(51,691,ls),
(80,689,o),
(86,684,o),
(87,655,cs),
(86,88,ls),
(89,50,o),
(79,29,o),
(43,24,cs),
(31,21,ls),
(23,26,o),
(18,19,o),
(17,13,cs),
(17,6,o),
(19,1,o),
(29,2,cs),
(173,1,ls),
(186,1,o),
(187,2,o),
(190,9,cs),
(187,19,o),
(184,21,o),
(177,24,cs),
(161,24,ls),
(132,28,o),
(120,50,o),
(118,88,cs),
(117,616,l),
(122,615,l),
(414,8,ls),
(419,-5,o),
(424,-9,o),
(434,-9,cs)
);
}
);
};
layerId = m01;
shapes = (
{
closed = 1;
nodes = (
(442,-9,o),
(452,-1,o),
(451,21,cs),
(453,632,ls),
(451,678,o),
(462,689,o),
(497,696,cs),
(513,699,ls),
(522,699,o),
(525,705,o),
(523,711,cs),
(527,717,o),
(520,722,o),
(507,718,cs),
(367,721,ls),
(357,722,o),
(349,714,o),
(349,708,cs),
(352,702,o),
(357,701,o),
(366,696,cs),
(380,692,ls),
(406,691,o),
(419,677,o),
(420,632,cs),
(419,179,ls),
(422,172,o),
(412,169,o),
(407,181,cs),
(175,700,ls),
(168,716,o),
(157,722,o),
(137,718,cs),
(33,721,ls),
(19,719,o),
(14,717,o),
(17,711,cs),
(14,701,o),
(22,701,o),
(27,696,cs),
(51,691,ls),
(80,689,o),
(86,684,o),
(87,655,cs),
(86,88,ls),
(89,50,o),
(79,29,o),
(43,24,cs),
(31,21,ls),
(23,26,o),
(18,19,o),
(17,13,cs),
(17,6,o),
(19,1,o),
(29,2,cs),
(173,1,ls),
(186,1,o),
(187,2,o),
(190,9,cs),
(187,19,o),
(184,21,o),
(177,24,cs),
(161,24,ls),
(132,28,o),
(120,50,o),
(118,88,cs),
(121,598,ls),
(120,608,o),
(125,611,o),
(129,602,cs),
(401,13,ls),
(410,-3,o),
(416,-9,o),
(429,-9,cs)
);
}
);
width = 540;
}
);
unicode = 78;
},
{
glyphname = Eng;
kernLeft = N;
kernRight = N;
lastChange = "2023-02-23 20:12:33 +0000";
layers = (
{
layerId = m01;
shapes = (
{
closed = 1;
nodes = (
(396,-215,o),
(452,-116,o),
(453,46,cs),
(453,632,ls),
(451,678,o),
(462,689,o),
(497,696,cs),
(513,699,ls),
(522,699,o),
(525,705,o),
(523,711,cs),
(527,717,o),
(520,722,o),
(507,718,cs),
(367,721,ls),
(357,722,o),
(349,714,o),
(349,708,cs),
(352,702,o),
(357,701,o),
(366,696,cs),
(380,692,ls),
(406,691,o),
(419,677,o),
(420,632,cs),
(419,179,ls),
(422,172,o),
(412,169,o),
(407,181,cs),
(162,699,ls),
(156,713,o),
(143,722,o),
(130,722,cs),
(33,721,ls),
(19,719,o),
(14,717,o),
(17,711,cs),
(14,701,o),
(22,701,o),
(27,696,cs),
(51,691,ls),
(80,689,o),
(86,684,o),
(87,655,cs),
(86,88,ls),
(89,50,o),
(79,29,o),
(43,24,cs),
(31,21,ls),
(23,26,o),
(18,19,o),
(17,13,cs),
(17,6,o),
(19,1,o),
(29,2,cs),
(173,1,ls),
(186,1,o),
(187,2,o),
(190,9,cs),
(187,19,o),
(184,21,o),
(177,24,cs),
(161,24,ls),
(132,28,o),
(120,50,o),
(118,88,cs),
(121,598,ls),
(120,608,o),
(125,611,o),
(129,602,cs),
(376,83,ls),
(384,73,o),
(382,65,o),
(386,53,cs),
(384,-91,ls),
(384,-144,o),
(370,-175,o),
(345,-175,cs),
(309,-175,o),
(323,-119,o),
(281,-119,cs),
(257,-119,o),
(242,-138,o),
(242,-161,cs),
(242,-193,o),
(270,-215,o),
(309,-215,cs)
);
}
);
width = 540;
}
);
unicode = 330;
},
{
glyphname = O;
kernLeft = O;
kernRight = O;
lastChange = "2023-02-01 19:27:44 +0000";
layers = (
{
anchors = (
{
name = bottom;
pos = (270,0);
},
{
name = center;
pos = (270,360);
},
{
name = ogonek;
pos = (486,10);
},
{
name = top;
pos = (270,720);
},
{
name = topleft;
pos = (20,720);
},
{
name = topright;
pos = (520,720);
}
);
background = {
shapes = (
{
pos = (-3,0);
ref = H;
}
);
};
guides = (
{
pos = (459,730);
},
{
angle = 90;
pos = (40,665);
},
{
angle = 90;
pos = (500,665);
}
);
layerId = m01;
shapes = (
{
closed = 1;
nodes = (
(398,-9,o),
(498,155,o),
(501,359,cs),
(501,570,o),
(400,731,o),
(271,729,cs),
(143,731,o),
(38,566,o),
(41,360,cs),
(38,152,o),
(141,-9,o),
(270,-9,cs)
);
},
{
closed = 1;
nodes = (
(178,19,o),
(117,128,o),
(118,360,cs),
(117,589,o),
(174,702,o),
(269,704,cs),
(365,705,o),
(420,589,o),
(420,362,cs),
(423,132,o),
(363,19,o),
(269,20,cs)
);
}
);
width = 540;
}
);
unicode = 79;
},
{
glyphname = Oslash;
kernLeft = O;
kernRight = O;
lastChange = "2023-02-23 19:53:48 +0000";
layers = (
{
background = {
shapes = (
{
closed = 1;
nodes = (
(79,-60,ls),
(84,-60,o),
(88,-58,o),
(90,-52,cs),
(343,540,ls),
(347,546,o),
(340,548,o),
(333,549,cs),
(325,548,ls),
(320,548,o),
(316,549,o),
(314,540,cs),
(64,-48,ls),
(61,-55,o),
(65,-60,o),
(72,-60,cs)
);
}
);
};
layerId = m01;
shapes = (
{
ref = O;
},
{
closed = 1;
nodes = (
(97,-60,ls),
(102,-60,o),
(106,-58,o),
(108,-52,cs),
(465,779,ls),
(468,786,o),
(460,792,o),
(457,788,cs),
(446,792,ls),
(441,791,o),
(434,787,o),
(431,784,cs),
(78,-48,ls),
(75,-55,o),
(79,-60,o),
(86,-60,cs)
);
}
);
width = 540;
}
);
unicode = 216;
},
{
glyphname = OE;
kernLeft = O;
kernRight = E;
lastChange = "2023-02-23 19:53:43 +0000";
layers = (
{
layerId = m01;
shapes = (
{
closed = 1;
nodes = (
(314,-9,o),
(343,2,o),
(388,-2,cs),
(684,-2,ls),
(698,2,o),
(707,9,o),
(712,25,cs),
(721,203,ls),
(722,211,o),
(713,217,o),
(707,219,cs),
(699,216,o),
(697,212,o),
(692,206,cs),
(679,145,ls),
(663,52,o),
(614,23,o),
(548,26,cs),
(482,26,o),
(458,47,o),
(459,94,cs),
(462,345,ls),
(461,354,o),
(463,359,o),
(473,357,cs),
(521,357,ls),
(555,359,o),
(571,345,o),
(580,299,cs),
(586,250,ls),
(589,246,o),
(596,237,o),
(603,238,cs),
(613,242,o),
(617,246,o),
(618,255,cs),
(614,482,ls),
(615,491,o),
(614,499,o),
(606,499,cs),
(599,501,o),
(592,492,o),
(589,486,cs),
(580,433,ls),
(569,404,o),
(556,386,o),
(525,390,cs),
(473,387,ls),
(466,387,o),
(462,391,o),
(459,404,cs),
(458,641,ls),
(458,679,o),
(476,696,o),
(529,693,cs),
(609,697,o),
(656,653,o),
(672,565,cs),
(678,528,ls),
(679,520,o),
(683,513,o),
(692,515,cs),
(697,513,o),
(705,521,o),
(702,529,cs),
(696,698,ls),
(696,713,o),
(684,718,o),
(668,722,cs),
(390,722,ls),
(345,721,o),
(315,727,o),
(276,730,cs),
(136,730,o),
(42,569,o),
(42,358,cs),
(38,152,o),
(135,-9,o),
(274,-9,cs)
);
},
{
closed = 1;
nodes = (
(167,16,o),
(117,128,o),
(120,360,cs),
(118,592,o),
(168,701,o),
(276,701,cs),
(346,703,o),
(388,671,o),
(391,606,cs),
(387,115,ls),
(387,51,o),
(342,17,o),
(280,16,cs)
);
}
);
width = 753;
}
);
metricLeft = O;
metricRight = E;
unicode = 338;
},
{
glyphname = P;
kernLeft = H;
lastChange = "2023-02-01 20:53:52 +0000";
layers = (
{
background = {
shapes = (
{
closed = 1;
nodes = (
(162,321,ls),
(158,331,o),
(160,334,o),
(169,338,cs),
(177,338,o),
(188,333,o),
(200,331,cs),
(211,325,o),
(229,324,o),
(253,326,cs),
(359,323,o),
(440,404,o),
(440,513,cs),
(440,649,o),
(357,718,o),
(245,721,cs),
(209,719,o),
(161,717,o),
(123,717,cs),
(96,717,o),
(68,719,o),
(37,721,cs),
(24,719,o),
(23,711,o),
(22,704,cs),
(22,692,o),
(29,694,o),
(62,690,cs),
(82,684,o),
(87,673,o),
(87,633,cs),
(90,77,ls),
(87,51,o),
(84,36,o),
(65,33,cs),
(27,28,o),
(19,27,o),
(19,12,cs),
(22,4,o),
(25,-2,o),
(42,-2,cs),
(53,-1,o),
(67,4,o),
(128,4,cs),
(192,3,o),
(208,1,o),
(224,-2,cs),
(237,1,o),
(247,8,o),
(244,14,cs),
(243,26,o),
(228,28,o),
(189,34,cs),
(169,33,o),
(162,54,o),
(159,91,cs)
);
},
{
closed = 1;
nodes = (
(158,656,ls),
(158,682,o),
(176,691,o),
(220,695,cs),
(314,694,o),
(366,623,o),
(366,521,cs),
(362,419,o),
(313,350,o),
(223,350,cs),
(197,350,o),
(185,360,o),
(173,369,cs),
(162,376,o),
(161,385,o),
(161,399,cs)
);
}
);
};
guides = (
{
pos = (261,326);
}
);
layerId = m01;
shapes = (
{
closed = 1;
nodes = (
(238,1,ls),
(245,1,o),
(250,8,o),
(253,14,cs),
(253,19,o),
(247,21,o),
(243,24,cs),
(202,31,ls),
(169,33,o),
(161,44,o),
(159,71,cs),
(161,311,ls),
(162,319,o),
(164,325,o),
(176,324,cs),
(244,324,ls),
(362,327,o),
(444,408,o),
(441,522,cs),
(440,636,o),
(359,721,o),
(245,722,cs),
(36,721,ls),
(26,722,o),
(21,718,o),
(21,710,cs),
(21,704,o),
(22,697,o),
(31,698,cs),
(57,695,ls),
(81,689,o),
(90,684,o),
(88,652,cs),
(90,68,ls),
(91,39,o),
(85,31,o),
(54,28,cs),
(31,25,ls),
(24,22,o),
(18,16,o),
(17,12,cs),
(20,3,o),
(26,-2,o),
(35,-1,cs)
);
},
{
closed = 1;
nodes = (
(162,657,l),
(162,684,o),
(177,693,o),
(220,693,cs),
(316,693,o),
(366,634,o),
(369,524,cs),
(368,415,o),
(315,353,o),
(226,349,cs),
(180,350,o),
(158,369,o),
(159,408,cs)
);
}
);
width = 466;
}
);
unicode = 80;
},
{
glyphname = Thorn;
kernLeft = H;
lastChange = "2023-02-23 19:53:56 +0000";
layers = (
{
background = {
shapes = (
{
closed = 1;
nodes = (
(238,1,ls),
(245,1,o),
(250,8,o),
(253,14,cs),
(253,19,o),
(247,21,o),
(243,24,cs),
(202,31,ls),
(169,33,o),
(161,44,o),
(159,71,cs),
(161,311,ls),
(162,319,o),
(164,325,o),
(176,324,cs),
(244,324,ls),
(362,327,o),
(444,408,o),
(441,522,cs),
(440,636,o),
(359,721,o),
(245,722,cs),
(36,721,ls),
(26,722,o),
(21,718,o),
(21,710,cs),
(21,704,o),
(22,697,o),
(31,698,cs),
(57,695,ls),
(81,689,o),
(90,684,o),
(88,652,cs),
(90,68,ls),
(91,39,o),
(85,31,o),
(54,28,cs),
(31,25,ls),
(24,22,o),
(18,16,o),
(17,12,cs),
(20,3,o),
(26,-2,o),
(35,-1,cs)
);
},
{
closed = 1;
nodes = (
(162,657,l),
(162,684,o),
(177,693,o),
(220,693,cs),
(316,693,o),
(366,634,o),
(369,524,cs),
(368,415,o),
(315,353,o),
(226,349,cs),
(180,350,o),
(158,369,o),
(159,408,cs)
);
}
);
};
layerId = m01;
shapes = (
{
closed = 1;
nodes = (
(238,1,ls),
(245,1,o),
(250,8,o),
(254,13,cs),
(251,19,o),
(246,20,o),
(237,22,cs),
(195,33,ls),
(164,37,o),
(159,42,o),
(162,72,cs),
(159,170,ls),
(161,179,o),
(163,186,o),
(173,183,cs),
(244,187,ls),
(362,187,o),
(443,266,o),
(441,378,cs),
(441,499,o),
(362,581,o),
(245,578,cs),
(175,580,ls),
(163,578,o),
(161,585,o),
(158,595,cs),
(158,650,ls),
(158,675,o),
(165,682,o),
(196,688,cs),
(238,699,ls),
(247,701,o),
(253,705,o),
(254,708,cs),
(253,717,o),
(249,721,o),
(238,719,cs),
(36,721,ls),
(26,722,o),
(21,718,o),
(21,710,cs),
(18,704,o),
(22,697,o),
(31,698,cs),
(57,695,ls),
(81,689,o),
(90,684,o),
(88,652,cs),
(90,68,ls),
(91,39,o),
(85,31,o),
(54,28,cs),
(31,25,ls),
(24,22,o),
(22,20,o),
(17,12,cs),
(20,3,o),
(26,-2,o),
(35,-1,cs)
);
},
{
closed = 1;
nodes = (
(180,209,o),
(159,226,o),
(162,266,cs),
(162,512,ls),
(162,544,o),
(180,553,o),
(219,553,cs),
(316,555,o),
(369,489,o),
(366,381,cs),
(368,276,o),
(316,211,o),
(229,211,cs)
);
}
);
width = 466;
}
);
unicode = 222;
},
{
glyphname = Q;
kernLeft = O;
kernRight = O;
lastChange = "2023-02-01 19:45:32 +0000";
layers = (
{
background = {
shapes = (
{
closed = 1;
nodes = (
(398,-9,o),
(498,155,o),
(501,359,cs),
(501,570,o),
(400,731,o),
(271,729,cs),
(143,731,o),
(38,566,o),
(41,360,cs),
(38,152,o),
(141,-9,o),
(270,-9,cs)
);
},
{
closed = 1;
nodes = (
(178,19,o),
(117,128,o),
(118,360,cs),
(117,589,o),
(174,702,o),
(269,704,cs),
(365,705,o),
(420,589,o),
(420,362,cs),
(423,132,o),
(363,19,o),
(269,20,cs)
);
},
{
closed = 1;
nodes = (
(480,-215,o),
(511,-202,o),
(532,-186,cs),
(538,-181,o),
(540,-177,o),
(540,-172,cs),
(540,-161,o),
(529,-158,o),
(518,-165,cs),
(497,-178,o),
(479,-184,o),
(457,-184,cs),
(411,-184,o),
(372,-152,o),
(348,-74,cs),
(332,-21,o),
(305,-5,o),
(243,6,c),
(209,2,l),
(254,-13,o),
(267,-24,o),
(275,-71,cs),
(294,-185,o),
(374,-215,o),
(434,-215,cs)
);
}
);
};
layerId = m01;
shapes = (
{
closed = 1;
nodes = (
(480,-215,o),
(511,-202,o),
(532,-186,cs),
(538,-181,o),
(540,-177,o),
(540,-172,cs),
(540,-161,o),
(529,-158,o),
(518,-165,cs),
(497,-178,o),
(479,-184,o),
(457,-184,cs),
(411,-184,o),
(372,-152,o),
(348,-74,cs),
(340,-46,o),
(328,-29,o),
(311,-17,cs),
(304,-12,o),
(304,-5,o),
(312,-3,cs),
(421,29,o),
(501,177,o),
(501,359,cs),
(501,570,o),
(400,731,o),
(271,729,cs),
(143,731,o),
(38,566,o),
(41,360,cs),
(39,178,o),
(119,31,o),
(222,-1,c),
(256,-15,o),
(268,-28,o),
(275,-71,cs),
(294,-185,o),
(374,-215,o),
(434,-215,cs)
);
},
{
closed = 1;
nodes = (
(178,19,o),
(117,128,o),
(118,360,cs),
(117,589,o),
(174,702,o),
(269,704,cs),
(365,705,o),
(420,589,o),
(420,362,cs),
(423,132,o),
(363,19,o),
(269,20,cs)
);
}
);
width = 540;
}
);
unicode = 81;
},
{
glyphname = R;
kernLeft = H;
kernRight = R;
lastChange = "2023-02-01 20:17:03 +0000";
layers = (
{
anchors = (
{
name = bottom;
pos = (277,0);
},
{
name = top;
pos = (257,720);
}
);
background = {
shapes = (
{
closed = 1;
nodes = (
(238,1,ls),
(245,1,o),
(250,8,o),
(253,14,cs),
(253,19,o),
(247,21,o),
(243,24,cs),
(202,31,ls),
(169,33,o),
(161,44,o),
(159,71,cs),
(162,322,ls),
(158,333,o),
(169,344,o),
(188,347,cs),
(252,347,ls),
(362,345,o),
(452,435,o),
(448,542,cs),
(449,643,o),
(366,718,o),
(245,719,cs),
(36,721,ls),
(26,722,o),
(21,718,o),
(21,710,cs),
(21,704,o),
(22,697,o),
(31,698,cs),
(57,695,ls),
(81,689,o),
(90,684,o),
(88,652,cs),
(90,68,ls),
(91,39,o),
(85,31,o),
(54,28,cs),
(31,25,ls),
(24,22,o),
(18,16,o),
(17,12,cs),
(20,3,o),
(26,-2,o),
(35,-1,cs)
);
},
{
closed = 1;
nodes = (
(183,370,o),
(162,387,o),
(158,424,cs),
(162,657,l),
(162,684,o),
(177,693,o),
(221,697,cs),
(317,696,o),
(377,637,o),
(376,540,cs),
(376,439,o),
(315,370,o),
(229,373,cs)
);
},
{
closed = 1;
nodes = (
(489,-9,o),
(524,11,o),
(521,35,cs),
(525,46,o),
(511,50,o),
(503,39,cs),
(486,30,o),
(478,28,o),
(469,27,cs),
(440,27,o),
(422,57,o),
(405,124,cs),
(382,226,ls),
(368,297,o),
(341,329,o),
(295,344,c),
(292,350,l),
(191,347,l),
(274,347,o),
(293,321,o),
(317,215,cs),
(337,106,ls),
(353,31,o),
(392,-9,o),
(450,-9,cs)
);
}
);
};
guides = (
{
angle = 15.5241;
pos = (439,117);
showMeasurement = 1;
}
);
layerId = m01;
shapes = (
{
closed = 1;
nodes = (
(489,-9,o),
(524,11,o),
(521,35,cs),
(525,46,o),
(511,50,o),
(503,39,cs),
(486,30,o),
(478,28,o),
(469,27,cs),
(440,27,o),
(422,57,o),
(405,124,cs),
(382,226,ls),
(372,289,o),
(346,322,o),
(303,342,cs),
(294,343,o),
(298,350,o),
(307,356,cs),
(384,385,o),
(442,454,o),
(439,541,cs),
(439,647,o),
(357,718,o),
(238,719,cs),
(36,721,ls),
(26,722,o),
(21,718,o),
(21,710,cs),
(21,704,o),
(22,697,o),
(31,698,cs),
(57,695,ls),
(81,689,o),
(90,684,o),
(88,652,cs),
(90,68,ls),
(91,39,o),
(85,31,o),
(54,28,cs),
(31,25,ls),
(24,22,o),
(18,16,o),
(17,12,cs),
(20,3,o),
(26,-2,o),
(35,-1,cs),
(238,1,ls),
(245,1,o),
(250,8,o),
(253,14,cs),
(253,19,o),
(247,21,o),
(243,24,cs),
(202,31,ls),
(169,33,o),
(161,44,o),
(159,71,cs),
(162,322,ls),
(158,333,o),
(169,344,o),
(188,347,cs),
(274,347,o),
(293,321,o),
(317,215,cs),
(337,106,ls),
(353,31,o),
(392,-9,o),
(450,-9,cs)
);
},
{
closed = 1;
nodes = (
(183,370,o),
(162,387,o),
(158,424,cs),
(158,656,ls),
(162,684,o),
(177,693,o),
(212,696,cs),
(307,696,o),
(367,637,o),
(366,540,cs),
(367,435,o),
(315,370,o),
(229,373,cs)
);
}
);
width = 513;
}
);
unicode = 82;
},
{
glyphname = S;
kernLeft = S;
kernRight = S;
lastChange = "2023-02-01 20:17:08 +0000";
layers = (
{
anchors = (
{
name = bottom;
pos = (209,0);
},
{
name = top;
pos = (229,720);
}
);
background = {
shapes = (
{
closed = 0;
nodes = (
(326,151,ls),
(323,98,o),
(285,21,o),
(209,25,cs),
(130,21,o),
(98,67,o),
(76,167,cs),
(73,194,ls),
(66,203,o),
(61,207,o),
(55,206,cs),
(49,209,o),
(46,201,o),
(43,189,cs),
(51,41,ls),
(47,31,o),
(54,25,o),
(61,20,cs),
(87,-1,o),
(127,-9,o),
(189,-9,cs),
(317,-9,o),
(389,93,o),
(388,188,cs)
);
}
);
};
layerId = m01;
shapes = (
{
closed = 1;
nodes = (
(296,-9,o),
(376,68,o),
(378,176,cs),
(378,265,o),
(332,334,o),
(234,415,cs),
(138,491,o),
(106,537,o),
(105,595,cs),
(109,662,o),
(142,698,o),
(200,702,cs),
(260,699,o),
(287,653,o),
(316,553,cs),
(322,529,ls),
(323,515,o),
(328,515,o),
(333,515,cs),
(344,512,o),
(348,520,o),
(346,532,cs),
(343,682,ls),
(346,691,o),
(341,699,o),
(332,705,cs),
(308,718,o),
(269,728,o),
(226,729,cs),
(118,731,o),
(45,664,o),
(43,565,cs),
(42,490,o),
(85,429,o),
(184,357,cs),
(276,293,o),
(313,225,o),
(315,146,cs),
(316,69,o),
(270,22,o),
(203,18,cs),
(143,18,o),
(100,67,o),
(77,162,cs),
(67,202,ls),
(65,212,o),
(64,218,o),
(53,217,cs),
(44,218,o),
(40,210,o),
(43,197,cs),
(48,44,ls),
(44,29,o),
(50,25,o),
(61,20,cs),
(83,2,o),
(144,-9,o),
(184,-9,cs)
);
}
);
width = 407;
}
);
unicode = 83;
},
{
glyphname = Germandbls;
lastChange = "2023-08-18 20:20:07 +0000";
layers = (
{
background = {
shapes = (
{
ref = H;
}
);
};
layerId = m01;
shapes = (
{
closed = 1;
nodes = (
(421,-9,o),
(498,46,o),
(497,170,cs),
(498,252,o),
(433,347,o),
(338,427,c),
(332,390,l),
(494,628,l),
(446,700,o),
(398,732,o),
(304,731,cs),
(183,728,o),
(90,641,o),
(91,493,cs),
(90,68,ls),
(91,39,o),
(85,31,o),
(54,28,cs),
(31,25,ls),
(24,22,o),
(22,20,o),
(17,12,cs),
(20,3,o),
(26,-2,o),
(35,-1,cs),
(135,2,ls),
(152,2,o),
(162,8,o),
(162,25,cs),
(159,513,ls),
(162,653,o),
(226,702,o),
(301,699,cs),
(363,699,o),
(413,662,o),
(438,592,c),
(453,631,l),
(281,383,l),
(293,369,ls),
(381,305,o),
(437,218,o),
(434,141,cs),
(438,39,o),
(390,22,o),
(351,19,cs),
(308,22,o),
(268,62,o),
(256,134,cs),
(245,190,ls),
(243,205,o),
(236,211,o),
(229,208,cs),
(222,210,o),
(218,201,o),
(218,188,cs),
(215,40,ls),
(218,25,o),
(224,22,o),
(233,19,cs),
(256,6,o),
(300,-9,o),
(341,-9,cs)
);
}
);
width = 529;
}
);
metricLeft = H;
metricRight = S;
unicode = 7838;
},
{
glyphname = T;
kernLeft = T;
kernRight = T;
lastChange = "2023-02-01 21:02:25 +0000";
layers = (
{
anchors = (
{
name = bottom;
pos = (231,0);
},
{
name = center;
pos = (231,360);
},
{
name = top;
pos = (231,720);
}
);
layerId = m01;
shapes = (
{
closed = 1;
nodes = (
(341,2,ls),
(351,1,o),
(359,2,o),
(360,13,cs),
(357,18,o),
(353,21,o),
(347,21,cs),
(301,29,ls),
(275,36,o),
(268,40,o),
(267,67,cs),
(264,671,ls),
(267,687,o),
(274,697,o),
(299,694,cs),
(349,693,o),
(404,654,o),
(419,562,cs),
(423,528,ls),
(424,518,o),
(427,512,o),
(434,515,cs),
(444,511,o),
(449,518,o),
(447,532,cs),
(439,714,ls),
(438,726,o),
(435,734,o),
(421,733,cs),
(410,733,o),
(403,719,o),
(341,721,cs),
(118,722,ls),
(54,719,o),
(54,733,o),
(38,734,cs),
(29,734,o),
(24,729,o),
(19,713,cs),
(11,533,ls),
(13,518,o),
(18,513,o),
(24,516,cs),
(35,515,o),
(37,521,o),
(38,528,cs),
(45,558,ls),
(56,656,o),
(115,696,o),
(163,693,cs),
(191,694,o),
(196,690,o),
(197,671,cs),
(194,67,ls),
(197,42,o),
(186,35,o),
(159,31,cs),
(117,25,ls),
(108,23,o),
(102,19,o),
(102,12,cs),
(104,2,o),
(106,-2,o),
(119,1,cs)
);
}
);
width = 461;
}
);
unicode = 84;
},
{
glyphname = U;
kernLeft = U;
kernRight = U;
lastChange = "2023-02-01 20:54:19 +0000";
layers = (
{
anchors = (
{
name = bottom;
pos = (268,0);
},
{
name = ogonek;
pos = (334,0);
},
{
name = top;
pos = (288,720);
},
{
name = topright;
pos = (516,720);
}
);
background = {
shapes = (
{
pos = (3,0);
ref = H;
}
);
};
layerId = m01;
shapes = (
{
closed = 1;
nodes = (
(383,-9,o),
(453,72,o),
(453,194,cs),
(455,632,ls),
(456,669,o),
(465,690,o),
(490,692,cs),
(513,699,ls),
(519,700,o),
(522,700,o),
(523,711,cs),
(527,717,o),
(520,722,o),
(507,718,cs),
(363,718,ls),
(357,718,o),
(351,714,o),
(349,710,cs),
(351,701,o),
(352,700,o),
(363,699,cs),
(387,694,ls),
(410,687,o),
(420,672,o),
(420,632,cs),
(421,192,ls),
(420,92,o),
(372,30,o),
(290,30,cs),
(210,32,o),
(165,91,o),
(165,190,cs),
(161,651,ls),
(162,679,o),
(172,686,o),
(196,695,cs),
(225,696,ls),
(232,695,o),
(233,704,o),
(233,710,cs),
(234,718,o),
(231,719,o),
(222,721,cs),
(38,721,ls),
(28,722,o),
(21,715,o),
(24,707,cs),
(20,700,o),
(25,697,o),
(36,699,cs),
(60,691,ls),
(88,687,o),
(91,680,o),
(91,652,cs),
(94,193,ls),
(94,74,o),
(167,-9,o),
(275,-9,cs)
);
}
);
width = 536;
}
);
unicode = 85;
},
{
glyphname = V;
lastChange = "2023-02-01 20:54:24 +0000";
layers = (
{
background = {
shapes = (
{
closed = 1;
nodes = (
(234,-10,o),
(241,-7,o),
(243,7,cs),
(401,632,ls),
(407,666,o),
(421,691,o),
(448,696,cs),
(463,696,ls),
(471,700,o),
(473,701,o),
(473,709,cs),
(477,718,o),
(468,722,o),
(458,722,cs),
(322,721,ls),
(312,718,o),
(305,717,o),
(308,708,cs),
(304,702,o),
(312,701,o),
(321,699,cs),
(336,694,ls),
(367,689,o),
(378,671,o),
(369,634,cs),
(251,155,l),
(244,158,l),
(124,654,ls),
(116,683,o),
(121,694,o),
(147,693,cs),
(164,698,ls),
(179,700,o),
(180,705,o),
(180,708,cs),
(180,715,o),
(175,721,o),
(169,722,cs),
(-3,720,ls),
(-12,720,o),
(-18,717,o),
(-18,710,cs),
(-18,703,o),
(-13,699,o),
(-4,697,cs),
(10,693,ls),
(38,687,o),
(48,676,o),
(54,642,cs),
(215,5,ls),
(216,-7,o),
(223,-10,o),
(229,-10,cs)
);
}
);
};
layerId = m01;
shapes = (
{
closed = 1;
nodes = (
(234,-10,o),
(241,-7,o),
(243,7,cs),
(401,632,ls),
(407,666,o),
(421,691,o),
(448,696,cs),
(463,696,ls),
(471,700,o),
(473,701,o),
(473,709,cs),
(477,718,o),
(468,722,o),
(458,722,cs),
(322,721,ls),
(312,718,o),
(305,717,o),
(308,708,cs),
(304,702,o),
(312,701,o),
(321,699,cs),
(336,694,ls),
(367,689,o),
(378,671,o),
(369,634,cs),
(254,170,ls),
(252,163,o),
(241,162,o),
(240,171,cs),
(124,654,ls),
(116,683,o),
(121,694,o),
(147,693,cs),
(164,698,ls),
(179,700,o),
(180,705,o),
(180,708,cs),
(180,715,o),
(175,721,o),
(169,722,cs),
(-3,720,ls),
(-12,720,o),
(-18,717,o),
(-18,710,cs),
(-18,703,o),
(-13,699,o),
(-4,697,cs),
(10,693,ls),
(38,687,o),
(48,676,o),
(54,642,cs),
(215,5,ls),
(216,-7,o),
(223,-10,o),
(229,-10,cs)
);
}
);
width = 457;
}
);
unicode = 86;
},
{
glyphname = W;
kernLeft = W;
kernRight = W;
lastChange = "2023-02-01 20:54:28 +0000";
layers = (
{
anchors = (
{
name = bottom;
pos = (326,0);
},
{
name = top;
pos = (346,720);
}
);
background = {
shapes = (
{
closed = 1;
nodes = (
(437,-10,o),
(443,-7,o),
(447,8,cs),
(602,630,ls),
(611,675,o),
(624,696,o),
(640,697,cs),
(650,695,ls),
(662,696,o),
(671,704,o),
(668,710,cs),
(671,714,o),
(664,722,o),
(653,722,cs),
(538,722,ls),
(532,718,o),
(524,718,o),
(524,711,cs),
(525,701,o),
(528,700,o),
(539,699,cs),
(551,696,ls),
(576,689,o),
(581,668,o),
(568,631,cs),
(451,156,l),
(449,159,l),
(326,652,ls),
(321,680,o),
(324,690,o),
(338,696,cs),
(349,696,ls),
(363,700,o),
(368,701,o),
(364,707,cs),
(365,715,o),
(359,721,o),
(353,721,cs),
(213,719,ls),
(207,718,o),
(199,719,o),
(202,712,cs),
(201,705,o),
(206,698,o),
(213,698,cs),
(231,696,ls),
(243,689,o),
(253,676,o),
(259,639,cs),
(419,8,ls),
(421,-7,o),
(426,-10,o),
(432,-10,cs)
);
},
{
closed = 1;
nodes = (
(341,478,l),
(253,150,l),
(246,153,l),
(124,654,ls),
(116,683,o),
(124,693,o),
(147,693,cs),
(158,696,ls),
(169,698,o),
(173,701,o),
(173,711,cs),
(174,718,o),
(169,722,o),
(156,722,cs),
(-3,720,ls),
(-12,720,o),
(-18,717,o),
(-18,710,cs),
(-18,703,o),
(-13,699,o),
(-4,697,cs),
(10,693,ls),
(38,687,o),
(48,676,o),
(54,642,cs),
(215,5,ls),
(216,-7,o),
(222,-10,o),
(228,-10,cs),
(233,-10,o),
(238,-7,o),
(241,8,cs),
(362,431,l)
);
},
{
closed = 1;
nodes = (
(372,396,l),
(437,630,ls),
(451,678,o),
(459,693,o),
(481,698,cs),
(491,695,ls),
(503,696,o),
(506,704,o),
(508,710,cs),
(505,715,o),
(498,722,o),
(492,722,cs),
(394,721,ls),
(385,722,o),
(383,713,o),
(382,707,cs),
(382,703,o),
(384,700,o),
(394,698,cs),
(406,694,ls),
(418,691,o),
(427,683,o),
(409,631,cs),
(354,442,l)
);
}
);
};
layerId = m01;
shapes = (
{
closed = 1;
nodes = (
(437,-10,o),
(443,-7,o),
(447,8,cs),
(602,630,ls),
(611,675,o),
(624,696,o),
(640,697,cs),
(650,695,ls),
(662,696,o),
(671,704,o),
(668,710,cs),
(671,714,o),
(664,722,o),
(653,722,cs),
(538,722,ls),
(532,718,o),
(524,718,o),
(524,711,cs),
(525,701,o),
(528,700,o),
(539,699,cs),
(551,696,ls),
(576,689,o),
(581,668,o),
(568,631,cs),
(457,169,ls),
(455,162,o),
(446,164,o),
(442,170,cs),
(399,357,ls),
(385,409,o),
(384,451,o),
(399,499,cs),
(437,630,ls),
(451,678,o),
(459,693,o),
(481,698,cs),
(491,695,ls),
(503,696,o),
(506,704,o),
(508,710,cs),
(505,715,o),
(498,722,o),
(492,722,cs),
(394,721,ls),
(385,722,o),
(383,713,o),
(382,707,cs),
(382,703,o),
(384,700,o),
(394,698,cs),
(406,694,ls),
(418,691,o),
(427,683,o),
(409,631,cs),
(376,512,ls),
(370,503,o),
(364,500,o),
(359,512,cs),
(326,652,ls),
(321,680,o),
(324,690,o),
(338,696,cs),
(349,696,ls),
(363,700,o),
(368,701,o),
(364,707,cs),
(365,715,o),
(359,721,o),
(353,721,cs),
(213,719,ls),
(207,718,o),
(199,719,o),
(202,712,cs),
(201,705,o),
(206,698,o),
(213,698,cs),
(231,696,ls),
(243,689,o),
(253,676,o),
(259,639,cs),
(303,471,ls),
(317,418,o),
(314,380,o),
(303,326,cs),
(255,164,ls),
(255,157,o),
(243,155,o),
(244,164,cs),
(124,654,ls),
(116,683,o),
(124,693,o),
(147,693,cs),
(158,696,ls),
(169,698,o),
(173,701,o),
(173,711,cs),
(174,718,o),
(169,722,o),
(156,722,cs),
(-3,720,ls),
(-12,720,o),
(-18,717,o),
(-18,710,cs),
(-18,703,o),
(-13,699,o),
(-4,697,cs),
(10,693,ls),
(38,687,o),
(48,676,o),
(54,642,cs),
(215,5,ls),
(216,-7,o),
(222,-10,o),
(228,-10,cs),
(233,-10,o),
(238,-7,o),
(241,8,cs),
(327,314,ls),
(330,323,o),
(337,324,o),
(343,317,cs),
(419,8,ls),
(421,-7,o),
(426,-10,o),
(432,-10,cs)
);
}
);
width = 651;
}
);
unicode = 87;
},
{
glyphname = X;
lastChange = "2023-02-01 20:54:34 +0000";
layers = (
{
background = {
shapes = (
{
closed = 1;
nodes = (
(511,-1,ls),
(520,-1,o),
(526,6,o),
(526,9,cs),
(525,18,o),
(523,24,o),
(509,22,cs),
(489,26,ls),
(477,28,o),
(458,36,o),
(446,65,cs),
(181,655,ls),
(169,680,o),
(183,688,o),
(202,692,cs),
(224,696,ls),
(235,701,o),
(237,700,o),
(239,709,cs),
(238,714,o),
(233,719,o),
(221,719,cs),
(47,719,ls),
(36,718,o),
(30,714,o),
(30,708,cs),
(28,701,o),
(32,698,o),
(44,698,cs),
(63,692,ls),
(79,692,o),
(98,685,o),
(108,651,cs),
(375,68,ls),
(385,44,o),
(371,28,o),
(348,29,cs),
(329,26,ls),
(318,24,o),
(313,16,o),
(316,14,cs),
(313,6,o),
(321,-2,o),
(331,1,cs)
);
},
{
closed = 1;
nodes = (
(204,-2,ls),
(214,-2,o),
(222,6,o),
(221,12,cs),
(221,15,o),
(214,23,o),
(202,23,cs),
(173,32,ls),
(151,36,o),
(148,46,o),
(159,76,cs),
(260,310,l),
(279,313,l),
(230,384,l),
(242,360,o),
(241,348,o),
(234,327,cs),
(132,90,ls),
(118,53,o),
(93,34,o),
(49,29,cs),
(37,26,ls),
(26,21,o),
(22,20,o),
(18,10,cs),
(22,4,o),
(26,-2,o),
(39,1,cs)
);
},
{
closed = 1;
nodes = (
(309,373,o),
(309,391,o),
(313,409,cs),
(411,627,ls),
(428,667,o),
(451,687,o),
(484,694,cs),
(496,697,ls),
(508,698,o),
(511,703,o),
(514,709,cs),
(511,715,o),
(507,722,o),
(496,722,cs),
(343,719,ls),
(330,719,o),
(325,715,o),
(325,712,cs),
(325,702,o),
(331,701,o),
(340,698,cs),
(370,691,ls),
(394,684,o),
(393,670,o),
(381,644,cs),
(292,422,l),
(273,422,l),
(316,353,l)
);
}
);
};
layerId = m01;
shapes = (
{
closed = 1;
nodes = (
(204,-2,ls),
(214,-2,o),
(222,6,o),
(221,12,cs),
(221,15,o),
(214,23,o),
(202,23,cs),
(173,32,ls),
(151,36,o),
(148,46,o),
(159,76,cs),
(252,294,ls),
(255,310,o),
(264,307,o),
(269,295,cs),
(375,68,ls),
(385,44,o),
(371,28,o),
(348,29,cs),
(329,26,ls),
(318,24,o),
(313,16,o),
(316,14,cs),
(313,6,o),
(321,-2,o),
(331,1,cs),
(511,-1,ls),
(520,-1,o),
(526,6,o),
(526,9,cs),
(525,18,o),
(523,24,o),
(509,22,cs),
(489,26,ls),
(477,28,o),
(458,36,o),
(446,65,cs),
(317,354,ls),
(306,376,o),
(309,391,o),
(313,409,cs),
(411,627,ls),
(428,667,o),
(451,687,o),
(484,694,cs),
(496,697,ls),
(508,698,o),
(511,703,o),
(514,709,cs),
(511,715,o),
(507,722,o),
(496,722,cs),
(343,719,ls),
(330,719,o),
(325,715,o),
(325,712,cs),
(325,702,o),
(331,701,o),
(340,698,cs),
(370,691,ls),
(394,684,o),
(393,670,o),
(381,644,cs),
(296,442,ls),
(291,426,o),
(282,426,o),
(277,441,cs),
(181,655,ls),
(169,680,o),
(183,688,o),
(202,692,cs),
(224,696,ls),
(235,701,o),
(237,700,o),
(239,709,cs),
(238,714,o),
(233,719,o),
(221,719,cs),
(47,719,ls),
(36,718,o),
(30,714,o),
(30,708,cs),
(28,701,o),
(32,698,o),
(44,698,cs),
(63,692,ls),
(79,692,o),
(98,685,o),
(108,651,cs),
(234,375,ls),
(242,358,o),
(238,343,o),
(234,327,cs),
(132,90,ls),
(118,53,o),
(93,34,o),
(49,29,cs),
(37,26,ls),
(26,21,o),
(22,20,o),
(18,10,cs),
(22,4,o),
(26,-2,o),
(39,1,cs)
);
}
);
width = 546;
}
);
unicode = 88;
},
{
glyphname = Y;
kernLeft = Y;
kernRight = Y;
lastChange = "2023-02-01 21:02:35 +0000";
layers = (
{
anchors = (
{
name = bottom;
pos = (239,0);
},
{
name = top;
pos = (259,720);
},
{
name = topleft;
pos = (20,720);
}
);
background = {
shapes = (
{
closed = 1;
nodes = (
(351,-2,ls),
(363,1,o),
(366,2,o),
(369,13,cs),
(369,15,o),
(364,23,o),
(353,22,cs),
(311,32,ls),
(281,36,o),
(276,40,o),
(274,70,cs),
(277,314,ls),
(277,332,o),
(277,351,o),
(287,370,cs),
(417,632,ls),
(443,673,o),
(450,690,o),
(472,697,cs),
(482,698,ls),
(488,698,o),
(497,701,o),
(493,709,cs),
(496,716,o),
(487,718,o),
(478,719,cs),
(337,722,ls),
(330,719,o),
(325,715,o),
(325,710,cs),
(325,702,o),
(331,701,o),
(340,695,cs),
(365,696,ls),
(395,688,o),
(404,668,o),
(385,631,cs),
(258,374,l),
(256,377,l),
(124,654,ls),
(110,683,o),
(121,694,o),
(147,693,cs),
(164,698,ls),
(179,700,o),
(180,705,o),
(180,708,cs),
(180,715,o),
(175,721,o),
(169,722,cs),
(-3,720,ls),
(-12,720,o),
(-18,717,o),
(-18,710,cs),
(-18,703,o),
(-13,699,o),
(-4,697,cs),
(4,693,ls),
(25,691,o),
(36,677,o),
(48,657,cs),
(195,347,ls),
(202,332,o),
(202,319,o),
(206,307,cs),
(203,70,ls),
(206,42,o),
(194,36,o),
(171,32,cs),
(123,25,ls),
(115,21,o),
(113,19,o),
(113,9,cs),
(114,6,o),
(116,1,o),
(125,-2,cs)
);
}
);
};
layerId = m01;
shapes = (
{
closed = 1;
nodes = (
(351,-2,ls),
(363,1,o),
(366,2,o),
(369,13,cs),
(369,15,o),
(364,23,o),
(353,22,cs),
(311,32,ls),
(281,36,o),
(276,40,o),
(274,70,cs),
(277,314,ls),
(277,332,o),
(277,351,o),
(287,370,cs),
(417,632,ls),
(443,673,o),
(450,690,o),
(472,697,cs),
(482,698,ls),
(488,698,o),
(497,701,o),
(493,709,cs),
(496,716,o),
(487,718,o),
(478,719,cs),
(337,722,ls),
(330,719,o),
(325,715,o),
(325,710,cs),
(325,702,o),
(331,701,o),
(340,695,cs),
(365,696,ls),
(395,688,o),
(404,668,o),
(385,631,cs),
(266,392,ls),
(265,379,o),
(255,380,o),
(250,389,cs),
(124,654,ls),
(110,683,o),
(121,694,o),
(147,693,cs),
(164,698,ls),
(179,700,o),
(180,705,o),
(180,708,cs),
(180,715,o),
(175,721,o),
(169,722,cs),
(-3,720,ls),
(-12,720,o),
(-18,717,o),
(-18,710,cs),
(-18,703,o),
(-13,699,o),
(-4,697,cs),
(4,693,ls),
(25,691,o),
(36,677,o),
(48,657,cs),
(195,347,ls),
(202,332,o),
(202,319,o),
(206,307,cs),
(203,70,ls),
(206,42,o),
(194,36,o),
(171,32,cs),
(123,25,ls),
(115,21,o),
(113,19,o),
(113,9,cs),
(114,6,o),
(116,1,o),
(125,-2,cs)
);
}
);
width = 477;
}
);
unicode = 89;
},
{
glyphname = Z;
kernLeft = Z;
kernRight = Z;
lastChange = "2023-08-31 20:25:35 +0000";
layers = (
{
anchors = (
{
name = bottom;
pos = (214,0);
},
{
name = center;
pos = (214,360);
},
{
name = top;
pos = (234,720);
}
);
background = {
shapes = (
{
closed = 1;
nodes = (
(366,-2,ls),
(380,-1,o),
(386,7,o),
(388,22,cs),
(402,210,ls),
(403,224,o),
(398,226,o),
(390,229,cs),
(382,226,o),
(375,222,o),
(375,214,cs),
(358,130,ls),
(339,47,o),
(293,32,o),
(250,29,cs),
(99,31,l),
(101,34,l),
(395,690,ls),
(400,708,o),
(395,718,o),
(373,718,cs),
(152,721,ls),
(91,722,o),
(89,742,o),
(73,742,cs),
(63,739,o),
(59,731,o),
(59,718,cs),
(37,529,ls),
(36,519,o),
(46,512,o),
(51,515,cs),
(62,515,o),
(63,521,o),
(65,526,cs),
(82,578,ls),
(107,667,o),
(148,692,o),
(197,691,cs),
(314,688,l),
(313,686,l),
(19,31,ls),
(15,10,o),
(19,1,o),
(42,2,cs)
);
}
);
};
layerId = m01;
shapes = (
{
closed = 1;
nodes = (
(366,-2,ls),
(380,-1,o),
(386,7,o),
(388,22,cs),
(402,210,ls),
(403,224,o),
(398,226,o),
(390,229,cs),
(382,226,o),
(375,222,o),
(375,214,cs),
(363,150,ls),
(339,47,o),
(281,29,o),
(225,28,cs),
(118,31,ls),
(108,28,o),
(100,37,o),
(107,45,cs),
(395,690,ls),
(400,708,o),
(395,718,o),
(373,718,cs),
(152,721,ls),
(91,722,o),
(89,742,o),
(73,742,cs),
(63,739,o),
(59,731,o),
(59,718,cs),
(37,529,ls),
(36,519,o),
(46,512,o),
(51,515,cs),
(62,515,o),
(63,521,o),
(65,526,cs),
(82,578,ls),
(108,664,o),
(148,692,o),
(197,691,cs),
(298,691,ls),
(311,691,o),
(315,685,o),
(309,673,cs),
(19,31,ls),
(15,10,o),
(19,1,o),
(42,2,cs)
);
}
);
width = 427;
}
);
unicode = 90;
},
{
glyphname = a;
kernLeft = a;
kernRight = a;
lastChange = "2023-02-01 20:17:48 +0000";
layers = (
{
anchors = (
{
name = bottom;
pos = (200,0);
},
{
name = ogonek;
pos = (344,0);
},
{
name = top;
pos = (200,510);
}
);
background = {
shapes = (
{
closed = 1;
nodes = (
(169,-9,o),
(200,13,o),
(229,59,cs),
(241,73,o),
(250,72,o),
(252,59,cs),
(258,23,o),
(279,-9,o),
(311,-9,cs),
(354,-9,o),
(393,30,o),
(395,131,cs),
(395,139,o),
(387,145,o),
(380,148,cs),
(373,147,o),
(368,143,o),
(370,132,cs),
(370,72,o),
(352,55,o),
(332,51,cs),
(323,52,o),
(311,67,o),
(312,97,cs),
(313,405,ls),
(311,478,o),
(280,515,o),
(213,514,cs),
(128,518,o),
(32,431,o),
(29,356,cs),
(30,338,o),
(41,328,o),
(57,329,cs),
(79,326,o),
(109,346,o),
(115,387,cs),
(124,459,o),
(153,485,o),
(191,487,cs),
(224,485,o),
(244,460,o),
(246,395,cs),
(246,176,ls),
(244,95,o),
(196,39,o),
(146,39,cs),
(116,39,o),
(94,63,o),
(94,104,cs),
(98,187,o),
(154,240,o),
(253,268,c),
(253,298,l),
(120,261,o),
(26,177,o),
(25,87,cs),
(26,28,o),
(64,-9,o),
(120,-9,cs)
);
}
);
};
layerId = m01;
shapes = (
{
closed = 1;
nodes = (
(169,-9,o),
(200,13,o),
(229,59,cs),
(241,73,o),
(250,72,o),
(252,59,cs),
(258,23,o),
(279,-9,o),
(311,-9,cs),
(354,-9,o),
(393,30,o),
(395,131,cs),
(395,139,o),
(387,145,o),
(380,148,cs),
(373,147,o),
(368,143,o),
(370,132,cs),
(370,72,o),
(352,55,o),
(332,51,cs),
(323,52,o),
(311,67,o),
(312,97,cs),
(313,405,ls),
(311,478,o),
(280,515,o),
(213,514,cs),
(128,518,o),
(32,431,o),
(29,356,cs),
(30,338,o),
(41,328,o),
(57,329,cs),
(79,326,o),
(109,346,o),
(115,387,cs),
(124,459,o),
(153,485,o),
(191,487,cs),
(224,485,o),
(244,460,o),
(246,395,cs),
(246,305,ls),
(247,299,o),
(239,290,o),
(230,291,cs),
(112,252,o),
(26,175,o),
(25,87,cs),
(26,28,o),
(64,-9,o),
(120,-9,cs)
);
},
{
closed = 1;
nodes = (
(116,39,o),
(94,63,o),
(94,104,cs),
(98,176,o),
(141,230,o),
(222,257,cs),
(239,262,o),
(244,260,o),
(243,246,cs),
(246,176,ls),
(244,95,o),
(196,39,o),
(146,39,cs)
);
}
);
width = 399;
}
);
unicode = 97;
},
{
glyphname = ae;
kernLeft = a;
kernRight = e;
lastChange = "2023-02-23 19:55:07 +0000";
layers = (
{
background = {
shapes = (
{
closed = 1;
nodes = (
(169,-9,o),
(200,13,o),
(229,59,cs),
(241,73,o),
(250,72,o),
(314,97,c),
(313,405,ls),
(311,478,o),
(280,515,o),
(213,514,cs),
(128,518,o),
(32,431,o),
(29,356,cs),
(30,338,o),
(41,328,o),
(57,329,cs),
(79,326,o),
(109,346,o),
(115,387,cs),
(124,459,o),
(153,485,o),
(191,487,cs),
(224,485,o),
(244,460,o),
(246,395,cs),
(246,305,ls),
(247,299,o),
(239,290,o),
(230,291,cs),
(112,252,o),
(26,175,o),
(25,87,cs),
(26,28,o),
(64,-9,o),
(120,-9,cs)
);
},
{
closed = 1;
nodes = (
(116,39,o),
(94,63,o),
(94,104,cs),
(98,176,o),
(141,230,o),
(222,257,cs),
(239,262,o),
(244,260,o),
(243,246,cs),
(246,176,ls),
(244,95,o),
(196,39,o),
(146,39,cs)
);
},
{
closed = 1;
nodes = (
(476,-9,o),
(523,34,o),
(544,153,cs),
(547,161,o),
(547,170,o),
(539,173,cs),
(529,172,o),
(528,165,o),
(526,162,cs),
(503,76,o),
(472,43,o),
(422,44,cs),
(357,41,o),
(314,112,o),
(314,256,cs),
(312,271,o),
(319,275,o),
(332,276,cs),
(522,278,ls),
(539,279,o),
(547,290,o),
(549,312,cs),
(550,456,o),
(492,518,o),
(415,515,cs),
(319,518,o),
(252,404,o),
(250,247,cs),
(252,95,o),
(314,-9,o),
(410,-9,cs)
);
},
{
closed = 1;
nodes = (
(321,301,o),
(313,307,o),
(313,317,cs),
(327,427,o),
(361,489,o),
(417,493,cs),
(456,493,o),
(478,437,o),
(477,354,cs),
(477,315,o),
(463,301,o),
(429,300,cs),
(332,300,ls)
);
}
);
};
layerId = m01;
shapes = (
{
closed = 1;
nodes = (
(168,-9,o),
(202,16,o),
(229,54,cs),
(314,177,l),
(313,405,ls),
(311,478,o),
(280,515,o),
(213,514,cs),
(128,518,o),
(32,431,o),
(29,356,cs),
(30,338,o),
(41,328,o),
(57,329,cs),
(79,326,o),
(109,346,o),
(115,387,cs),
(124,459,o),
(153,485,o),
(191,487,cs),
(224,485,o),
(244,460,o),
(246,395,cs),
(246,305,ls),
(247,299,o),
(239,290,o),
(230,291,cs),
(112,252,o),
(26,175,o),
(25,87,cs),
(26,28,o),
(64,-9,o),
(119,-9,cs)
);
},
{
closed = 1;
nodes = (
(116,39,o),
(94,63,o),
(94,104,cs),
(98,176,o),
(141,230,o),
(222,257,cs),
(239,262,o),
(244,260,o),
(243,246,cs),
(246,176,ls),
(244,95,o),
(196,39,o),
(146,39,cs)
);
},
{
closed = 1;
nodes = (
(476,-9,o),
(523,34,o),
(544,153,cs),
(547,161,o),
(547,170,o),
(539,173,cs),
(529,172,o),
(528,165,o),
(526,162,cs),
(503,76,o),
(472,43,o),
(422,44,cs),
(357,41,o),
(314,112,o),
(314,256,cs),
(312,271,o),
(319,275,o),
(332,276,cs),
(522,278,ls),
(539,279,o),
(547,290,o),
(549,312,cs),
(550,456,o),
(492,518,o),
(415,515,cs),
(319,518,o),
(252,404,o),
(250,247,cs),
(252,95,o),
(314,-9,o),
(410,-9,cs)
);
},
{
closed = 1;
nodes = (
(321,301,o),
(313,307,o),
(313,317,cs),
(327,427,o),
(361,489,o),
(417,493,cs),
(456,493,o),
(478,437,o),
(477,354,cs),
(477,315,o),
(463,301,o),
(429,300,cs),
(332,300,ls)
);
}
);
width = 573;
}
);
metricRight = e;
unicode = 230;
},
{
glyphname = b;
kernRight = o;
lastChange = "2023-02-01 20:59:06 +0000";
layers = (
{
background = {
shapes = (
{
closed = 1;
nodes = (
(64,-9,cs),
(70,-9,o),
(75,-6,o),
(83,4,cs),
(131,60,l),
(129,725,ls),
(129,734,o),
(125,739,o),
(120,742,cs),
(114,741,o),
(108,735,o),
(93,731,cs),
(80,718,o),
(54,710,o),
(17,702,cs),
(8,697,o),
(6,692,o),
(6,689,cs),
(7,684,o),
(8,678,o),
(18,678,cs),
(39,674,ls),
(54,668,o),
(64,665,o),
(61,639,cs),
(63,162,ls),
(61,81,o),
(60,36,o),
(53,3,cs),
(52,-4,o),
(58,-9,o)
);
},
{
closed = 1;
nodes = (
(318,-9,o),
(405,109,o),
(401,272,cs),
(402,421,o),
(338,514,o),
(243,518,cs),
(208,517,o),
(181,500,o),
(157,476,cs),
(136,457,l),
(124,454,l),
(129,366,l),
(128,434,o),
(166,469,o),
(215,469,cs),
(288,469,o),
(327,399,o),
(330,261,cs),
(330,111,o),
(281,17,o),
(206,14,cs),
(162,14,o),
(131,55,o),
(131,111,c),
(90,26,l),
(106,28,l),
(135,3,o),
(168,-9,o),
(201,-9,cs)
);
}
);
};
layerId = m01;
shapes = (
{
closed = 1;
nodes = (
(318,-9,o),
(405,109,o),
(401,272,cs),
(402,421,o),
(338,514,o),
(243,518,cs),
(208,517,o),
(179,503,o),
(149,470,cs),
(138,459,o),
(129,468,o),
(131,475,cs),
(129,725,ls),
(129,734,o),
(125,739,o),
(120,742,cs),
(114,741,o),
(108,735,o),
(93,731,cs),
(80,718,o),
(54,710,o),
(17,702,cs),
(8,697,o),
(6,692,o),
(6,689,cs),
(7,684,o),
(8,678,o),
(18,678,cs),
(39,674,ls),
(54,668,o),
(64,665,o),
(61,639,cs),
(63,162,ls),
(61,81,o),
(60,36,o),
(53,3,cs),
(52,-4,o),
(55,-9,o),
(62,-9,cs),
(68,-9,o),
(74,-6,o),
(89,11,cs),
(98,23,o),
(110,27,o),
(128,15,cs),
(153,-1,o),
(178,-9,o),
(206,-9,cs)
);
},
{
closed = 1;
nodes = (
(162,14,o),
(131,55,o),
(128,114,cs),
(128,367,ls),
(128,434,o),
(166,469,o),
(215,469,cs),
(288,469,o),
(327,399,o),
(330,261,cs),
(330,111,o),
(281,17,o),
(206,14,cs)
);
}
);
width = 443;
}
);
unicode = 98;
},
{
glyphname = c;
kernLeft = o;
kernRight = c;
lastChange = "2023-02-01 20:18:01 +0000";
layers = (
{
anchors = (
{
name = bottom;
pos = (182,0);
},
{
name = top;
pos = (208,510);
}
);
background = {
shapes = (
{
closed = 1;
nodes = (
(246,-9,o),
(294,25,o),
(317,169,cs),
(319,177,o),
(314,186,o),
(306,185,cs),
(299,188,o),
(299,182,o),
(297,174,cs),
(271,72,o),
(244,44,o),
(198,43,cs),
(135,43,o),
(99,112,o),
(99,256,cs),
(95,406,o),
(140,489,o),
(193,489,cs),
(227,490,o),
(247,461,o),
(268,390,cs),
(274,353,ls),
(279,342,o),
(283,340,o),
(288,337,cs),
(297,341,o),
(299,346,o),
(298,352,cs),
(298,482,ls),
(296,489,o),
(296,494,o),
(288,495,cs),
(268,508,o),
(242,518,o),
(214,517,cs),
(108,517,o),
(25,405,o),
(25,234,cs),
(21,82,o),
(92,-9,o),
(180,-9,cs)
);
}
);
};
layerId = m01;
shapes = (
{
closed = 1;
nodes = (
(246,-9,o),
(294,25,o),
(317,169,cs),
(319,177,o),
(314,186,o),
(306,185,cs),
(299,188,o),
(299,182,o),
(297,174,cs),
(271,72,o),
(244,44,o),
(198,43,cs),
(135,43,o),
(99,112,o),
(99,256,cs),
(99,424,o),
(147,489,o),
(188,489,cs),
(222,488,o),
(247,464,o),
(273,353,cs),
(274,342,o),
(283,338,o),
(289,341,cs),
(296,341,o),
(299,346,o),
(298,352,cs),
(296,478,ls),
(300,489,o),
(293,495,o),
(287,500,cs),
(270,512,o),
(250,517,o),
(214,517,cs),
(108,517,o),
(25,405,o),
(25,234,cs),
(21,82,o),
(92,-9,o),
(180,-9,cs)
);
}
);
width = 339;
}
);
unicode = 99;
},
{
glyphname = d;
kernLeft = o;
kernRight = d;
lastChange = "2023-02-01 20:59:12 +0000";
layers = (
{
anchors = (
{
name = bottom;
pos = (229,0);
},
{
name = center;
pos = (229,255);
},
{
name = top;
pos = (229,740);
},
{
name = topright;
pos = (402,740);
}
);
background = {
shapes = (
{
closed = 1;
nodes = (
(223,-9,o),
(248,7,o),
(282,45,cs),
(296,70,l),
(308,73,l),
(301,171,l),
(302,94,o),
(256,36,o),
(202,36,cs),
(143,39,o),
(106,111,o),
(102,245,cs),
(105,395,o),
(153,492,o),
(230,490,cs),
(275,492,o),
(304,456,o),
(304,396,c),
(342,482,l),
(327,479,l),
(295,507,o),
(267,515,o),
(234,514,cs),
(117,518,o),
(28,401,o),
(32,234,cs),
(31,87,o),
(92,-9,o),
(181,-9,cs)
);
},
{
closed = 1;
nodes = (
(412,-9,o),
(453,34,o),
(450,127,cs),
(451,142,o),
(445,147,o),
(439,145,cs),
(432,145,o),
(426,139,o),
(425,129,cs),
(428,72,o),
(411,52,o),
(390,55,cs),
(380,54,o),
(369,64,o),
(372,97,cs),
(373,725,ls),
(370,733,o),
(365,742,o),
(361,738,cs),
(356,738,o),
(345,735,o),
(335,729,cs),
(317,717,o),
(293,709,o),
(250,702,cs),
(244,698,o),
(243,693,o),
(243,689,cs),
(242,681,o),
(243,678,o),
(251,677,cs),
(276,672,ls),
(295,672,o),
(301,666,o),
(301,641,cs),
(305,71,ls),
(301,20,o),
(333,-9,o),
(370,-9,cs)
);
}
);
};
layerId = m01;
shapes = (
{
closed = 1;
nodes = (
(225,-9,o),
(250,8,o),
(290,56,cs),
(296,69,o),
(305,69,o),
(308,55,cs),
(310,23,o),
(331,-9,o),
(370,-9,cs),
(412,-9,o),
(453,34,o),
(450,127,cs),
(451,142,o),
(445,147,o),
(439,145,cs),
(432,145,o),
(426,139,o),
(425,129,cs),
(428,72,o),
(411,52,o),
(390,55,cs),
(380,54,o),
(369,64,o),
(372,97,cs),
(373,725,ls),
(370,733,o),
(365,742,o),
(361,738,cs),
(356,738,o),
(345,735,o),
(335,729,cs),
(317,717,o),
(293,709,o),
(250,702,cs),
(244,698,o),
(243,693,o),
(243,689,cs),
(242,681,o),
(243,678,o),
(251,677,cs),
(276,672,ls),
(295,672,o),
(301,666,o),
(301,641,cs),
(301,513,ls),
(302,503,o),
(298,498,o),
(288,506,cs),
(267,514,o),
(250,514,o),
(234,514,cs),
(117,518,o),
(28,401,o),
(32,234,cs),
(31,87,o),
(92,-9,o),
(181,-9,cs)
);
},
{
closed = 1;
nodes = (
(143,39,o),
(106,111,o),
(102,245,cs),
(105,395,o),
(153,492,o),
(230,490,cs),
(275,492,o),
(304,456,o),
(305,395,cs),
(304,170,ls),
(302,94,o),
(256,36,o),
(202,36,cs)
);
}
);
width = 457;
}
);
unicode = 100;
},
{
glyphname = eth;
kernLeft = o;
kernRight = o;
lastChange = "2023-02-23 19:55:36 +0000";
layers = (
{
layerId = m01;
shapes = (
{
closed = 1;
nodes = (
(299,-9,o),
(370,102,o),
(367,262,cs),
(365,480,o),
(235,708,o),
(64,748,cs),
(50,754,o),
(41,744,o),
(44,737,cs),
(42,730,o),
(48,729,o),
(56,727,cs),
(172,687,o),
(240,581,o),
(277,441,cs),
(278,430,o),
(275,430,o),
(264,436,cs),
(242,450,o),
(217,454,o),
(193,457,cs),
(99,458,o),
(30,361,o),
(26,230,cs),
(26,100,o),
(104,-9,o),
(198,-9,cs)
);
},
{
closed = 1;
nodes = (
(131,16,o),
(101,85,o),
(101,225,cs),
(101,367,o),
(133,430,o),
(195,432,cs),
(265,432,o),
(304,357,o),
(303,220,cs),
(300,85,o),
(270,17,o),
(201,17,cs)
);
}
);
width = 404;
}
);
unicode = 240;
},
{
glyphname = dcroat;
kernLeft = o;
kernRight = d;
lastChange = "2023-02-23 19:55:32 +0000";
layers = (
{
layerId = m01;
shapes = (
{
ref = d;
},
{
closed = 1;
nodes = (
(429,579,ls),
(432,577,o),
(439,584,o),
(439,589,cs),
(435,594,ls),
(435,601,o),
(434,608,o),
(426,607,cs),
(154,608,ls),
(147,607,o),
(141,604,o),
(143,597,cs),
(141,590,ls),
(141,584,o),
(145,576,o),
(153,576,cs)
);
}
);
width = 457;
}
);
unicode = 273;
},
{
glyphname = e;
kernLeft = o;
kernRight = e;
lastChange = "2023-02-01 20:18:09 +0000";
layers = (
{
anchors = (
{
name = bottom;
pos = (178,0);
},
{
name = ogonek;
pos = (239,0);
},
{
name = top;
pos = (193,510);
}
);
background = {
shapes = (
{
closed = 1;
nodes = (
(258,-9,o),
(308,31,o),
(329,150,cs),
(329,162,o),
(325,173,o),
(318,170,cs),
(311,172,o),
(310,168,o),
(308,159,cs),
(287,72,o),
(258,43,o),
(203,41,cs),
(143,40,o),
(96,114,o),
(94,260,cs),
(97,408,o),
(139,493,o),
(196,492,cs),
(238,489,o),
(263,437,o),
(259,350,cs),
(260,319,o),
(244,300,o),
(212,300,cs),
(67,300,l),
(69,278,l),
(303,278,l),
(323,278,o),
(332,287,o),
(331,309,cs),
(329,456,o),
(274,517,o),
(199,514,cs),
(98,517,o),
(25,405,o),
(25,247,cs),
(22,92,o),
(96,-9,o),
(192,-9,cs)
);
}
);
};
layerId = m01;
shapes = (
{
closed = 1;
nodes = (
(258,-9,o),
(308,31,o),
(329,150,cs),
(329,162,o),
(325,173,o),
(318,170,cs),
(311,172,o),
(310,168,o),
(308,159,cs),
(287,72,o),
(258,43,o),
(203,41,cs),
(143,40,o),
(96,114,o),
(97,255,cs),
(97,269,o),
(100,276,o),
(114,275,cs),
(306,279,ls),
(323,278,o),
(332,287,o),
(331,309,cs),
(329,456,o),
(274,517,o),
(199,514,cs),
(98,517,o),
(25,405,o),
(25,247,cs),
(22,92,o),
(96,-9,o),
(192,-9,cs)
);
},
{
closed = 1;
nodes = (
(101,304,o),
(97,306,o),
(98,316,cs),
(109,426,o),
(143,492,o),
(196,492,cs),
(238,489,o),
(263,437,o),
(259,350,cs),
(260,319,o),
(244,300,o),
(212,300,cs),
(114,300,ls)
);
}
);
width = 355;
}
);
unicode = 101;
},
{
glyphname = f;
kernLeft = f;
lastChange = "2023-02-01 20:59:24 +0000";
layers = (
{
background = {
shapes = (
{
closed = 1;
nodes = (
(251,1,l),
(247,20,l),
(186,25,ls),
(162,28,o),
(155,37,o),
(151,68,cs),
(154,608,ls),
(155,690,o),
(167,719,o),
(195,715,cs),
(245,715,o),
(221,630,o),
(275,630,cs),
(300,633,o),
(311,647,o),
(314,672,cs),
(313,712,o),
(270,747,o),
(219,749,cs),
(134,749,o),
(86,652,o),
(87,548,cs),
(86,69,ls),
(86,37,o),
(76,26,o),
(49,27,cs),
(13,23,l),
(14,-2,l)
);
},
{
closed = 1;
nodes = (
(86,517,o),
(67,504,o),
(30,504,c),
(30,484,l),
(265,483,l),
(265,512,l),
(143,509,l),
(84,542,l)
);
}
);
};
guides = (
{
pos = (259,276);
}
);
layerId = m01;
shapes = (
{
closed = 1;
nodes = (
(87,38,o),
(80,28,o),
(49,27,cs),
(28,24,ls),
(15,24,o),
(12,15,o),
(12,12,cs),
(15,2,o),
(16,2,o),
(30,-2,cs),
(235,-1,ls),
(244,-1,o),
(252,6,o),
(249,10,cs),
(249,19,o),
(248,23,o),
(241,21,cs),
(188,26,ls),
(157,29,o),
(152,41,o),
(151,68,cs),
(154,468,ls),
(155,479,o),
(157,481,o),
(164,481,cs),
(250,480,ls),
(261,481,o),
(265,486,o),
(265,495,cs),
(265,503,o),
(258,511,o),
(250,511,cs),
(167,512,ls),
(157,511,o),
(151,517,o),
(155,524,cs),
(154,608,ls),
(155,690,o),
(167,719,o),
(195,715,cs),
(245,715,o),
(221,630,o),
(275,630,cs),
(300,633,o),
(311,647,o),
(314,672,cs),
(313,712,o),
(270,747,o),
(219,749,cs),
(134,749,o),
(86,652,o),
(87,548,cs),
(86,546,ls),
(86,520,o),
(67,507,o),
(37,502,cs),
(29,500,o),
(27,496,o),
(28,493,cs),
(27,487,o),
(33,483,o),
(36,481,cs),
(60,481,ls),
(75,480,o),
(83,474,o),
(86,457,cs),
(86,69,ls)
);
}
);
width = 288;
}
);
unicode = 102;
},
{
glyphname = g;
kernLeft = g;
kernRight = g;
lastChange = "2023-02-01 20:59:30 +0000";
layers = (
{
anchors = (
{
name = bottom;
pos = (196,-205);
},
{
name = top;
pos = (196,510);
}
);
background = {
shapes = (
{
closed = 1;
nodes = (
(293,-215,o),
(385,-144,o),
(385,-46,cs),
(387,35,o),
(327,89,o),
(227,89,cs),
(145,85,ls),
(113,85,o),
(106,110,o),
(125,130,cs),
(139,150,ls),
(155,168,o),
(175,182,o),
(195,179,cs),
(280,181,o),
(347,253,o),
(346,347,cs),
(347,446,o),
(282,518,o),
(195,517,cs),
(111,515,o),
(49,443,o),
(49,350,cs),
(46,286,o),
(82,225,o),
(134,201,cs),
(145,198,o),
(142,187,o),
(139,181,cs),
(66,122,ls),
(35,93,o),
(42,60,o),
(93,41,cs),
(106,31,o),
(106,17,o),
(93,5,cs),
(23,-56,o),
(14,-76,o),
(14,-111,cs),
(14,-168,o),
(77,-215,o),
(178,-215,cs)
);
},
{
closed = 1;
nodes = (
(116,-193,o),
(74,-154,o),
(74,-95,cs),
(74,-67,o),
(80,-45,o),
(121,-1,cs),
(138,21,o),
(155,27,o),
(196,27,cs),
(221,27,ls),
(283,24,o),
(321,-8,o),
(321,-68,cs),
(321,-141,o),
(262,-193,o),
(190,-193,cs)
);
},
{
closed = 1;
nodes = (
(150,206,o),
(120,262,o),
(116,348,cs),
(117,438,o),
(150,496,o),
(194,496,cs),
(242,492,o),
(273,438,o),
(272,348,cs),
(275,260,o),
(246,206,o),
(195,203,cs)
);
},
{
closed = 1;
nodes = (
(282,485,l),
(278,519,o),
(295,533,o),
(312,535,cs),
(333,535,o),
(334,515,o),
(361,512,cs),
(377,515,o),
(392,527,o),
(395,550,cs),
(392,580,o),
(375,597,o),
(341,599,cs),
(302,600,o),
(255,550,o),
(255,484,c)
);
}
);
};
guides = (
{
pos = (124,26);
},
{
angle = 221.1345;
pos = (146,16);
},
{
angle = -42.8789;
pos = (137,144);
showMeasurement = 1;
},
{
angle = 90;
pos = (208,82);
showMeasurement = 1;
}
);
layerId = m01;
shapes = (
{
closed = 1;
nodes = (
(293,-215,o),
(385,-144,o),
(385,-46,cs),
(387,35,o),
(327,89,o),
(227,89,cs),
(145,85,ls),
(113,85,o),
(106,110,o),
(125,130,cs),
(139,150,ls),
(155,168,o),
(175,182,o),
(195,179,cs),
(280,181,o),
(347,253,o),
(346,347,cs),
(347,400,o),
(328,444,o),
(295,476,cs),
(283,484,o),
(277,497,o),
(281,506,cs),
(286,526,o),
(296,532,o),
(312,535,cs),
(333,535,o),
(334,515,o),
(361,512,cs),
(377,515,o),
(392,527,o),
(395,550,cs),
(392,580,o),
(375,597,o),
(341,599,cs),
(308,599,o),
(273,568,o),
(259,518,cs),
(257,510,o),
(250,503,o),
(244,506,cs),
(227,514,o),
(211,514,o),
(195,517,cs),
(111,515,o),
(49,443,o),
(49,350,cs),
(46,286,o),
(82,225,o),
(134,201,cs),
(145,198,o),
(142,187,o),
(139,181,cs),
(66,122,ls),
(35,93,o),
(42,60,o),
(93,41,cs),
(106,31,o),
(106,17,o),
(93,5,cs),
(23,-56,o),
(14,-76,o),
(14,-111,cs),
(14,-168,o),
(77,-215,o),
(178,-215,cs)
);
},
{
closed = 1;
nodes = (
(116,-193,o),
(74,-154,o),
(74,-95,cs),
(74,-67,o),
(80,-45,o),
(121,-1,cs),
(138,21,o),
(155,27,o),
(196,27,cs),
(221,27,ls),
(283,24,o),
(321,-8,o),
(321,-68,cs),
(321,-141,o),
(262,-193,o),
(190,-193,cs)
);
},
{
closed = 1;
nodes = (
(150,206,o),
(120,262,o),
(116,348,cs),
(117,438,o),
(150,496,o),
(194,496,cs),
(242,492,o),
(273,438,o),
(272,348,cs),
(275,260,o),
(246,206,o),
(195,203,cs)
);
}
);
width = 402;
}
);
unicode = 103;
},
{
glyphname = h;
kernLeft = h;
kernRight = n;
lastChange = "2023-02-01 20:59:43 +0000";
layers = (
{
background = {
shapes = (
{
closed = 1;
nodes = (
(204,-2,ls),
(208,1,o),
(212,6,o),
(211,10,cs),
(213,19,o),
(212,21,o),
(204,21,cs),
(177,24,ls),
(149,27,o),
(143,41,o),
(141,68,cs),
(141,726,ls),
(144,736,o),
(139,742,o),
(132,741,cs),
(126,739,o),
(116,736,o),
(108,732,cs),
(88,720,o),
(64,710,o),
(30,699,cs),
(19,700,o),
(15,695,o),
(19,690,cs),
(18,684,o),
(20,679,o),
(26,675,cs),
(51,672,ls),
(70,672,o),
(72,665,o),
(73,642,cs),
(73,69,ls),
(73,38,o),
(70,30,o),
(39,23,cs),
(28,24,ls),
(20,21,o),
(14,18,o),
(17,12,cs),
(14,7,o),
(18,-1,o),
(26,-1,cs)
);
},
{
closed = 1;
nodes = (
(141,336,l),
(143,409,o),
(193,471,o),
(256,472,cs),
(298,469,o),
(323,444,o),
(326,382,cs),
(323,68,ls),
(323,40,o),
(320,28,o),
(292,26,cs),
(277,24,ls),
(270,23,o),
(263,18,o),
(264,12,cs),
(264,7,o),
(271,1,o),
(278,-1,cs),
(449,-2,ls),
(455,1,o),
(461,5,o),
(457,10,cs),
(457,19,o),
(457,23,o),
(446,22,cs),
(427,24,ls),
(397,29,o),
(391,37,o),
(391,65,cs),
(391,394,ls),
(393,472,o),
(355,514,o),
(289,514,cs),
(250,517,o),
(210,501,o),
(174,462,cs),
(146,442,l),
(136,442,l)
);
}
);
};
guides = (
{
angle = 222.6141;
pos = (160,452);
}
);
layerId = m01;
shapes = (
{
closed = 1;
nodes = (
(204,-2,ls),
(208,1,o),
(212,6,o),
(211,10,cs),
(213,19,o),
(212,21,o),
(204,21,cs),
(177,24,ls),
(149,27,o),
(143,41,o),
(141,68,cs),
(144,336,ls),
(143,409,o),
(193,471,o),
(256,472,cs),
(298,469,o),
(323,444,o),
(326,382,cs),
(323,68,ls),
(323,40,o),
(320,28,o),
(292,26,cs),
(277,24,ls),
(270,23,o),
(263,18,o),
(264,12,cs),
(264,7,o),
(271,1,o),
(278,-1,cs),
(449,-2,ls),
(455,1,o),
(461,5,o),
(457,10,cs),
(457,19,o),
(457,23,o),
(446,22,cs),
(427,24,ls),
(397,29,o),
(391,37,o),
(391,65,cs),
(391,394,ls),
(393,472,o),
(355,514,o),
(289,514,cs),
(250,517,o),
(211,502,o),
(164,453,cs),
(150,443,o),
(143,448,o),
(141,458,cs),
(141,726,ls),
(144,736,o),
(139,742,o),
(132,741,cs),
(126,739,o),
(116,736,o),
(108,732,cs),
(88,720,o),
(64,710,o),
(30,699,cs),
(19,700,o),
(15,695,o),
(19,690,cs),
(18,684,o),
(20,679,o),
(26,675,cs),
(51,672,ls),
(70,672,o),
(72,665,o),
(73,642,cs),
(73,69,ls),
(73,38,o),
(70,30,o),
(39,23,cs),
(28,24,ls),
(20,21,o),
(14,18,o),
(17,12,cs),
(14,7,o),
(18,-1,o),
(26,-1,cs)
);
}
);
width = 470;
}
);
unicode = 104;
},
{
glyphname = hbar;
kernLeft = h;
kernRight = n;
lastChange = "2023-02-23 19:55:55 +0000";
layers = (
{
layerId = m01;
shapes = (
{
ref = h;
},
{
closed = 1;
nodes = (
(294,580,ls),
(297,580,o),
(304,583,o),
(302,587,cs),
(302,597,ls),
(305,600,o),
(300,607,o),
(292,608,cs),
(19,604,ls),
(13,607,o),
(7,604,o),
(9,597,cs),
(6,587,ls),
(6,580,o),
(10,579,o),
(16,577,cs)
);
}
);
width = 470;
}
);
unicode = 295;
},
{
glyphname = i;
kernLeft = i;
kernRight = i;
lastChange = "2023-02-01 20:59:49 +0000";
layers = (
{
anchors = (
{
name = bottom;
pos = (112,0);
}
);
background = {
shapes = (
{
closed = 1;
nodes = (
(212,-2,l),
(212,22,l),
(179,28,ls),
(154,29,o),
(149,37,o),
(146,69,cs),
(149,511,l),
(129,514,l),
(100,493,o),
(69,481,o),
(24,472,c),
(23,450,l),
(56,448,ls),
(75,442,o),
(78,437,o),
(77,415,cs),
(80,65,ls),
(81,40,o),
(74,30,o),
(43,24,cs),
(13,23,l),
(14,-2,l)
);
},
{
closed = 1;
nodes = (
(140,606,o),
(161,628,o),
(162,657,cs),
(164,691,o),
(141,711,o),
(113,709,cs),
(88,711,o),
(66,691,o),
(65,657,cs),
(66,625,o),
(85,604,o),
(113,603,cs)
);
}
);
};
guides = (
{
angle = 270;
pos = (79,240);
},
{
angle = 90;
pos = (147,290);
}
);
layerId = m01;
shapes = (
{
closed = 1;
nodes = (
(199,1,ls),
(208,2,o),
(211,3,o),
(211,10,cs),
(212,15,o),
(209,20,o),
(203,21,cs),
(177,24,ls),
(155,28,o),
(149,37,o),
(146,68,c),
(146,502,ls),
(146,511,o),
(145,511,o),
(140,515,cs),
(132,514,o),
(130,511,o),
(124,506,cs),
(101,480,o),
(78,466,o),
(37,459,cs),
(24,458,o),
(18,458,o),
(21,451,cs),
(18,445,o),
(25,441,o),
(31,441,cs),
(55,437,ls),
(71,431,o),
(81,425,o),
(78,404,cs),
(80,65,ls),
(78,38,o),
(75,29,o),
(39,23,cs),
(30,21,ls),
(20,23,o),
(14,18,o),
(17,12,cs),
(14,6,o),
(18,-1,o),
(32,-1,cs)
);
},
{
closed = 1;
nodes = (
(140,606,o),
(161,628,o),
(162,657,cs),
(164,691,o),
(141,711,o),
(113,709,cs),
(88,711,o),
(66,691,o),
(65,657,cs),
(66,625,o),
(85,604,o),
(113,603,cs)
);
}
);
width = 223;
}
);
unicode = 105;
},
{
glyphname = idotless;
kernLeft = i;
kernRight = i;
lastChange = "2023-02-23 19:56:03 +0000";
layers = (
{
anchors = (
{
name = bottom;
pos = (112,0);
},
{
name = ogonek;
pos = (167,0);
},
{
name = top;
pos = (112,510);
}
);
layerId = m01;
shapes = (
{
closed = 1;
nodes = (
(199,1,ls),
(208,2,o),
(211,3,o),
(211,10,cs),
(212,15,o),
(209,20,o),
(203,21,cs),
(177,24,ls),
(155,28,o),
(149,37,o),
(146,68,c),
(146,502,ls),
(146,511,o),
(145,511,o),
(140,515,cs),
(132,514,o),
(130,511,o),
(124,506,cs),
(101,480,o),
(78,466,o),
(37,459,cs),
(24,458,o),
(18,458,o),
(21,451,cs),
(18,445,o),
(25,441,o),
(31,441,cs),
(55,437,ls),
(71,431,o),
(81,425,o),
(78,404,cs),
(80,65,ls),
(78,38,o),
(75,29,o),
(39,23,cs),
(30,21,ls),
(20,23,o),
(14,18,o),
(17,12,cs),
(14,6,o),
(18,-1,o),
(32,-1,cs)
);
}
);
width = 223;
}
);
unicode = 305;
},
{
glyphname = j;
kernLeft = j;
kernRight = j;
lastChange = "2023-02-01 20:59:53 +0000";
layers = (
{
layerId = m01;
shapes = (
{
closed = 1;
nodes = (
(91,-215,o),
(147,-116,o),
(148,45,cs),
(146,502,ls),
(146,511,o),
(145,511,o),
(140,515,cs),
(132,514,o),
(130,511,o),
(124,506,cs),
(101,480,o),
(78,466,o),
(37,459,cs),
(24,458,o),
(18,458,o),
(21,451,cs),
(18,445,o),
(25,441,o),
(31,441,cs),
(55,437,ls),
(71,431,o),
(81,425,o),
(78,404,cs),
(79,-91,ls),
(79,-144,o),
(65,-175,o),
(40,-175,cs),
(4,-175,o),
(18,-119,o),
(-24,-119,cs),
(-48,-119,o),
(-63,-138,o),
(-63,-161,cs),
(-63,-193,o),
(-35,-215,o),
(4,-215,cs)
);
},
{
closed = 1;
nodes = (
(140,606,o),
(161,628,o),
(162,657,cs),
(162,690,o),
(144,709,o),
(113,709,cs),
(87,708,o),
(66,686,o),
(65,657,cs),
(62,627,o),
(84,607,o),
(113,603,cs)
);
}
);
width = 215;
}
);
unicode = 106;
},
{
glyphname = jdotless;
kernLeft = j;
kernRight = j;
lastChange = "2023-02-23 19:56:16 +0000";
layers = (
{
layerId = m01;
shapes = (
{
closed = 1;
nodes = (
(91,-215,o),
(147,-116,o),
(148,45,cs),
(146,502,ls),
(146,511,o),
(145,511,o),
(140,515,cs),
(132,514,o),
(130,511,o),
(124,506,cs),
(101,480,o),
(78,466,o),
(37,459,cs),
(24,458,o),
(18,458,o),
(21,451,cs),
(18,445,o),
(25,441,o),
(31,441,cs),
(55,437,ls),
(71,431,o),
(81,425,o),
(78,404,cs),
(79,-91,ls),
(79,-144,o),
(65,-175,o),
(40,-175,cs),
(4,-175,o),
(18,-119,o),
(-24,-119,cs),
(-48,-119,o),
(-63,-138,o),
(-63,-161,cs),
(-63,-193,o),
(-35,-215,o),
(4,-215,cs)
);
}
);
width = 215;
}
);
unicode = 567;
},
{
glyphname = k;
kernLeft = h;
kernRight = k;
lastChange = "2023-02-01 20:19:58 +0000";
layers = (
{
anchors = (
{
name = bottom;
pos = (226,0);
},
{
name = top;
pos = (226,740);
}
);
background = {
shapes = (
{
closed = 1;
nodes = (
(204,-2,ls),
(208,1,o),
(212,6,o),
(211,10,cs),
(213,19,o),
(212,21,o),
(204,21,cs),
(177,24,ls),
(149,27,o),
(143,41,o),
(141,68,cs),
(141,726,ls),
(144,736,o),
(139,742,o),
(132,741,cs),
(126,739,o),
(116,736,o),
(108,732,cs),
(88,720,o),
(64,710,o),
(30,699,cs),
(19,700,o),
(15,695,o),
(19,690,cs),
(18,684,o),
(20,679,o),
(26,675,cs),
(51,672,ls),
(70,672,o),
(72,665,o),
(73,642,cs),
(73,69,ls),
(73,38,o),
(70,30,o),
(39,23,cs),
(28,24,ls),
(20,21,o),
(14,18,o),
(17,12,cs),
(14,7,o),
(18,-1,o),
(26,-1,cs)
);
},
{
closed = 1;
nodes = (
(317,419,ls),
(359,463,o),
(387,482,o),
(422,487,cs),
(431,489,ls),
(440,487,o),
(440,494,o),
(443,501,cs),
(440,504,o),
(435,511,o),
(427,511,cs),
(257,508,ls),
(246,512,o),
(244,504,o),
(241,498,cs),
(240,494,o),
(244,488,o),
(254,488,cs),
(280,485,ls),
(303,477,o),
(314,454,o),
(285,427,cs),
(146,277,l),
(133,278,l),
(134,227,l)
);
},
{
closed = 1;
nodes = (
(181,293,l),
(180,278,l),
(187,282,l),
(297,75,ls),
(311,44,o),
(303,30,o),
(280,24,cs),
(263,24,ls),
(255,20,o),
(247,16,o),
(250,10,cs),
(248,6,o),
(253,-1,o),
(265,-1,cs),
(438,1,ls),
(448,-2,o),
(453,3,o),
(453,12,cs),
(450,17,o),
(449,23,o),
(438,24,cs),
(428,23,ls),
(405,31,o),
(388,38,o),
(374,65,cs),
(228,344,l)
);
}
);
};
layerId = m01;
shapes = (
{
closed = 1;
nodes = (
(204,-2,ls),
(208,1,o),
(212,6,o),
(211,10,cs),
(213,19,o),
(212,21,o),
(204,21,cs),
(177,24,ls),
(149,27,o),
(143,41,o),
(141,68,cs),
(143,212,ls),
(144,227,o),
(144,239,o),
(158,251,cs),
(169,261,ls),
(181,275,o),
(195,273,o),
(201,261,cs),
(297,75,ls),
(311,44,o),
(303,30,o),
(280,24,cs),
(263,24,ls),
(255,20,o),
(247,16,o),
(250,10,cs),
(248,6,o),
(253,-1,o),
(265,-1,cs),
(438,1,ls),
(448,-2,o),
(453,3,o),
(453,12,cs),
(450,17,o),
(449,23,o),
(438,24,cs),
(428,23,ls),
(405,31,o),
(388,38,o),
(374,65,cs),
(245,307,ls),
(238,321,o),
(243,337,o),
(256,352,cs),
(317,419,ls),
(359,463,o),
(387,482,o),
(422,487,cs),
(431,489,ls),
(440,487,o),
(440,494,o),
(443,501,cs),
(440,504,o),
(435,511,o),
(427,511,cs),
(257,508,ls),
(246,512,o),
(244,504,o),
(241,498,cs),
(240,494,o),
(244,488,o),
(254,488,cs),
(280,485,ls),
(303,477,o),
(314,454,o),
(285,427,cs),
(165,300,ls),
(158,285,o),
(143,292,o),
(140,303,cs),
(141,726,ls),
(144,736,o),
(139,742,o),
(132,741,cs),
(126,739,o),
(116,736,o),
(108,732,cs),
(88,720,o),
(64,710,o),
(30,699,cs),
(19,700,o),
(15,695,o),
(19,690,cs),
(18,684,o),
(20,679,o),
(26,675,cs),
(51,672,ls),
(70,672,o),
(72,665,o),
(73,642,cs),
(73,69,ls),
(73,38,o),
(70,30,o),
(39,23,cs),
(28,24,ls),
(20,21,o),
(14,18,o),
(17,12,cs),
(14,7,o),
(18,-1,o),
(26,-1,cs)
);
}
);
width = 451;
}
);
unicode = 107;
},
{
glyphname = l;
kernLeft = h;
kernRight = l;
lastChange = "2023-02-01 20:39:59 +0000";
layers = (
{
anchors = (
{
name = bottom;
pos = (110,0);
},
{
name = center;
pos = (110,370);
},
{
name = top;
pos = (85,710);
},
{
name = topright;
pos = (173,740);
}
);
background = {
shapes = (
{
closed = 1;
nodes = (
(207,-2,l),
(204,23,l),
(177,24,ls),
(146,29,o),
(143,41,o),
(141,68,cs),
(144,742,l),
(121,741,l),
(99,723,o),
(66,709,o),
(16,697,c),
(19,679,l),
(51,672,ls),
(70,672,o),
(72,665,o),
(73,642,cs),
(73,69,ls),
(73,38,o),
(70,30,o),
(39,23,cs),
(9,23,l),
(11,-1,l)
);
}
);
};
layerId = m01;
shapes = (
{
closed = 1;
nodes = (
(200,2,ls),
(204,-1,o),
(209,6,o),
(211,10,cs),
(209,17,o),
(204,24,o),
(197,22,cs),
(177,24,ls),
(146,31,o),
(143,41,o),
(141,68,cs),
(141,726,ls),
(144,736,o),
(139,742,o),
(132,741,cs),
(126,739,o),
(116,736,o),
(108,732,cs),
(88,720,o),
(62,707,o),
(24,701,cs),
(21,701,o),
(16,695,o),
(16,687,cs),
(14,683,o),
(20,675,o),
(24,674,cs),
(51,672,ls),
(67,670,o),
(72,665,o),
(73,642,cs),
(73,69,ls),
(73,38,o),
(60,27,o),
(31,23,cs),
(21,22,ls),
(10,20,o),
(9,16,o),
(6,9,cs),
(7,7,o),
(12,-1,o),
(18,2,cs)
);
}
);
width = 220;
}
);
unicode = 108;
},
{
glyphname = lslash;
kernLeft = h;
kernRight = l;
lastChange = "2023-02-23 20:01:07 +0000";
layers = (
{
layerId = m01;
shapes = (
{
pos = (26,0);
ref = l;
},
{
closed = 1;
nodes = (
(136,384,l),
(14,306,ls),
(11,306,o),
(8,297,o),
(13,292,cs),
(15,287,ls),
(21,283,o),
(27,279,o),
(32,284,cs),
(139,349,l)
);
},
{
closed = 1;
nodes = (
(138,354,l),
(265,433,ls),
(271,436,o),
(272,443,o),
(269,445,cs),
(264,454,ls),
(260,459,o),
(256,461,o),
(248,455,cs),
(135,387,l)
);
}
);
width = 279;
}
);
unicode = 322;
},
{
glyphname = m;
kernLeft = n;
kernRight = n;
lastChange = "2023-02-01 19:49:06 +0000";
layers = (
{
background = {
shapes = (
{
closed = 1;
nodes = (
(141,336,l),
(143,409,o),
(193,471,o),
(253,469,cs),
(289,471,o),
(318,444,o),
(318,379,cs),
(315,66,ls),
(318,40,o),
(309,31,o),
(280,24,cs),
(267,25,ls),
(263,20,o),
(256,19,o),
(259,10,cs),
(259,4,o),
(262,2,o),
(273,-1,cs),
(439,-1,ls),
(450,-1,o),
(451,5,o),
(454,10,cs),
(451,17,o),
(448,24,o),
(440,24,cs),
(421,28,ls),
(388,32,o),
(385,40,o),
(382,66,cs),
(385,394,ls),
(386,471,o),
(347,518,o),
(288,515,cs),
(250,517,o),
(210,501,o),
(169,458,cs),
(143,437,l),
(134,438,l)
);
},
{
closed = 1;
nodes = (
(198,2,ls),
(208,1,o),
(212,6,o),
(212,13,cs),
(213,19,o),
(212,21,o),
(204,21,cs),
(177,24,ls),
(149,27,o),
(143,41,o),
(141,68,cs),
(141,427,l),
(136,426,l),
(139,502,ls),
(135,511,o),
(135,512,o),
(129,512,cs),
(125,511,o),
(121,512,o),
(115,505,cs),
(91,484,o),
(74,466,o),
(32,459,cs),
(22,457,o),
(16,458,o),
(13,452,cs),
(16,445,o),
(19,438,o),
(30,440,cs),
(51,435,ls),
(66,435,o),
(72,428,o),
(72,402,cs),
(73,69,ls),
(73,38,o),
(69,30,o),
(39,23,cs),
(30,21,ls),
(20,23,o),
(14,18,o),
(17,12,cs),
(14,6,o),
(18,-1,o),
(32,-1,cs)
);
},
{
closed = 1;
nodes = (
(383,334,l),
(382,410,o),
(432,471,o),
(495,472,cs),
(531,468,o),
(556,444,o),
(559,383,cs),
(557,66,ls),
(556,37,o),
(553,30,o),
(523,27,cs),
(508,25,ls),
(501,20,o),
(498,19,o),
(498,13,cs),
(498,7,o),
(502,-2,o),
(511,-1,cs),
(679,1,ls),
(689,-1,o),
(692,3,o),
(692,10,cs),
(691,17,o),
(688,21,o),
(684,21,cs),
(661,25,ls),
(633,31,o),
(627,40,o),
(628,69,cs),
(628,394,ls),
(627,471,o),
(588,517,o),
(529,518,cs),
(491,517,o),
(452,498,o),
(411,461,cs),
(383,435,l),
(373,434,l)
);
}
);
};
layerId = m01;
shapes = (
{
closed = 1;
nodes = (
(198,2,ls),
(208,1,o),
(212,6,o),
(212,13,cs),
(213,19,o),
(212,21,o),
(204,21,cs),
(177,24,ls),
(149,27,o),
(143,41,o),
(141,68,cs),
(144,336,ls),
(143,409,o),
(193,471,o),
(253,469,cs),
(289,471,o),
(318,444,o),
(318,379,cs),
(315,66,ls),
(318,40,o),
(309,31,o),
(280,24,cs),
(267,25,ls),
(263,20,o),
(256,19,o),
(259,10,cs),
(259,4,o),
(262,2,o),
(273,-1,cs),
(439,-1,ls),
(450,-1,o),
(451,5,o),
(454,10,cs),
(451,17,o),
(448,24,o),
(440,24,cs),
(421,28,ls),
(388,32,o),
(385,40,o),
(382,66,cs),
(383,334,ls),
(382,410,o),
(432,471,o),
(495,472,cs),
(531,468,o),
(556,444,o),
(559,383,cs),
(557,66,ls),
(556,37,o),
(553,30,o),
(523,27,cs),
(508,25,ls),
(501,20,o),
(498,19,o),
(498,13,cs),
(498,7,o),
(502,-2,o),
(511,-1,cs),
(679,1,ls),
(689,-1,o),
(692,3,o),
(692,10,cs),
(691,17,o),
(688,21,o),
(684,21,cs),
(661,25,ls),
(633,31,o),
(627,40,o),
(628,69,cs),
(628,394,ls),
(627,471,o),
(588,517,o),
(529,518,cs),
(491,517,o),
(451,503,o),
(401,451,cs),
(387,441,o),
(377,441,o),
(375,453,cs),
(358,496,o),
(329,518,o),
(288,515,cs),
(250,517,o),
(213,503,o),
(157,450,cs),
(147,437,o),
(136,445,o),
(139,455,cs),
(139,502,ls),
(135,511,o),
(135,512,o),
(129,512,cs),
(125,511,o),
(121,512,o),
(115,505,cs),
(91,484,o),
(74,466,o),
(32,459,cs),
(22,457,o),
(16,458,o),
(13,452,cs),
(16,445,o),
(19,438,o),
(30,440,cs),
(51,435,ls),
(66,435,o),
(72,428,o),
(72,402,cs),
(73,69,ls),
(73,38,o),
(69,30,o),
(39,23,cs),
(30,21,ls),
(20,23,o),
(14,18,o),
(17,12,cs),
(14,6,o),
(18,-1,o),
(32,-1,cs)
);
}
);
width = 704;
}
);
metricRight = n;
unicode = 109;
},
{
glyphname = n;
kernLeft = n;
kernRight = n;
lastChange = "2023-08-31 18:09:38 +0000";
layers = (
{
anchors = (
{
name = bottom;
pos = (235,0);
},
{
name = top;
pos = (235,510);
}
);
background = {
shapes = (
{
closed = 1;
nodes = (
(141,336,l),
(143,409,o),
(193,471,o),
(256,472,cs),
(298,469,o),
(323,444,o),
(326,382,cs),
(323,68,ls),
(323,40,o),
(320,28,o),
(292,26,cs),
(277,24,ls),
(270,23,o),
(263,18,o),
(264,12,cs),
(264,7,o),
(271,1,o),
(278,-1,cs),
(449,-2,ls),
(455,1,o),
(461,5,o),
(457,10,cs),
(457,19,o),
(457,23,o),
(446,22,cs),
(427,24,ls),
(397,29,o),
(391,37,o),
(391,65,cs),
(391,394,ls),
(393,472,o),
(355,514,o),
(292,517,cs),
(250,517,o),
(210,501,o),
(169,458,cs),
(143,437,l),
(134,438,l)
);
},
{
closed = 1;
nodes = (
(198,2,ls),
(208,1,o),
(212,6,o),
(212,13,cs),
(213,19,o),
(212,21,o),
(204,21,cs),
(177,24,ls),
(149,27,o),
(143,41,o),
(141,68,cs),
(141,427,l),
(136,426,l),
(139,502,ls),
(135,511,o),
(135,512,o),
(129,512,cs),
(125,511,o),
(121,512,o),
(115,505,cs),
(91,484,o),
(74,466,o),
(32,459,cs),
(22,457,o),
(16,458,o),
(13,452,cs),
(16,445,o),
(19,438,o),
(30,440,cs),
(51,435,ls),
(66,435,o),
(72,428,o),
(72,402,cs),
(73,69,ls),
(73,38,o),
(69,30,o),
(39,23,cs),
(30,21,ls),
(20,23,o),
(14,18,o),
(17,12,cs),
(14,6,o),
(18,-1,o),
(32,-1,cs)
);
}
);
};
layerId = m01;
shapes = (
{
closed = 1;
nodes = (
(198,2,ls),
(208,1,o),
(212,6,o),
(212,13,cs),
(213,19,o),
(212,21,o),
(204,21,cs),
(177,24,ls),
(149,27,o),
(143,41,o),
(141,68,cs),
(144,336,ls),
(143,409,o),
(193,471,o),
(256,472,cs),
(298,469,o),
(323,444,o),
(326,382,cs),
(323,68,ls),
(323,40,o),
(320,28,o),
(292,26,cs),
(277,24,ls),
(270,23,o),
(263,18,o),
(264,12,cs),
(264,7,o),
(271,1,o),
(278,-1,cs),
(449,-2,ls),
(455,1,o),
(461,5,o),
(457,10,cs),
(457,19,o),
(457,23,o),
(446,22,cs),
(427,24,ls),
(397,29,o),
(391,37,o),
(391,65,cs),
(391,394,ls),
(393,472,o),
(355,514,o),
(292,517,cs),
(250,517,o),
(213,503,o),
(157,450,cs),
(145,438,o),
(136,442,o),
(139,455,cs),
(139,502,ls),
(135,511,o),
(135,512,o),
(129,512,cs),
(125,511,o),
(121,512,o),
(115,505,cs),
(91,484,o),
(74,466,o),
(32,459,cs),
(22,457,o),
(16,458,o),
(13,452,cs),
(16,445,o),
(19,438,o),
(30,440,cs),
(51,435,ls),
(66,435,o),
(72,428,o),
(72,402,cs),
(73,69,ls),
(73,38,o),
(69,30,o),
(39,23,cs),
(30,21,ls),
(20,23,o),
(14,18,o),
(17,12,cs),
(14,6,o),
(18,-1,o),
(32,-1,cs)
);
}
);
width = 470;
}
);
unicode = 110;
},
{
glyphname = eng;
kernLeft = n;
kernRight = j;
lastChange = "2023-02-23 20:01:41 +0000";
layers = (
{
layerId = m01;
shapes = (
{
closed = 1;
nodes = (
(336,-215,o),
(392,-116,o),
(394,42,cs),
(391,394,ls),
(393,472,o),
(355,514,o),
(292,517,cs),
(250,517,o),
(213,503,o),
(157,450,cs),
(145,438,o),
(136,442,o),
(139,455,cs),
(139,502,ls),
(135,511,o),
(135,512,o),
(129,512,cs),
(125,511,o),
(121,512,o),
(115,505,cs),
(91,484,o),
(74,466,o),
(32,459,cs),
(22,457,o),
(16,458,o),
(13,452,cs),
(16,445,o),
(19,438,o),
(30,440,cs),
(51,435,ls),
(66,435,o),
(72,428,o),
(72,402,cs),
(73,69,ls),
(73,38,o),
(69,30,o),
(39,23,cs),
(30,21,ls),
(20,23,o),
(14,18,o),
(17,12,cs),
(14,6,o),
(18,-1,o),
(32,-1,cs),
(198,2,ls),
(208,1,o),
(212,6,o),
(212,13,cs),
(213,19,o),
(212,21,o),
(204,21,cs),
(177,24,ls),
(149,27,o),
(143,41,o),
(141,68,cs),
(144,336,ls),
(143,409,o),
(193,471,o),
(256,472,cs),
(298,469,o),
(323,444,o),
(326,382,cs),
(324,-91,ls),
(324,-144,o),
(310,-175,o),
(285,-175,cs),
(249,-175,o),
(263,-119,o),
(221,-119,cs),
(197,-119,o),
(182,-138,o),
(182,-161,cs),
(182,-193,o),
(210,-215,o),
(249,-215,cs)
);
}
);
width = 460;
}
);
unicode = 331;
},
{
glyphname = o;
kernLeft = o;
kernRight = o;
lastChange = "2023-08-31 20:21:46 +0000";
layers = (
{
anchors = (
{
name = bottom;
pos = (204,0);
},
{
name = center;
pos = (204,255);
},
{
name = ogonek;
pos = (367,10);
},
{
name = top;
pos = (204,510);
},
{
name = topright;
pos = (388,510);
}
);
background = {
shapes = (
{
closed = 1;
nodes = (
(313,-9,o),
(394,103,o),
(394,255,cs),
(397,405,o),
(311,517,o),
(201,518,cs),
(91,515,o),
(10,405,o),
(7,252,cs),
(9,102,o),
(91,-9,o),
(202,-9,cs)
);
},
{
closed = 1;
nodes = (
(128,15,o),
(83,104,o),
(83,255,cs),
(84,401,o),
(128,493,o),
(204,489,cs),
(279,492,o),
(323,402,o),
(324,255,cs),
(321,107,o),
(280,14,o),
(203,20,cs)
);
}
);
};
layerId = m01;
shapes = (
{
closed = 1;
nodes = (
(305,-9,o),
(385,106,o),
(381,253,cs),
(381,399,o),
(306,518,o),
(202,514,cs),
(103,518,o),
(25,400,o),
(24,252,cs),
(22,104,o),
(101,-9,o),
(203,-9,cs)
);
},
{
closed = 1;
nodes = (
(131,17,o),
(97,96,o),
(98,255,cs),
(101,410,o),
(132,493,o),
(205,493,cs),
(275,492,o),
(306,412,o),
(305,253,cs),
(308,93,o),
(276,18,o),
(201,18,cs)
);
}
);
width = 408;
}
);
unicode = 111;
},
{
glyphname = oslash;
kernLeft = o;
kernRight = o;
lastChange = "2023-02-23 20:01:47 +0000";
layers = (
{
layerId = m01;
shapes = (
{
ref = o;
},
{
closed = 1;
nodes = (
(79,-50,ls),
(84,-50,o),
(88,-48,o),
(90,-42,cs),
(343,546,ls),
(347,553,o),
(340,562,o),
(332,558,cs),
(328,559,ls),
(324,559,o),
(317,557,o),
(318,554,cs),
(64,-38,ls),
(61,-45,o),
(65,-50,o),
(72,-50,cs)
);
}
);
width = 408;
}
);
unicode = 248;
},
{
glyphname = oe;
kernLeft = o;
kernRight = e;
lastChange = "2023-02-23 20:01:51 +0000";
layers = (
{
layerId = m01;
shapes = (
{
closed = 1;
nodes = (
(305,-9,o),
(372,107,o),
(374,255,cs),
(372,399,o),
(306,518,o),
(202,514,cs),
(103,518,o),
(25,400,o),
(24,252,cs),
(22,104,o),
(101,-9,o),
(203,-9,cs)
);
},
{
closed = 1;
nodes = (
(131,17,o),
(97,96,o),
(98,255,cs),
(101,410,o),
(132,493,o),
(205,493,cs),
(275,492,o),
(306,412,o),
(305,253,cs),
(308,93,o),
(276,18,o),
(201,18,cs)
);
},
{
closed = 1;
nodes = (
(542,-9,o),
(591,34,o),
(614,153,cs),
(613,165,o),
(610,170,o),
(601,172,cs),
(598,172,o),
(594,165,o),
(592,161,cs),
(569,75,o),
(541,44,o),
(491,40,cs),
(423,43,o),
(377,115,o),
(377,255,cs),
(380,271,o),
(387,275,o),
(397,276,cs),
(587,276,ls),
(607,278,o),
(613,288,o),
(615,311,cs),
(615,457,o),
(558,518,o),
(481,514,cs),
(382,515,o),
(305,408,o),
(308,248,cs),
(308,95,o),
(380,-9,o),
(476,-9,cs)
);
},
{
closed = 1;
nodes = (
(385,303,o),
(378,309,o),
(379,316,cs),
(389,429,o),
(431,493,o),
(480,489,cs),
(522,489,o),
(546,441,o),
(547,350,cs),
(544,316,o),
(529,304,o),
(499,303,cs),
(395,301,ls)
);
}
);
width = 639;
}
);
metricRight = e;
unicode = 339;
},
{
glyphname = p;
kernLeft = n;
kernRight = o;
lastChange = "2023-08-31 17:39:19 +0000";
layers = (
{
background = {
shapes = (
{
closed = 1;
nodes = (
(208,-205,ls),
(218,-205,o),
(223,-201,o),
(223,-193,cs),
(223,-187,o),
(219,-183,o),
(212,-182,cs),
(175,-177,ls),
(147,-173,o),
(141,-166,o),
(141,-138,cs),
(143,440,l),
(137,441,l),
(134,499,ls),
(137,508,o),
(132,514,o),
(128,511,cs),
(123,511,o),
(116,508,o),
(114,506,cs),
(89,481,o),
(70,466,o),
(31,459,cs),
(21,461,o),
(13,455,o),
(16,452,cs),
(12,443,o),
(18,442,o),
(28,438,cs),
(47,434,ls),
(65,434,o),
(75,425,o),
(71,402,cs),
(73,-138,ls),
(73,-166,o),
(67,-176,o),
(39,-180,cs),
(25,-182,ls),
(16,-183,o),
(12,-188,o),
(12,-194,cs),
(12,-201,o),
(17,-205,o),
(27,-205,cs)
);
},
{
closed = 1;
nodes = (
(329,-9,o),
(413,105,o),
(413,276,cs),
(416,418,o),
(346,518,o),
(254,515,cs),
(221,517,o),
(194,501,o),
(165,475,cs),
(139,451,l),
(133,452,l),
(142,364,l),
(139,433,o),
(178,469,o),
(223,469,cs),
(300,469,o),
(338,398,o),
(338,261,cs),
(338,109,o),
(292,17,o),
(216,14,cs),
(169,18,o),
(143,52,o),
(140,115,c),
(105,29,l),
(119,26,l),
(146,1,o),
(179,-9,o),
(212,-9,cs)
);
}
);
};
layerId = m01;
shapes = (
{
closed = 1;
nodes = (
(208,-205,ls),
(218,-205,o),
(223,-201,o),
(223,-193,cs),
(223,-187,o),
(219,-183,o),
(212,-182,cs),
(175,-177,ls),
(147,-173,o),
(141,-166,o),
(141,-138,cs),
(141,-9,ls),
(139,4,o),
(149,9,o),
(158,0,cs),
(176,-6,o),
(193,-9,o),
(212,-9,cs),
(329,-9,o),
(413,105,o),
(413,276,cs),
(416,418,o),
(346,518,o),
(254,515,cs),
(221,517,o),
(194,501,o),
(165,475,cs),
(154,465,ls),
(147,457,o),
(134,459,o),
(137,471,cs),
(134,499,ls),
(137,508,o),
(132,514,o),
(128,511,cs),
(123,511,o),
(116,508,o),
(114,506,cs),
(89,481,o),
(70,466,o),
(31,459,cs),
(21,461,o),
(13,455,o),
(16,452,cs),
(12,443,o),
(18,442,o),
(28,438,cs),
(47,434,ls),
(65,434,o),
(75,425,o),
(71,402,cs),
(73,-138,ls),
(73,-166,o),
(67,-176,o),
(39,-180,cs),
(25,-182,ls),
(16,-183,o),
(12,-188,o),
(12,-194,cs),
(12,-201,o),
(17,-205,o),
(27,-205,cs)
);
},
{
closed = 1;
nodes = (
(169,18,o),
(143,52,o),
(142,114,cs),
(139,363,ls),
(139,433,o),
(178,469,o),
(223,469,cs),
(300,469,o),
(338,398,o),
(338,261,cs),
(338,109,o),
(292,17,o),
(216,14,cs)
);
}
);
width = 444;
}
);
unicode = 112;
},
{
glyphname = thorn;
kernLeft = h;
kernRight = o;
lastChange = "2023-02-23 20:02:04 +0000";
layers = (
{
layerId = m01;
shapes = (
{
closed = 1;
nodes = (
(208,-205,ls),
(218,-205,o),
(223,-201,o),
(223,-193,cs),
(223,-187,o),
(219,-183,o),
(212,-182,cs),
(175,-177,ls),
(147,-173,o),
(141,-166,o),
(141,-138,cs),
(141,-9,ls),
(139,4,o),
(149,9,o),
(158,0,cs),
(176,-6,o),
(193,-9,o),
(212,-9,cs),
(329,-9,o),
(413,105,o),
(413,276,cs),
(416,418,o),
(346,518,o),
(254,515,cs),
(221,517,o),
(194,501,o),
(165,475,cs),
(154,465,ls),
(147,457,o),
(134,459,o),
(137,471,cs),
(134,725,ls),
(138,734,o),
(131,739,o),
(123,739,cs),
(120,739,o),
(114,735,o),
(100,728,cs),
(83,721,o),
(61,706,o),
(20,699,cs),
(17,700,o),
(12,692,o),
(10,690,cs),
(13,683,o),
(13,675,o),
(23,675,cs),
(41,674,ls),
(60,671,o),
(75,663,o),
(74,639,cs),
(73,-138,ls),
(73,-166,o),
(67,-176,o),
(39,-180,cs),
(25,-182,ls),
(16,-183,o),
(12,-188,o),
(12,-194,cs),
(12,-201,o),
(17,-205,o),
(27,-205,cs)
);
},
{
closed = 1;
nodes = (
(169,18,o),
(143,52,o),
(142,114,cs),
(139,363,ls),
(139,433,o),
(178,469,o),
(223,469,cs),
(300,469,o),
(338,398,o),
(338,261,cs),
(338,109,o),
(292,17,o),
(216,14,cs)
);
}
);
width = 444;
}
);
unicode = 254;
},
{
glyphname = q;
kernLeft = o;
lastChange = "2023-02-01 20:20:31 +0000";
layers = (
{
background = {
shapes = (
{
closed = 1;
nodes = (
(223,-9,o),
(248,7,o),
(282,45,cs),
(296,70,l),
(308,73,l),
(301,171,l),
(302,94,o),
(256,36,o),
(202,36,cs),
(143,39,o),
(106,111,o),
(102,245,cs),
(105,395,o),
(153,492,o),
(230,490,cs),
(275,492,o),
(304,456,o),
(304,396,c),
(342,482,l),
(327,479,l),
(295,507,o),
(267,515,o),
(234,514,cs),
(117,518,o),
(28,401,o),
(32,234,cs),
(31,87,o),
(92,-9,o),
(181,-9,cs)
);
},
{
closed = 1;
nodes = (
(417,-205,ls),
(427,-205,o),
(432,-201,o),
(432,-194,cs),
(432,-188,o),
(428,-183,o),
(419,-182,cs),
(405,-180,ls),
(377,-176,o),
(371,-166,o),
(371,-138,cs),
(372,349,ls),
(369,425,o),
(372,470,o),
(377,503,cs),
(383,513,o),
(373,514,o),
(367,518,cs),
(361,517,o),
(359,515,o),
(353,506,cs),
(302,445,l),
(303,-138,ls),
(303,-166,o),
(297,-173,o),
(269,-177,cs),
(232,-182,ls),
(225,-183,o),
(221,-187,o),
(221,-193,cs),
(221,-201,o),
(226,-205,o),
(236,-205,cs)
);
}
);
};
layerId = m01;
shapes = (
{
closed = 1;
nodes = (
(417,-205,ls),
(427,-205,o),
(432,-201,o),
(432,-194,cs),
(432,-188,o),
(428,-183,o),
(419,-182,cs),
(405,-180,ls),
(377,-176,o),
(371,-166,o),
(371,-138,cs),
(372,349,ls),
(369,425,o),
(372,470,o),
(377,503,cs),
(383,513,o),
(379,515,o),
(373,514,cs),
(364,514,o),
(360,511,o),
(348,500,cs),
(336,481,o),
(324,481,o),
(307,492,cs),
(281,507,o),
(260,518,o),
(234,514,cs),
(117,518,o),
(28,401,o),
(32,234,cs),
(31,87,o),
(92,-9,o),
(181,-9,cs),
(223,-9,o),
(248,7,o),
(284,48,cs),
(290,63,o),
(305,58,o),
(304,44,cs),
(303,-138,ls),
(303,-166,o),
(297,-173,o),
(269,-177,cs),
(232,-182,ls),
(225,-183,o),
(221,-187,o),
(221,-193,cs),
(221,-201,o),
(226,-205,o),
(236,-205,cs)
);
},
{
closed = 1;
nodes = (
(143,39,o),
(106,111,o),
(102,245,cs),
(105,395,o),
(153,492,o),
(230,490,cs),
(275,492,o),
(304,456,o),
(305,395,cs),
(304,170,ls),
(302,94,o),
(256,36,o),
(202,36,cs)
);
}
);
width = 442;
}
);
unicode = 113;
},
{
glyphname = r;
kernLeft = n;
kernRight = r;
lastChange = "2023-02-01 19:37:15 +0000";
layers = (
{
anchors = (
{
name = bottom;
pos = (109,0);
},
{
name = top;
pos = (159,510);
}
);
background = {
shapes = (
{
closed = 1;
nodes = (
(198,2,ls),
(208,1,o),
(212,6,o),
(212,13,cs),
(213,19,o),
(212,21,o),
(204,21,cs),
(177,24,ls),
(149,27,o),
(143,41,o),
(141,68,cs),
(143,413,l),
(139,413,l),
(139,502,ls),
(135,511,o),
(135,512,o),
(129,512,cs),
(125,511,o),
(121,512,o),
(115,505,cs),
(91,484,o),
(74,466,o),
(32,459,cs),
(22,457,o),
(16,458,o),
(13,452,cs),
(16,445,o),
(19,438,o),
(30,440,cs),
(51,435,ls),
(66,435,o),
(72,428,o),
(72,402,cs),
(73,69,ls),
(73,38,o),
(69,30,o),
(39,23,cs),
(30,21,ls),
(20,23,o),
(14,18,o),
(17,12,cs),
(14,6,o),
(18,-1,o),
(32,-1,cs)
);
},
{
closed = 1;
nodes = (
(144,392,o),
(178,461,o),
(211,462,cs),
(249,458,o),
(235,412,o),
(281,411,cs),
(306,409,o),
(316,430,o),
(319,452,cs),
(320,486,o),
(295,515,o),
(251,518,cs),
(211,517,o),
(181,487,o),
(157,450,cs),
(144,421,l),
(130,424,l),
(141,300,l)
);
}
);
};
layerId = m01;
shapes = (
{
closed = 1;
nodes = (
(145,436,o),
(135,436,o),
(136,448,cs),
(139,502,ls),
(135,511,o),
(135,512,o),
(129,512,cs),
(125,511,o),
(121,512,o),
(115,505,cs),
(91,484,o),
(74,466,o),
(32,459,cs),
(22,457,o),
(16,458,o),
(13,452,cs),
(16,445,o),
(19,438,o),
(30,440,cs),
(51,435,ls),
(66,435,o),
(72,428,o),
(72,402,cs),
(73,69,ls),
(73,38,o),
(69,30,o),
(39,23,cs),
(30,21,ls),
(20,23,o),
(14,18,o),
(17,12,cs),
(14,6,o),
(18,-1,o),
(32,-1,cs),
(198,2,ls),
(208,1,o),
(212,6,o),
(212,13,cs),
(213,19,o),
(212,21,o),
(204,21,cs),
(177,24,ls),
(149,27,o),
(143,41,o),
(141,68,cs),
(140,300,ls),
(144,392,o),
(178,461,o),
(211,462,cs),
(249,458,o),
(235,412,o),
(281,411,cs),
(306,409,o),
(316,430,o),
(319,452,cs),
(320,486,o),
(295,515,o),
(251,518,cs),
(215,514,o),
(183,490,o),
(156,445,cs)
);
}
);
width = 318;
}
);
unicode = 114;
},
{
glyphname = s;
kernLeft = s;
kernRight = s;
lastChange = "2023-02-01 21:00:18 +0000";
layers = (
{
anchors = (
{
name = bottom;
pos = (144,0);
},
{
name = top;
pos = (154,510);
}
);
background = {
shapes = (
{
closed = 1;
nodes = (
(220,-9,o),
(281,44,o),
(281,130,cs),
(282,199,o),
(244,251,o),
(177,301,cs),
(106,350,o),
(80,376,o),
(83,418,cs),
(83,463,o),
(108,491,o),
(148,493,cs),
(189,493,o),
(210,461,o),
(231,390,cs),
(236,373,ls),
(238,365,o),
(238,357,o),
(248,360,cs),
(256,360,o),
(257,365,o),
(259,372,cs),
(255,482,ls),
(254,487,o),
(255,495,o),
(247,498,cs),
(229,511,o),
(199,515,o),
(172,518,cs),
(87,517,o),
(27,467,o),
(30,391,cs),
(27,332,o),
(60,286,o),
(129,243,cs),
(195,192,o),
(223,156,o),
(222,104,cs),
(222,50,o),
(192,14,o),
(147,15,cs),
(106,17,o),
(73,48,o),
(55,115,cs),
(49,141,ls),
(45,148,o),
(45,152,o),
(36,151,cs),
(32,151,o),
(28,148,o),
(27,141,cs),
(29,26,ls),
(33,21,o),
(32,12,o),
(42,9,cs),
(61,-1,o),
(100,-9,o),
(131,-9,cs)
);
}
);
};
layerId = m01;
shapes = (
{
closed = 1;
nodes = (
(220,-9,o),
(281,44,o),
(281,130,cs),
(282,199,o),
(244,251,o),
(177,301,cs),
(106,350,o),
(80,376,o),
(80,426,cs),
(83,463,o),
(105,489,o),
(141,490,cs),
(178,486,o),
(205,458,o),
(232,373,cs),
(232,362,o),
(238,357,o),
(248,357,cs),
(251,358,o),
(256,363,o),
(259,372,cs),
(255,482,ls),
(254,487,o),
(254,491,o),
(246,499,cs),
(228,509,o),
(199,515,o),
(172,518,cs),
(88,515,o),
(27,467,o),
(30,391,cs),
(27,332,o),
(60,286,o),
(129,243,cs),
(195,192,o),
(223,156,o),
(222,104,cs),
(222,50,o),
(197,19,o),
(155,19,cs),
(109,18,o),
(77,43,o),
(58,138,cs),
(52,149,o),
(51,158,o),
(43,157,cs),
(32,157,o),
(27,148,o),
(26,137,cs),
(29,26,ls),
(33,21,o),
(32,12,o),
(42,9,cs),
(61,-1,o),
(100,-9,o),
(131,-9,cs)
);
}
);
width = 308;
}
);
unicode = 115;
},
{
glyphname = germandbls;
kernLeft = f;
kernRight = s;
lastChange = "2023-02-23 20:02:28 +0000";
layers = (
{
background = {
shapes = (
{
closed = 1;
nodes = (
(151,483,ls),
(151,665,o),
(186,726,o),
(256,722,cs),
(319,726,o),
(349,675,o),
(346,600,cs),
(348,520,o),
(311,497,o),
(280,483,cs),
(242,467,o),
(207,457,o),
(207,398,cs),
(207,285,o),
(386,255,o),
(385,125,cs),
(382,61,o),
(376,14,o),
(311,15,cs),
(236,11,o),
(244,171,o),
(216,174,cs),
(207,175,o),
(200,167,o),
(196,145,cs),
(199,45,ls),
(196,25,o),
(197,22,o),
(218,7,cs),
(238,-6,o),
(265,-12,o),
(295,-12,cs),
(386,-12,o),
(441,55,o),
(437,143,cs),
(438,237,o),
(394,282,o),
(345,314,cs),
(301,353,o),
(251,376,o),
(250,423,cs),
(254,462,o),
(289,467,o),
(328,482,cs),
(369,497,o),
(409,524,o),
(406,604,cs),
(406,702,o),
(345,747,o),
(263,750,cs),
(164,749,o),
(99,638,o),
(95,498,cs),
(99,470,o),
(83,457,o),
(69,449,cs),
(55,446,o),
(39,441,o),
(36,429,cs),
(40,421,o),
(40,419,o),
(65,418,cs),
(85,419,o),
(94,413,o),
(92,391,cs),
(92,87,ls),
(91,36,o),
(84,25,o),
(44,23,cs),
(35,19,o),
(28,15,o),
(29,11,cs),
(31,3,o),
(36,-4,o),
(44,-4,cs),
(56,-4,o),
(67,-1,o),
(95,2,cs),
(111,-1,o),
(120,-4,o),
(136,-4,cs),
(150,-4,o),
(151,-1,o),
(154,19,cs)
);
}
);
};
layerId = m01;
shapes = (
{
closed = 1;
nodes = (
(380,-9,o),
(430,45,o),
(429,134,cs),
(429,199,o),
(394,250,o),
(333,293,cs),
(260,346,o),
(243,370,o),
(239,407,cs),
(243,482,o),
(394,524,o),
(395,637,cs),
(394,685,o),
(349,750,o),
(263,747,c),
(150,746,o),
(86,652,o),
(87,542,cs),
(86,520,o),
(67,507,o),
(37,502,cs),
(29,500,o),
(27,496,o),
(28,493,cs),
(27,487,o),
(33,483,o),
(36,481,cs),
(60,481,ls),
(75,480,o),
(83,474,o),
(86,457,cs),
(86,69,ls),
(87,38,o),
(80,28,o),
(49,27,cs),
(28,24,ls),
(15,24,o),
(12,15,o),
(12,12,cs),
(15,2,o),
(16,2,o),
(30,-2,cs),
(132,-2,ls),
(145,-2,o),
(154,6,o),
(155,22,c),
(155,569,ls),
(151,671,o),
(199,715,o),
(260,718,cs),
(306,719,o),
(331,689,o),
(330,642,cs),
(327,510,o),
(198,491,o),
(198,380,cs),
(196,325,o),
(223,280,o),
(295,233,cs),
(350,194,o),
(377,157,o),
(379,103,cs),
(377,48,o),
(346,18,o),
(313,19,cs),
(268,18,o),
(246,46,o),
(224,141,cs),
(223,150,o),
(219,154,o),
(209,157,cs),
(204,158,o),
(196,148,o),
(195,141,cs),
(199,26,ls),
(199,21,o),
(200,13,o),
(207,11,cs),
(230,-1,o),
(259,-9,o),
(297,-9,cs)
);
}
);
width = 443;
}
);
metricLeft = f;
unicode = 223;
},
{
glyphname = t;
kernLeft = t;
kernRight = t;
lastChange = "2023-02-01 20:40:20 +0000";
layers = (
{
anchors = (
{
name = bottom;
pos = (150,0);
},
{
name = center;
pos = (130,255);
},
{
name = top;
pos = (130,510);
},
{
name = topright;
pos = (195,760);
}
);
background = {
shapes = (
{
closed = 1;
nodes = (
(68,491,l),
(69,94,ls),
(66,19,o),
(100,-9,o),
(147,-9,cs),
(199,-9,o),
(244,35,o),
(246,149,c),
(219,149,l),
(216,77,o),
(199,50,o),
(170,47,cs),
(144,49,o),
(133,67,o),
(133,96,cs),
(133,492,l)
);
},
{
closed = 1;
nodes = (
(87,570,o),
(60,537,o),
(9,504,c),
(12,484,l),
(227,484,l),
(227,511,l),
(137,509,l),
(136,647,l),
(112,647,l)
);
}
);
};
guides = (
{
angle = 90;
pos = (245,486);
},
{
pos = (-79,649);
}
);
layerId = m01;
shapes = (
{
closed = 1;
nodes = (
(197,-9,o),
(240,31,o),
(246,134,cs),
(244,147,o),
(238,153,o),
(232,150,cs),
(224,150,o),
(223,144,o),
(221,136,cs),
(217,72,o),
(197,46,o),
(170,47,cs),
(144,49,o),
(133,67,o),
(133,96,cs),
(133,467,ls),
(133,475,o),
(138,480,o),
(148,483,cs),
(212,483,ls),
(224,483,o),
(228,485,o),
(231,497,cs),
(229,503,o),
(221,511,o),
(213,508,cs),
(150,509,ls),
(138,512,o),
(134,517,o),
(137,523,cs),
(133,637,ls),
(137,648,o),
(130,652,o),
(125,649,cs),
(118,650,o),
(113,645,o),
(105,631,cs),
(86,570,o),
(64,539,o),
(17,509,cs),
(11,503,o),
(12,501,o),
(11,496,cs),
(9,484,o),
(17,480,o),
(28,481,cs),
(54,480,ls),
(64,483,o),
(69,478,o),
(69,469,cs),
(69,94,ls),
(66,19,o),
(100,-9,o),
(147,-9,cs)
);
}
);
width = 259;
}
);
unicode = 116;
},
{
glyphname = u;
kernLeft = u;
kernRight = u;
lastChange = "2023-02-01 20:40:25 +0000";
layers = (
{
anchors = (
{
name = bottom;
pos = (226,0);
},
{
name = ogonek;
pos = (336,0);
},
{
name = top;
pos = (216,510);
},
{
name = topright;
pos = (436,510);
}
);
background = {
shapes = (
{
closed = 1;
nodes = (
(218,-9,o),
(249,8,o),
(293,51,cs),
(314,71,l),
(323,68,l),
(310,167,l),
(310,97,o),
(266,36,o),
(202,38,cs),
(160,36,o),
(136,59,o),
(140,120,cs),
(137,502,ls),
(136,510,o),
(134,514,o),
(131,511,cs),
(123,511,o),
(121,511,o),
(113,506,cs),
(91,480,o),
(70,468,o),
(29,462,cs),
(17,458,o),
(10,455,o),
(10,447,cs),
(12,446,o),
(15,441,o),
(25,438,cs),
(43,438,ls),
(66,432,o),
(68,428,o),
(72,404,cs),
(69,100,ls),
(72,20,o),
(121,-9,o),
(171,-9,cs)
);
},
{
closed = 1;
nodes = (
(331,-5,o),
(335,-2,o),
(340,5,cs),
(361,28,o),
(384,44,o),
(421,50,cs),
(433,53,o),
(441,52,o),
(437,63,cs),
(441,67,o),
(435,69,o),
(428,73,cs),
(406,75,ls),
(384,75,o),
(382,82,o),
(378,108,cs),
(381,503,ls),
(379,507,o),
(375,514,o),
(369,514,cs),
(365,514,o),
(364,509,o),
(357,502,cs),
(334,483,o),
(312,465,o),
(267,460,cs),
(257,461,o),
(252,458,o),
(255,451,cs),
(255,446,o),
(254,441,o),
(267,437,cs),
(289,434,ls),
(305,434,o),
(311,426,o),
(311,405,cs),
(313,93,l),
(319,93,l),
(318,5,ls),
(317,-1,o),
(320,-5,o),
(326,-5,cs)
);
}
);
};
layerId = m01;
shapes = (
{
closed = 1;
nodes = (
(218,-9,o),
(249,8,o),
(298,56,cs),
(309,65,o),
(315,61,o),
(316,55,cs),
(318,5,ls),
(317,-1,o),
(320,-5,o),
(326,-5,cs),
(331,-5,o),
(335,-2,o),
(340,5,cs),
(361,28,o),
(384,44,o),
(421,50,cs),
(433,53,o),
(441,52,o),
(437,63,cs),
(441,67,o),
(435,69,o),
(428,73,cs),
(406,75,ls),
(384,75,o),
(382,82,o),
(378,108,cs),
(379,497,ls),
(378,502,o),
(372,509,o),
(364,508,cs),
(270,508,ls),
(258,511,o),
(255,508,o),
(254,495,cs),
(250,487,o),
(260,487,o),
(269,482,cs),
(289,481,ls),
(305,482,o),
(311,471,o),
(314,450,cs),
(311,168,ls),
(310,97,o),
(266,36,o),
(202,38,cs),
(160,36,o),
(136,59,o),
(140,120,cs),
(139,497,ls),
(140,503,o),
(133,511,o),
(122,511,cs),
(29,511,ls),
(15,508,o),
(12,505,o),
(12,498,cs),
(10,491,o),
(15,486,o),
(27,486,cs),
(46,481,ls),
(65,481,o),
(71,471,o),
(72,448,cs),
(69,100,ls),
(72,20,o),
(121,-9,o),
(171,-9,cs)
);
}
);
width = 454;
}
);
unicode = 117;
},
{
glyphname = v;
lastChange = "2023-02-01 20:40:32 +0000";
layers = (
{
background = {
shapes = (
{
closed = 1;
nodes = (
(199,-9,o),
(204,-7,o),
(209,3,cs),
(335,420,ls),
(349,459,o),
(359,476,o),
(378,483,cs),
(387,483,ls),
(396,490,o),
(399,491,o),
(403,501,cs),
(402,507,o),
(395,508,o),
(389,508,cs),
(258,511,ls),
(253,511,o),
(245,508,o),
(244,501,cs),
(247,495,o),
(250,487,o),
(260,489,cs),
(282,481,ls),
(311,476,o),
(316,459,o),
(302,427,cs),
(218,125,l),
(210,125,l),
(119,441,ls),
(111,470,o),
(120,480,o),
(149,487,cs),
(165,489,ls),
(172,486,o),
(181,491,o),
(181,498,cs),
(178,505,o),
(175,508,o),
(164,509,cs),
(2,512,ls),
(-9,510,o),
(-14,506,o),
(-14,500,cs),
(-14,493,o),
(-10,489,o),
(-1,487,cs),
(12,482,ls),
(32,484,o),
(39,476,o),
(46,442,cs),
(183,4,ls),
(184,-7,o),
(189,-9,o),
(194,-9,cs)
);
}
);
};
layerId = m01;
shapes = (
{
closed = 1;
nodes = (
(199,-9,o),
(204,-7,o),
(209,3,cs),
(335,420,ls),
(349,459,o),
(359,476,o),
(378,483,cs),
(387,483,ls),
(396,490,o),
(399,491,o),
(403,501,cs),
(402,507,o),
(395,508,o),
(389,508,cs),
(258,511,ls),
(253,511,o),
(245,508,o),
(244,501,cs),
(247,495,o),
(250,487,o),
(260,489,cs),
(282,481,ls),
(311,476,o),
(316,459,o),
(302,427,cs),
(225,152,ls),
(217,137,o),
(208,140,o),
(202,155,cs),
(119,441,ls),
(111,470,o),
(120,480,o),
(149,487,cs),
(165,489,ls),
(172,486,o),
(181,491,o),
(181,498,cs),
(178,505,o),
(175,508,o),
(164,509,cs),
(2,512,ls),
(-9,510,o),
(-14,506,o),
(-14,500,cs),
(-14,493,o),
(-10,489,o),
(-1,487,cs),
(12,482,ls),
(32,484,o),
(39,476,o),
(46,442,cs),
(183,4,ls),
(184,-7,o),
(189,-9,o),
(194,-9,cs)
);
}
);
width = 393;
}
);
unicode = 118;
},
{
glyphname = w;
kernLeft = w;
kernRight = w;
lastChange = "2023-02-01 20:49:11 +0000";
layers = (
{
anchors = (
{
name = bottom;
pos = (299,0);
},
{
name = top;
pos = (311,510);
}
);
background = {
shapes = (
{
closed = 1;
nodes = (
(195,-9,o),
(201,-4,o),
(204,10,cs),
(322,448,l),
(295,454,l),
(206,129,l),
(204,125,l),
(118,442,ls),
(107,471,o),
(114,483,o),
(145,482,cs),
(164,488,ls),
(172,490,o),
(175,491,o),
(177,499,cs),
(174,505,o),
(173,508,o),
(160,511,cs),
(2,512,ls),
(-9,510,o),
(-14,506,o),
(-14,500,cs),
(-14,493,o),
(-10,489,o),
(-1,487,cs),
(12,482,ls),
(32,484,o),
(41,473,o),
(46,442,cs),
(168,12,ls),
(173,-4,o),
(179,-9,o),
(187,-9,cs)
);
},
{
closed = 1;
nodes = (
(414,-9,o),
(420,-4,o),
(422,13,cs),
(537,418,ls),
(551,463,o),
(563,474,o),
(583,484,cs),
(592,484,ls),
(600,489,o),
(603,492,o),
(607,498,cs),
(607,507,o),
(603,508,o),
(592,509,cs),
(467,508,ls),
(459,508,o),
(454,505,o),
(453,499,cs),
(453,495,o),
(456,490,o),
(464,488,cs),
(484,484,ls),
(520,478,o),
(522,459,o),
(511,424,cs),
(425,129,l),
(423,125,l),
(350,441,ls),
(344,471,o),
(352,480,o),
(384,484,cs),
(397,489,ls),
(404,489,o),
(410,495,o),
(410,498,cs),
(409,507,o),
(404,512,o),
(398,511,cs),
(237,512,ls),
(227,508,o),
(219,504,o),
(220,501,cs),
(222,495,o),
(227,491,o),
(236,486,cs),
(250,482,ls),
(266,479,o),
(273,477,o),
(285,441,cs),
(389,10,ls),
(392,-4,o),
(398,-9,o),
(405,-9,cs)
);
}
);
};
layerId = m01;
shapes = (
{
closed = 1;
nodes = (
(195,-9,o),
(201,-4,o),
(204,10,cs),
(292,333,ls),
(297,349,o),
(308,344,o),
(312,332,cs),
(389,10,ls),
(392,-4,o),
(398,-9,o),
(405,-9,cs),
(414,-9,o),
(420,-4,o),
(422,13,cs),
(537,418,ls),
(551,463,o),
(563,474,o),
(583,484,cs),
(592,484,ls),
(600,489,o),
(603,492,o),
(607,498,cs),
(607,507,o),
(603,508,o),
(592,509,cs),
(467,508,ls),
(459,508,o),
(454,505,o),
(453,499,cs),
(453,495,o),
(456,490,o),
(464,488,cs),
(484,484,ls),
(520,478,o),
(522,459,o),
(511,424,cs),
(436,153,ls),
(432,141,o),
(417,139,o),
(417,155,cs),
(350,441,ls),
(344,471,o),
(352,480,o),
(384,484,cs),
(397,489,ls),
(404,489,o),
(410,495,o),
(410,498,cs),
(409,507,o),
(404,512,o),
(398,511,cs),
(237,512,ls),
(227,508,o),
(219,504,o),
(220,501,cs),
(222,495,o),
(227,491,o),
(236,486,cs),
(250,482,ls),
(269,478,o),
(275,475,o),
(281,446,cs),
(286,431,o),
(288,423,o),
(281,413,cs),
(217,154,ls),
(209,139,o),
(199,136,o),
(195,150,cs),
(118,442,ls),
(107,471,o),
(114,483,o),
(145,482,cs),
(164,488,ls),
(172,490,o),
(175,491,o),
(177,499,cs),
(174,505,o),
(173,508,o),
(160,511,cs),
(2,512,ls),
(-9,510,o),
(-14,506,o),
(-14,500,cs),
(-14,493,o),
(-10,489,o),
(-1,487,cs),
(12,482,ls),
(32,484,o),
(41,473,o),
(46,442,cs),
(168,12,ls),
(173,-4,o),
(179,-9,o),
(187,-9,cs)
);
}
);
width = 597;
}
);
unicode = 119;
},
{
glyphname = x;
lastChange = "2023-02-01 20:49:22 +0000";
layers = (
{
background = {
shapes = (
{
closed = 1;
nodes = (
(374,-2,ls),
(385,1,o),
(388,5,o),
(388,12,cs),
(390,16,o),
(386,20,o),
(377,22,cs),
(363,27,ls),
(346,28,o),
(340,33,o),
(323,69,cs),
(132,449,ls),
(122,469,o),
(130,481,o),
(145,482,cs),
(159,488,ls),
(168,488,o),
(176,492,o),
(173,501,cs),
(175,507,o),
(170,512,o),
(161,512,cs),
(14,511,ls),
(1,508,o),
(-2,506,o),
(-2,500,cs),
(-2,493,o),
(0,490,o),
(12,489,cs),
(24,482,ls),
(37,483,o),
(48,474,o),
(63,445,cs),
(255,58,ls),
(264,44,o),
(261,32,o),
(243,24,cs),
(228,24,ls),
(216,20,o),
(212,15,o),
(214,9,cs),
(215,5,o),
(219,-1,o),
(229,-2,cs)
);
},
{
closed = 1;
nodes = (
(136,1,ls),
(142,-1,o),
(146,6,o),
(146,11,cs),
(150,19,o),
(143,19,o),
(137,21,cs),
(110,30,ls),
(93,35,o),
(88,50,o),
(101,75,cs),
(176,215,l),
(186,211,l),
(155,256,l),
(163,244,o),
(164,238,o),
(156,228,cs),
(79,90,ls),
(56,40,o),
(39,33,o),
(18,29,cs),
(5,24,ls),
(-5,23,o),
(-8,17,o),
(-8,11,cs),
(-8,5,o),
(-4,0,o),
(4,-1,cs)
);
},
{
closed = 1;
nodes = (
(219,270,o),
(220,278,o),
(229,293,cs),
(299,421,ls),
(323,470,o),
(338,477,o),
(361,483,cs),
(375,486,ls),
(385,486,o),
(388,492,o),
(385,498,cs),
(384,503,o),
(381,508,o),
(371,512,cs),
(242,511,ls),
(233,512,o),
(232,508,o),
(232,498,cs),
(229,494,o),
(232,488,o),
(244,488,cs),
(270,482,ls),
(288,475,o),
(290,463,o),
(277,434,cs),
(207,307,l),
(192,307,l),
(228,259,l)
);
}
);
};
layerId = m01;
shapes = (
{
closed = 1;
nodes = (
(374,-2,ls),
(385,1,o),
(388,5,o),
(388,12,cs),
(390,16,o),
(386,20,o),
(377,22,cs),
(363,27,ls),
(346,28,o),
(340,33,o),
(323,69,cs),
(229,262,ls),
(219,270,o),
(220,278,o),
(229,293,cs),
(299,421,ls),
(323,470,o),
(338,477,o),
(361,483,cs),
(375,486,ls),
(385,486,o),
(388,492,o),
(385,498,cs),
(384,503,o),
(381,508,o),
(371,512,cs),
(242,511,ls),
(233,512,o),
(232,508,o),
(232,498,cs),
(229,494,o),
(232,488,o),
(244,488,cs),
(270,482,ls),
(288,475,o),
(290,463,o),
(277,434,cs),
(217,317,ls),
(209,308,o),
(202,308,o),
(200,317,cs),
(132,449,ls),
(122,469,o),
(130,481,o),
(145,482,cs),
(159,488,ls),
(168,488,o),
(176,492,o),
(173,501,cs),
(175,507,o),
(170,512,o),
(161,512,cs),
(14,511,ls),
(1,508,o),
(-2,506,o),
(-2,500,cs),
(-2,493,o),
(0,490,o),
(12,489,cs),
(24,482,ls),
(37,483,o),
(48,474,o),
(63,445,cs),
(158,257,ls),
(161,244,o),
(162,237,o),
(156,228,cs),
(79,90,ls),
(56,40,o),
(39,33,o),
(18,29,cs),
(5,24,ls),
(-5,23,o),
(-8,17,o),
(-8,11,cs),
(-8,5,o),
(-4,0,o),
(4,-1,cs),
(136,1,ls),
(142,-1,o),
(146,6,o),
(146,11,cs),
(150,19,o),
(143,19,o),
(137,21,cs),
(110,30,ls),
(93,35,o),
(88,50,o),
(101,75,cs),
(168,201,ls),
(173,211,o),
(182,206,o),
(185,200,cs),
(255,58,ls),
(264,44,o),
(261,32,o),
(243,24,cs),
(228,24,ls),
(216,20,o),
(212,15,o),
(214,9,cs),
(215,5,o),
(219,-1,o),
(229,-2,cs)
);
}
);
width = 385;
}
);
unicode = 120;
},
{
glyphname = y;
kernLeft = y;
kernRight = y;
lastChange = "2023-02-01 20:21:06 +0000";
layers = (
{
anchors = (
{
name = bottom;
pos = (201,0);
},
{
name = top;
pos = (201,510);
}
);
background = {
shapes = (
{
closed = 1;
nodes = (
(124,-205,o),
(149,-187,o),
(193,-46,cs),
(344,418,ls),
(354,460,o),
(367,473,o),
(386,483,cs),
(396,484,ls),
(404,489,o),
(408,494,o),
(410,497,cs),
(411,507,o),
(404,511,o),
(394,508,cs),
(266,512,ls),
(258,511,o),
(255,508,o),
(253,498,cs),
(255,495,o),
(256,488,o),
(268,488,cs),
(290,481,ls),
(320,478,o),
(321,463,o),
(314,426,cs),
(219,128,l),
(214,125,l),
(119,441,ls),
(112,473,o),
(120,480,o),
(149,487,cs),
(165,489,ls),
(172,486,o),
(181,491,o),
(181,498,cs),
(178,505,o),
(175,508,o),
(164,509,cs),
(2,512,ls),
(-9,510,o),
(-14,506,o),
(-14,500,cs),
(-14,493,o),
(-10,489,o),
(-1,487,cs),
(12,482,ls),
(32,484,o),
(39,476,o),
(46,442,cs),
(159,95,ls),
(178,22,o),
(180,-5,o),
(161,-64,cs),
(140,-131,o),
(130,-145,o),
(116,-145,cs),
(93,-145,o),
(108,-99,o),
(65,-99,cs),
(39,-99,o),
(24,-119,o),
(24,-144,cs),
(24,-176,o),
(47,-205,o),
(83,-205,cs)
);
}
);
};
layerId = m01;
shapes = (
{
closed = 1;
nodes = (
(124,-205,o),
(148,-187,o),
(193,-46,cs),
(344,418,ls),
(354,460,o),
(367,473,o),
(386,483,cs),
(396,484,ls),
(404,489,o),
(408,494,o),
(410,497,cs),
(411,507,o),
(404,511,o),
(394,508,cs),
(266,512,ls),
(258,511,o),
(255,508,o),
(253,498,cs),
(255,495,o),
(256,488,o),
(268,488,cs),
(290,481,ls),
(320,478,o),
(321,463,o),
(314,426,cs),
(225,151,ls),
(222,135,o),
(213,136,o),
(207,152,cs),
(119,441,ls),
(112,473,o),
(120,480,o),
(149,487,cs),
(165,489,ls),
(172,486,o),
(181,491,o),
(181,498,cs),
(178,505,o),
(175,508,o),
(164,509,cs),
(2,512,ls),
(-9,510,o),
(-14,506,o),
(-14,500,cs),
(-14,493,o),
(-10,489,o),
(-1,487,cs),
(12,482,ls),
(32,484,o),
(39,476,o),
(46,442,cs),
(159,95,ls),
(178,22,o),
(180,-5,o),
(161,-64,cs),
(140,-131,o),
(130,-145,o),
(116,-145,cs),
(93,-145,o),
(108,-99,o),
(65,-99,cs),
(39,-99,o),
(24,-119,o),
(24,-144,cs),
(24,-176,o),
(47,-205,o),
(83,-205,cs)
);
}
);
width = 401;
}
);
metricRight = v;
unicode = 121;
},
{
glyphname = z;
kernLeft = z;
kernRight = z;
lastChange = "2023-02-01 20:49:33 +0000";
layers = (
{
anchors = (
{
name = bottom;
pos = (177,0);
},
{
name = center;
pos = (177,255);
},
{
name = top;
pos = (203,510);
}
);
background = {
shapes = (
{
closed = 1;
nodes = (
(292,-2,ls),
(301,-1,o),
(312,8,o),
(313,20,cs),
(339,163,ls),
(341,173,o),
(334,181,o),
(327,181,cs),
(318,180,o),
(315,176,o),
(312,168,cs),
(282,97,ls),
(261,50,o),
(242,26,o),
(164,30,cs),
(115,27,ls),
(104,26,o),
(100,38,o),
(103,47,cs),
(325,471,ls),
(334,485,o),
(338,494,o),
(339,495,cs),
(336,502,o),
(334,512,o),
(321,511,cs),
(119,512,ls),
(82,512,o),
(91,536,o),
(77,532,cs),
(68,536,o),
(58,530,o),
(59,511,cs),
(35,373,ls),
(30,363,o),
(37,357,o),
(42,357,cs),
(48,360,o),
(55,362,o),
(57,374,cs),
(78,416,ls),
(98,461,o),
(124,484,o),
(202,481,cs),
(235,482,ls),
(247,484,o),
(252,474,o),
(249,461,cs),
(26,39,ls),
(20,24,o),
(16,19,o),
(17,15,cs),
(14,8,o),
(17,-1,o),
(32,-1,cs)
);
}
);
};
layerId = m01;
shapes = (
{
closed = 1;
nodes = (
(292,-2,ls),
(301,-1,o),
(312,8,o),
(313,20,cs),
(339,163,ls),
(341,173,o),
(334,181,o),
(327,181,cs),
(318,180,o),
(315,176,o),
(312,168,cs),
(282,97,ls),
(261,48,o),
(238,27,o),
(160,25,cs),
(115,24,ls),
(99,24,o),
(97,34,o),
(106,48,cs),
(325,471,ls),
(334,485,o),
(338,494,o),
(339,495,cs),
(336,502,o),
(334,512,o),
(321,511,cs),
(121,508,ls),
(85,509,o),
(95,532,o),
(77,533,cs),
(69,533,o),
(66,530,o),
(60,508,cs),
(35,373,ls),
(33,367,o),
(41,358,o),
(46,358,cs),
(53,361,o),
(56,362,o),
(60,374,cs),
(82,419,ls),
(103,462,o),
(128,486,o),
(196,485,cs),
(235,482,ls),
(248,486,o),
(256,477,o),
(248,463,cs),
(26,39,ls),
(20,24,o),
(16,19,o),
(17,15,cs),
(14,8,o),
(17,-1,o),
(32,-1,cs)
);
}
);
width = 353;
}
);
unicode = 122;
},
{
glyphname = a.ss01;
kernLeft = a;
kernRight = a;
lastChange = "2023-08-27 16:36:11 +0000";
layers = (
{
background = {
shapes = (
{
closed = 1;
nodes = (
(169,-9,o),
(200,13,o),
(229,59,cs),
(241,73,o),
(250,72,o),
(252,59,cs),
(258,23,o),
(279,-9,o),
(311,-9,cs),
(354,-9,o),
(393,30,o),
(395,131,cs),
(395,139,o),
(387,145,o),
(380,148,cs),
(373,147,o),
(368,143,o),
(370,132,cs),
(370,72,o),
(352,55,o),
(332,51,cs),
(323,52,o),
(311,67,o),
(312,97,cs),
(313,405,ls),
(311,478,o),
(280,515,o),
(213,514,cs),
(128,518,o),
(32,431,o),
(29,356,cs),
(30,338,o),
(41,328,o),
(57,329,cs),
(79,326,o),
(109,346,o),
(115,387,cs),
(124,459,o),
(153,485,o),
(191,487,cs),
(224,485,o),
(244,460,o),
(246,395,cs),
(246,176,ls),
(244,95,o),
(196,39,o),
(146,39,cs),
(116,39,o),
(94,63,o),
(94,104,cs),
(98,187,o),
(154,240,o),
(253,268,c),
(253,298,l),
(120,261,o),
(26,177,o),
(25,87,cs),
(26,28,o),
(64,-9,o),
(120,-9,cs)
);
}
);
};
layerId = m01;
shapes = (
{
closed = 1;
nodes = (
(169,-9,o),
(200,13,o),
(229,59,cs),
(241,73,o),
(250,72,o),
(252,59,cs),
(260,12,o),
(275,-9,o),
(310,-9,cs),
(344,-9,o),
(371,18,o),
(371,34,cs),
(375,42,o),
(369,45,o),
(363,45,cs),
(356,44,o),
(350,35,o),
(337,34,cs),
(322,31,o),
(312,45,o),
(315,67,cs),
(313,405,ls),
(311,478,o),
(280,515,o),
(213,514,cs),
(128,518,o),
(32,431,o),
(29,356,cs),
(30,338,o),
(41,328,o),
(57,329,cs),
(79,326,o),
(109,346,o),
(115,387,cs),
(124,459,o),
(153,485,o),
(191,487,cs),
(224,485,o),
(244,460,o),
(246,395,cs),
(246,305,ls),
(247,299,o),
(239,290,o),
(230,291,cs),
(112,252,o),
(26,175,o),
(25,87,cs),
(26,28,o),
(64,-9,o),
(120,-9,cs)
);
},
{
closed = 1;
nodes = (
(116,39,o),
(94,63,o),
(94,104,cs),
(98,176,o),
(141,230,o),
(222,257,cs),
(239,262,o),
(244,260,o),
(243,246,cs),
(246,176,ls),
(244,95,o),
(196,39,o),
(146,39,cs)
);
}
);
width = 389;
}
);
},
{
glyphname = c.ss01;
kernLeft = o;
kernRight = c;
lastChange = "2023-08-27 16:33:08 +0000";
layers = (
{
anchors = (
{
name = bottom;
pos = (182,0);
},
{
name = top;
pos = (208,510);
}
);
background = {
shapes = (
{
closed = 1;
nodes = (
(246,-9,o),
(294,25,o),
(317,169,cs),
(319,177,o),
(314,186,o),
(306,185,cs),
(299,188,o),
(299,182,o),
(297,174,cs),
(271,72,o),
(244,44,o),
(198,43,cs),
(135,43,o),
(99,112,o),
(99,256,cs),
(99,424,o),
(147,489,o),
(188,489,cs),
(222,488,o),
(247,464,o),
(273,353,cs),
(274,342,o),
(283,338,o),
(289,341,cs),
(296,341,o),
(299,346,o),
(298,352,cs),
(296,478,ls),
(300,489,o),
(293,495,o),
(287,500,cs),
(270,512,o),
(250,517,o),
(214,517,cs),
(108,517,o),
(25,405,o),
(25,234,cs),
(21,82,o),
(92,-9,o),
(180,-9,cs)
);
}
);
};
layerId = m01;
shapes = (
{
closed = 1;
nodes = (
(257,-9,o),
(296,39,o),
(314,116,cs),
(320,121,o),
(318,128,o),
(307,129,cs),
(304,131,o),
(299,125,o),
(298,117,cs),
(276,65,o),
(244,35,o),
(202,38,cs),
(139,39,o),
(99,112,o),
(99,256,cs),
(99,424,o),
(147,489,o),
(188,489,cs),
(222,488,o),
(247,464,o),
(273,353,cs),
(274,342,o),
(283,338,o),
(289,341,cs),
(296,341,o),
(299,346,o),
(298,352,cs),
(296,478,ls),
(300,489,o),
(293,495,o),
(287,500,cs),
(270,512,o),
(250,517,o),
(214,517,cs),
(108,517,o),
(25,405,o),
(25,234,cs),
(21,82,o),
(92,-9,o),
(185,-9,cs)
);
}
);
width = 339;
}
);
},
{
glyphname = d.ss01;
kernLeft = o;
kernRight = d;
lastChange = "2023-08-27 16:36:33 +0000";
layers = (
{
anchors = (
{
name = bottom;
pos = (223,0);
},
{
name = center;
pos = (223,255);
},
{
name = top;
pos = (223,740);
},
{
name = topright;
pos = (402,740);
}
);
background = {
shapes = (
{
closed = 1;
nodes = (
(223,-9,o),
(248,7,o),
(282,45,cs),
(296,70,l),
(308,73,l),
(301,171,l),
(302,94,o),
(256,36,o),
(202,36,cs),
(143,39,o),
(106,111,o),
(102,245,cs),
(105,395,o),
(153,492,o),
(230,490,cs),
(275,492,o),
(304,456,o),
(304,396,c),
(342,482,l),
(327,479,l),
(295,507,o),
(267,515,o),
(234,514,cs),
(117,518,o),
(28,401,o),
(32,234,cs),
(31,87,o),
(92,-9,o),
(181,-9,cs)
);
},
{
closed = 1;
nodes = (
(412,-9,o),
(453,34,o),
(450,127,cs),
(451,142,o),
(445,147,o),
(439,145,cs),
(432,145,o),
(426,139,o),
(425,129,cs),
(428,72,o),
(411,52,o),
(390,55,cs),
(380,54,o),
(369,64,o),
(372,97,cs),
(373,725,ls),
(370,733,o),
(365,742,o),
(361,738,cs),
(356,738,o),
(345,735,o),
(335,729,cs),
(317,717,o),
(293,709,o),
(250,702,cs),
(244,698,o),
(243,693,o),
(243,689,cs),
(242,681,o),
(243,678,o),
(251,677,cs),
(276,672,ls),
(295,672,o),
(301,666,o),
(301,641,cs),
(305,71,ls),
(301,20,o),
(333,-9,o),
(370,-9,cs)
);
}
);
};
layerId = m01;
shapes = (
{
closed = 1;
nodes = (
(225,-9,o),
(250,8,o),
(290,56,cs),
(296,69,o),
(307,71,o),
(309,55,cs),
(316,12,o),
(333,-9,o),
(367,-9,cs),
(409,-9,o),
(435,27,o),
(437,40,cs),
(438,44,o),
(435,48,o),
(429,48,cs),
(418,50,o),
(414,34,o),
(394,32,cs),
(379,31,o),
(373,44,o),
(373,64,cs),
(373,725,ls),
(370,733,o),
(365,742,o),
(361,738,cs),
(356,738,o),
(345,735,o),
(335,729,cs),
(317,717,o),
(293,709,o),
(250,702,cs),
(244,698,o),
(243,693,o),
(243,689,cs),
(242,681,o),
(243,678,o),
(251,677,cs),
(276,672,ls),
(295,672,o),
(301,666,o),
(301,641,cs),
(301,513,ls),
(302,503,o),
(298,498,o),
(288,506,cs),
(267,514,o),
(250,514,o),
(234,514,cs),
(117,518,o),
(28,401,o),
(32,234,cs),
(31,87,o),
(92,-9,o),
(181,-9,cs)
);
},
{
closed = 1;
nodes = (
(143,39,o),
(106,111,o),
(102,245,cs),
(105,395,o),
(153,492,o),
(230,490,cs),
(275,492,o),
(304,456,o),
(305,395,cs),
(304,170,ls),
(302,94,o),
(256,36,o),
(202,36,cs)
);
}
);
width = 446;
}
);
},
{
glyphname = dcroat.ss01;
kernLeft = o;
kernRight = d;
lastChange = "2023-08-27 16:34:48 +0000";
layers = (
{
layerId = m01;
shapes = (
{
ref = d.ss01;
},
{
closed = 1;
nodes = (
(429,579,ls),
(432,577,o),
(439,584,o),
(439,589,cs),
(435,594,ls),
(435,601,o),
(434,608,o),
(426,607,cs),
(154,608,ls),
(147,607,o),
(141,604,o),
(143,597,cs),
(141,590,ls),
(141,584,o),
(145,576,o),
(153,576,cs)
);
}
);
width = 457;
}
);
},
{
glyphname = e.ss01;
kernLeft = o;
kernRight = e;
lastChange = "2023-08-27 16:36:41 +0000";
layers = (
{
anchors = (
{
name = bottom;
pos = (178,0);
},
{
name = ogonek;
pos = (266,10);
},
{
name = top;
pos = (178,510);
}
);
background = {
shapes = (
{
closed = 1;
nodes = (
(308,271,ls),
(332,275,o),
(332,277,o),
(328,339,cs),
(329,454,o),
(273,515,o),
(198,517,cs),
(112,517,o),
(25,429,o),
(21,243,cs),
(24,93,o),
(89,-9,o),
(204,-9,cs),
(254,-9,o),
(303,23,o),
(323,74,cs),
(329,87,o),
(334,104,o),
(333,125,cs),
(331,134,o),
(330,135,o),
(325,136,cs),
(317,138,o),
(314,121,o),
(310,98,cs),
(294,59,o),
(264,35,o),
(213,35,cs),
(143,39,o),
(93,119,o),
(89,253,cs),
(89,264,o),
(99,275,o),
(114,274,cs)
);
},
{
closed = 1;
nodes = (
(95,327,ls),
(96,420,o),
(136,488,o),
(196,490,cs),
(241,490,o),
(271,446,o),
(271,371,cs),
(271,341,o),
(270,329,o),
(257,318,cs),
(253,312,o),
(227,310,o),
(196,308,cs),
(179,304,o),
(161,303,o),
(137,305,cs),
(94,302,o),
(92,307,o),
(96,326,cs)
);
}
);
};
layerId = m01;
shapes = (
{
closed = 1;
nodes = (
(270,-9,o),
(308,39,o),
(329,102,cs),
(328,114,o),
(329,119,o),
(321,118,cs),
(314,121,o),
(311,117,o),
(304,111,cs),
(288,62,o),
(258,39,o),
(214,39,cs),
(137,36,o),
(96,114,o),
(97,255,cs),
(97,269,o),
(100,276,o),
(114,275,cs),
(306,279,ls),
(323,278,o),
(332,287,o),
(331,309,cs),
(329,456,o),
(274,517,o),
(199,514,cs),
(98,517,o),
(25,405,o),
(25,247,cs),
(22,92,o),
(96,-9,o),
(195,-9,cs)
);
},
{
closed = 1;
nodes = (
(101,304,o),
(97,306,o),
(98,316,cs),
(109,426,o),
(143,492,o),
(196,492,cs),
(238,489,o),
(263,437,o),
(259,350,cs),
(260,319,o),
(244,300,o),
(212,300,cs),
(114,300,ls)
);
}
);
width = 355;
}
);
},
{
glyphname = g.ss01;
kernLeft = g;
kernRight = g;
lastChange = "2023-08-27 16:37:06 +0000";
layers = (
{
anchors = (
{
name = bottom;
pos = (198,-205);
},
{
name = top;
pos = (198,510);
}
);
background = {
shapes = (
{
closed = 1;
nodes = (
(293,-215,o),
(385,-144,o),
(385,-46,cs),
(387,35,o),
(327,89,o),
(227,89,cs),
(157,89,ls),
(125,89,o),
(108,99,o),
(108,118,cs),
(104,142,o),
(126,155,o),
(169,168,cs),
(231,187,ls),
(300,201,o),
(347,265,o),
(346,347,cs),
(347,400,o),
(323,445,o),
(295,479,c),
(296,481,l),
(365,484,ls),
(373,484,o),
(380,489,o),
(380,494,cs),
(379,504,o),
(372,509,o),
(362,508,cs),
(265,508,ls),
(238,509,o),
(227,517,o),
(195,517,cs),
(111,515,o),
(49,443,o),
(49,350,cs),
(48,277,o),
(94,211,o),
(157,193,c),
(156,190,l),
(120,176,ls),
(73,164,o),
(43,137,o),
(43,98,cs),
(44,68,o),
(62,44,o),
(108,25,c),
(104,22,l),
(82,7,ls),
(37,-16,o),
(14,-49,o),
(14,-93,cs),
(14,-168,o),
(77,-215,o),
(178,-215,cs)
);
},
{
closed = 1;
nodes = (
(74,-22,o),
(137,28,o),
(189,28,cs),
(221,27,ls),
(283,24,o),
(321,-8,o),
(321,-68,cs),
(321,-141,o),
(262,-193,o),
(190,-193,cs),
(116,-193,o),
(74,-157,o),
(74,-81,cs)
);
},
{
closed = 1;
nodes = (
(117,438,o),
(150,496,o),
(194,496,cs),
(242,492,o),
(273,438,o),
(272,348,cs),
(275,260,o),
(246,206,o),
(195,203,cs),
(150,206,o),
(120,262,o),
(116,348,cs)
);
}
);
};
guides = (
{
pos = (124,26);
}
);
layerId = m01;
shapes = (
{
closed = 1;
nodes = (
(305,-215,o),
(397,-144,o),
(397,-46,cs),
(398,38,o),
(338,88,o),
(243,88,cs),
(145,85,ls),
(113,85,o),
(106,110,o),
(134,140,cs),
(155,168,o),
(175,182,o),
(195,179,cs),
(280,181,o),
(347,253,o),
(346,347,cs),
(346,389,o),
(333,430,o),
(311,456,cs),
(307,462,o),
(305,467,o),
(315,469,cs),
(369,485,ls),
(379,487,o),
(383,488,o),
(383,499,cs),
(379,504,o),
(375,508,o),
(368,511,cs),
(279,512,ls),
(234,512,o),
(227,517,o),
(195,517,cs),
(111,515,o),
(49,443,o),
(49,350,cs),
(46,286,o),
(80,232,o),
(122,209,cs),
(135,200,o),
(136,182,o),
(125,168,cs),
(66,122,ls),
(35,93,o),
(42,60,o),
(93,41,cs),
(106,31,o),
(106,17,o),
(93,5,cs),
(23,-56,o),
(14,-76,o),
(14,-111,cs),
(14,-168,o),
(77,-215,o),
(178,-215,cs)
);
},
{
closed = 1;
nodes = (
(74,-70,o),
(79,-46,o),
(116,-6,cs),
(138,21,o),
(157,27,o),
(196,27,cs),
(231,25,ls),
(294,28,o),
(333,-8,o),
(333,-68,cs),
(333,-141,o),
(274,-193,o),
(190,-193,cs),
(116,-193,o),
(74,-154,o),
(74,-98,cs)
);
},
{
closed = 1;
nodes = (
(117,438,o),
(150,496,o),
(194,496,cs),
(242,492,o),
(273,438,o),
(272,348,cs),
(275,260,o),
(246,206,o),
(195,203,cs),
(150,206,o),
(120,262,o),
(116,348,cs)
);
}
);
width = 395;
}
);
},
{
glyphname = f_b;
kernLeft = f;
kernRight = o;
lastChange = "2023-02-22 10:41:05 +0000";
layers = (
{
anchors = (
{
name = bottom_1;
pos = (179,0);
},
{
name = bottom_2;
pos = (537,0);
},
{
name = caret_1;
pos = (358,0);
},
{
name = top_1;
pos = (179,740);
},
{
name = top_2;
pos = (537,740);
}
);
background = {
shapes = (
{
closed = 1;
nodes = (
(87,38,o),
(80,28,o),
(49,27,cs),
(28,24,ls),
(15,24,o),
(12,15,o),
(12,12,cs),
(15,2,o),
(16,2,o),
(30,-2,cs),
(235,-1,ls),
(244,-1,o),
(252,6,o),
(249,10,cs),
(249,19,o),
(248,23,o),
(241,21,cs),
(188,26,ls),
(157,29,o),
(152,41,o),
(151,68,cs),
(154,468,ls),
(155,479,o),
(157,481,o),
(164,481,cs),
(250,480,ls),
(261,481,o),
(265,486,o),
(265,495,cs),
(265,503,o),
(258,511,o),
(250,511,cs),
(167,512,ls),
(157,511,o),
(151,517,o),
(155,524,cs),
(154,608,ls),
(155,690,o),
(167,719,o),
(195,715,cs),
(245,715,o),
(221,630,o),
(275,630,cs),
(300,633,o),
(311,647,o),
(314,672,cs),
(313,712,o),
(270,747,o),
(219,749,cs),
(134,749,o),
(86,652,o),
(87,548,cs),
(86,546,ls),
(86,520,o),
(67,507,o),
(37,502,cs),
(29,500,o),
(27,496,o),
(28,493,cs),
(27,487,o),
(33,483,o),
(36,481,cs),
(60,481,ls),
(75,480,o),
(83,474,o),
(86,457,cs),
(86,69,ls)
);
},
{
closed = 1;
nodes = (
(606,-9,o),
(692,105,o),
(693,275,cs),
(690,421,o),
(623,514,o),
(531,518,cs),
(499,514,o),
(470,504,o),
(441,474,cs),
(426,459,o),
(417,464,o),
(420,479,cs),
(420,725,ls),
(420,737,o),
(412,742,o),
(405,741,cs),
(399,742,o),
(395,739,o),
(384,729,cs),
(367,720,o),
(343,710,o),
(305,701,cs),
(296,701,o),
(291,695,o),
(295,690,cs),
(292,681,o),
(298,678,o),
(306,678,cs),
(324,674,ls),
(345,672,o),
(352,666,o),
(351,638,cs),
(351,161,ls),
(351,79,o),
(346,34,o),
(343,7,cs),
(340,-4,o),
(343,-9,o),
(350,-9,cs),
(356,-9,o),
(362,-6,o),
(373,10,cs),
(386,27,o),
(398,27,o),
(414,18,cs),
(441,-1,o),
(466,-9,o),
(494,-9,cs)
);
},
{
closed = 1;
nodes = (
(450,14,o),
(416,52,o),
(419,111,cs),
(417,367,ls),
(420,433,o),
(454,472,o),
(501,470,cs),
(577,473,o),
(618,399,o),
(615,262,cs),
(619,108,o),
(569,18,o),
(494,15,cs)
);
}
);
};
layerId = m01;
shapes = (
{
closed = 1;
nodes = (
(341,-9,o),
(347,-6,o),
(359,11,cs),
(370,27,o),
(385,27,o),
(398,18,cs),
(426,-1,o),
(451,-9,o),
(479,-9,cs),
(591,-9,o),
(678,106,o),
(677,275,cs),
(677,418,o),
(611,514,o),
(520,515,cs),
(481,514,o),
(455,501,o),
(422,473,cs),
(415,459,o),
(405,467,o),
(402,478,cs),
(404,723,ls),
(402,737,o),
(400,741,o),
(388,741,cs),
(376,744,o),
(375,737,o),
(364,714,cs),
(362,705,o),
(356,700,o),
(350,707,cs),
(324,736,o),
(295,746,o),
(254,747,cs),
(149,746,o),
(86,652,o),
(87,548,cs),
(86,546,ls),
(86,520,o),
(67,507,o),
(37,502,cs),
(29,500,o),
(27,496,o),
(28,493,cs),
(27,487,o),
(33,483,o),
(36,481,cs),
(60,481,ls),
(75,480,o),
(83,474,o),
(86,457,cs),
(86,69,ls),
(87,38,o),
(78,29,o),
(48,23,cs),
(28,24,ls),
(15,24,o),
(12,15,o),
(12,12,cs),
(15,2,o),
(16,2,o),
(30,-2,cs),
(202,2,ls),
(215,-2,o),
(216,5,o),
(217,10,cs),
(216,17,o),
(213,24,o),
(206,24,cs),
(181,28,ls),
(161,27,o),
(152,41,o),
(151,68,cs),
(154,468,ls),
(155,479,o),
(157,481,o),
(164,481,cs),
(250,480,ls),
(261,481,o),
(265,486,o),
(265,495,cs),
(265,503,o),
(258,511,o),
(250,511,cs),
(167,512,ls),
(157,511,o),
(151,517,o),
(155,524,cs),
(155,592,ls),
(155,690,o),
(197,724,o),
(247,724,cs),
(312,722,o),
(337,669,o),
(337,605,cs),
(334,162,ls),
(336,82,o),
(330,37,o),
(325,7,cs),
(325,-4,o),
(328,-9,o),
(335,-9,cs)
);
},
{
closed = 1;
nodes = (
(434,14,o),
(401,51,o),
(402,114,cs),
(402,364,ls),
(404,430,o),
(442,470,o),
(485,470,cs),
(562,469,o),
(603,395,o),
(600,262,cs),
(601,108,o),
(550,17,o),
(479,14,cs)
);
}
);
width = 716;
}
);
metricLeft = f;
metricRight = b;
},
{
glyphname = f_f_i;
lastChange = "2023-02-22 10:41:05 +0000";
layers = (
{
anchors = (
{
name = caret_1;
pos = (242.333,0);
},
{
name = caret_2;
pos = (484.667,0);
}
);
background = {
shapes = (
{
closed = 1;
nodes = (
(454,-1,ls),
(462,-2,o),
(466,6,o),
(470,13,cs),
(466,16,o),
(465,20,o),
(456,25,cs),
(433,25,ls),
(407,31,o),
(404,37,o),
(405,65,cs),
(402,469,ls),
(404,475,o),
(409,484,o),
(416,480,cs),
(570,484,ls),
(577,484,o),
(584,478,o),
(585,467,cs),
(581,68,ls),
(581,41,o),
(576,29,o),
(543,27,cs),
(531,21,ls),
(521,19,o),
(518,16,o),
(517,9,cs),
(521,2,o),
(522,-2,o),
(536,2,cs),
(699,2,ls),
(713,2,o),
(715,6,o),
(714,10,cs),
(717,20,o),
(711,24,o),
(706,22,cs),
(678,27,ls),
(655,31,o),
(652,40,o),
(649,65,cs),
(653,485,ls),
(649,503,o),
(641,509,o),
(625,511,cs),
(414,511,ls),
(406,512,o),
(405,513,o),
(401,521,cs),
(404,588,ls),
(405,694,o),
(446,718,o),
(497,717,cs),
(576,720,o),
(558,628,o),
(611,624,cs),
(642,624,o),
(655,642,o),
(655,667,cs),
(655,712,o),
(600,750,o),
(517,750,cs),
(425,746,o),
(365,690,o),
(341,617,c),
(336,617,l),
(337,69,ls),
(334,40,o),
(330,30,o),
(295,27,cs),
(277,24,ls),
(269,24,o),
(261,16,o),
(265,10,cs),
(265,5,o),
(270,2,o),
(279,1,cs)
);
},
{
closed = 1;
nodes = (
(383,638,l),
(355,699,o),
(315,730,o),
(257,729,cs),
(149,730,o),
(84,636,o),
(87,548,cs),
(86,546,ls),
(86,520,o),
(67,507,o),
(37,502,cs),
(29,500,o),
(27,496,o),
(28,493,cs),
(27,487,o),
(33,483,o),
(36,481,cs),
(60,481,ls),
(75,480,o),
(83,474,o),
(86,457,cs),
(86,69,ls),
(87,38,o),
(78,29,o),
(48,23,cs),
(28,24,ls),
(15,24,o),
(12,15,o),
(12,12,cs),
(15,2,o),
(16,2,o),
(30,-2,cs),
(202,2,ls),
(215,-2,o),
(216,5,o),
(217,10,cs),
(216,17,o),
(213,24,o),
(206,24,cs),
(181,28,ls),
(161,27,o),
(152,41,o),
(151,68,cs),
(154,468,ls),
(155,479,o),
(157,481,o),
(164,481,cs),
(347,480,ls),
(354,480,o),
(364,485,o),
(365,497,cs),
(365,507,o),
(357,512,o),
(349,512,cs),
(167,512,ls),
(157,511,o),
(151,517,o),
(155,524,cs),
(155,592,ls),
(151,671,o),
(200,701,o),
(246,701,cs),
(315,705,o),
(334,650,o),
(337,584,c)
);
}
);
};
layerId = m01;
shapes = (
{
closed = 1;
nodes = (
(202,2,ls),
(215,-2,o),
(216,5,o),
(217,10,cs),
(216,17,o),
(213,24,o),
(206,24,cs),
(181,28,ls),
(161,27,o),
(152,41,o),
(151,68,cs),
(154,468,ls),
(155,479,o),
(157,481,o),
(164,481,cs),
(322,480,ls),
(328,481,o),
(336,478,o),
(336,468,cs),
(337,69,ls),
(334,40,o),
(330,30,o),
(295,27,cs),
(277,24,ls),
(269,24,o),
(261,16,o),
(265,10,cs),
(265,5,o),
(270,2,o),
(279,1,cs),
(454,-1,ls),
(462,-2,o),
(466,6,o),
(470,13,cs),
(466,16,o),
(465,20,o),
(456,25,cs),
(433,25,ls),
(407,31,o),
(404,37,o),
(405,65,cs),
(402,469,ls),
(404,475,o),
(409,484,o),
(416,480,cs),
(570,484,ls),
(577,484,o),
(584,478,o),
(585,467,cs),
(581,68,ls),
(581,41,o),
(576,29,o),
(543,27,cs),
(531,21,ls),
(521,19,o),
(518,16,o),
(517,9,cs),
(521,2,o),
(522,-2,o),
(536,2,cs),
(699,2,ls),
(713,2,o),
(715,6,o),
(714,10,cs),
(717,20,o),
(711,24,o),
(706,22,cs),
(678,27,ls),
(655,31,o),
(652,40,o),
(649,65,cs),
(653,485,ls),
(649,503,o),
(641,509,o),
(625,511,cs),
(414,511,ls),
(406,512,o),
(405,513,o),
(401,521,cs),
(404,588,ls),
(405,694,o),
(446,718,o),
(497,717,cs),
(576,720,o),
(558,628,o),
(611,624,cs),
(642,624,o),
(655,642,o),
(655,667,cs),
(655,712,o),
(600,750,o),
(517,750,cs),
(452,749,o),
(403,719,o),
(371,682,cs),
(367,672,o),
(360,671,o),
(358,679,cs),
(333,715,o),
(297,727,o),
(257,729,cs),
(149,730,o),
(84,636,o),
(87,548,cs),
(86,546,ls),
(86,520,o),
(67,507,o),
(37,502,cs),
(29,500,o),
(27,496,o),
(28,493,cs),
(27,487,o),
(33,483,o),
(36,481,cs),
(60,481,ls),
(75,480,o),
(83,474,o),
(86,457,cs),
(86,69,ls),
(87,38,o),
(78,29,o),
(48,23,cs),
(28,24,ls),
(15,24,o),
(12,15,o),
(12,12,cs),
(15,2,o),
(16,2,o),
(30,-2,cs)
);
},
{
closed = 1;
nodes = (
(157,511,o),
(151,517,o),
(155,524,cs),
(155,592,ls),
(151,671,o),
(200,701,o),
(246,701,cs),
(315,705,o),
(334,650,o),
(336,584,cs),
(337,524,ls),
(336,517,o),
(329,512,o),
(322,508,cs),
(167,512,ls)
);
}
);
width = 727;
}
);
metricLeft = f;
metricRight = i;
},
{
glyphname = f_f_l;
lastChange = "2023-02-22 10:41:05 +0000";
layers = (
{
anchors = (
{
name = caret_1;
pos = (243.667,0);
},
{
name = caret_2;
pos = (487.333,0);
}
);
background = {
shapes = (
{
closed = 1;
nodes = (
(355,678,l),
(333,715,o),
(297,727,o),
(257,729,cs),
(149,730,o),
(84,636,o),
(87,548,cs),
(86,546,ls),
(86,520,o),
(67,507,o),
(37,502,cs),
(29,500,o),
(27,496,o),
(28,493,cs),
(27,487,o),
(33,483,o),
(36,481,cs),
(60,481,ls),
(75,480,o),
(83,474,o),
(86,457,cs),
(86,69,ls),
(87,38,o),
(78,29,o),
(48,23,cs),
(28,24,ls),
(15,24,o),
(12,15,o),
(12,12,cs),
(15,2,o),
(16,2,o),
(30,-2,cs),
(202,2,ls),
(215,-2,o),
(216,5,o),
(217,10,cs),
(216,17,o),
(213,24,o),
(206,24,cs),
(181,28,ls),
(161,27,o),
(152,41,o),
(151,68,cs),
(154,468,ls),
(155,479,o),
(157,481,o),
(164,481,cs),
(322,480,ls),
(328,481,o),
(336,478,o),
(336,468,cs),
(337,69,ls),
(334,40,o),
(330,30,o),
(295,27,cs),
(277,24,ls),
(269,24,o),
(261,16,o),
(265,10,cs),
(265,5,o),
(270,2,o),
(279,1,cs),
(454,-1,ls),
(462,-2,o),
(466,6,o),
(470,13,cs),
(466,16,o),
(465,20,o),
(456,25,cs),
(433,25,ls),
(407,31,o),
(404,37,o),
(405,65,cs),
(402,469,ls),
(404,475,o),
(409,484,o),
(416,480,cs),
(499,481,ls),
(511,483,o),
(517,486,o),
(514,498,cs),
(515,503,o),
(511,512,o),
(502,511,cs),
(414,511,ls),
(406,512,o),
(405,513,o),
(401,521,cs),
(404,588,ls),
(405,694,o),
(446,721,o),
(496,721,cs),
(564,724,o),
(584,672,o),
(586,607,cs),
(586,68,ls),
(587,38,o),
(573,31,o),
(543,27,cs),
(529,22,ls),
(521,23,o),
(518,16,o),
(517,9,cs),
(520,1,o),
(522,-2,o),
(533,1,cs),
(707,-2,ls),
(714,-2,o),
(723,2,o),
(719,12,cs),
(723,17,o),
(715,21,o),
(712,25,cs),
(689,27,ls),
(658,29,o),
(654,37,o),
(651,66,cs),
(651,725,ls),
(655,736,o),
(647,745,o),
(639,742,cs),
(627,745,o),
(623,734,o),
(615,711,cs),
(612,705,o),
(607,700,o),
(600,708,cs),
(574,735,o),
(545,747,o),
(507,749,cs),
(423,750,o),
(365,694,o),
(347,618,c),
(334,621,l),
(337,524,ls),
(336,517,o),
(329,512,o),
(322,508,cs),
(167,512,ls),
(157,511,o),
(151,517,o),
(155,524,cs),
(155,592,ls),
(151,671,o),
(200,701,o),
(246,701,cs),
(315,705,o),
(334,650,o),
(337,584,c)
);
}
);
};
layerId = m01;
shapes = (
{
closed = 1;
nodes = (
(202,2,ls),
(215,-2,o),
(216,5,o),
(217,10,cs),
(216,17,o),
(213,24,o),
(206,24,cs),
(181,28,ls),
(161,27,o),
(152,41,o),
(151,68,cs),
(154,468,ls),
(155,479,o),
(157,481,o),
(164,481,cs),
(322,480,ls),
(328,481,o),
(336,478,o),
(336,468,cs),
(337,69,ls),
(334,40,o),
(330,30,o),
(295,27,cs),
(277,24,ls),
(269,24,o),
(261,16,o),
(265,10,cs),
(265,5,o),
(270,2,o),
(279,1,cs),
(454,-1,ls),
(462,-2,o),
(466,6,o),
(470,13,cs),
(466,16,o),
(465,20,o),
(456,25,cs),
(433,25,ls),
(407,31,o),
(404,37,o),
(405,65,cs),
(402,469,ls),
(404,475,o),
(409,484,o),
(416,480,cs),
(499,481,ls),
(511,483,o),
(517,486,o),
(514,498,cs),
(515,503,o),
(511,512,o),
(502,511,cs),
(414,511,ls),
(406,512,o),
(405,513,o),
(401,521,cs),
(404,588,ls),
(405,694,o),
(446,721,o),
(496,721,cs),
(564,724,o),
(584,672,o),
(586,607,cs),
(586,68,ls),
(587,38,o),
(573,31,o),
(543,27,cs),
(529,22,ls),
(521,23,o),
(518,16,o),
(517,9,cs),
(520,1,o),
(522,-2,o),
(533,1,cs),
(707,-2,ls),
(714,-2,o),
(723,2,o),
(719,12,cs),
(723,17,o),
(715,21,o),
(712,25,cs),
(689,27,ls),
(658,29,o),
(654,37,o),
(651,66,cs),
(651,725,ls),
(655,736,o),
(647,745,o),
(639,742,cs),
(627,745,o),
(623,734,o),
(615,711,cs),
(612,705,o),
(607,700,o),
(600,708,cs),
(574,735,o),
(545,747,o),
(507,749,cs),
(445,747,o),
(404,719,o),
(372,681,cs),
(368,671,o),
(361,675,o),
(359,679,cs),
(330,711,o),
(297,727,o),
(257,729,cs),
(149,730,o),
(84,636,o),
(87,548,cs),
(86,546,ls),
(86,520,o),
(67,507,o),
(37,502,cs),
(29,500,o),
(27,496,o),
(28,493,cs),
(27,487,o),
(33,483,o),
(36,481,cs),
(60,481,ls),
(75,480,o),
(83,474,o),
(86,457,cs),
(86,69,ls),
(87,38,o),
(78,29,o),
(48,23,cs),
(28,24,ls),
(15,24,o),
(12,15,o),
(12,12,cs),
(15,2,o),
(16,2,o),
(30,-2,cs)
);
},
{
closed = 1;
nodes = (
(157,511,o),
(151,517,o),
(155,524,cs),
(155,592,ls),
(151,671,o),
(200,701,o),
(246,701,cs),
(315,705,o),
(334,650,o),
(336,584,cs),
(337,524,ls),
(336,517,o),
(329,512,o),
(322,508,cs),
(167,512,ls)
);
}
);
width = 731;
}
);
metricLeft = f;
metricRight = l;
},
{
glyphname = f_h;
kernLeft = f;
kernRight = n;
lastChange = "2023-02-22 10:41:05 +0000";
layers = (
{
anchors = (
{
name = bottom_1;
pos = (183,0);
},
{
name = bottom_2;
pos = (548,0);
},
{
name = caret_1;
pos = (365.5,0);
},
{
name = top_1;
pos = (183,740);
},
{
name = top_2;
pos = (548,740);
}
);
background = {
shapes = (
{
closed = 1;
nodes = (
(87,38,o),
(80,28,o),
(49,27,cs),
(28,24,ls),
(15,24,o),
(12,15,o),
(12,12,cs),
(15,2,o),
(16,2,o),
(30,-2,cs),
(235,-1,ls),
(244,-1,o),
(252,6,o),
(249,10,cs),
(249,19,o),
(248,23,o),
(241,21,cs),
(188,26,ls),
(157,29,o),
(152,41,o),
(151,68,cs),
(154,468,ls),
(155,479,o),
(157,481,o),
(164,481,cs),
(250,480,ls),
(261,481,o),
(265,486,o),
(265,495,cs),
(265,503,o),
(258,511,o),
(250,511,cs),
(167,512,ls),
(157,511,o),
(151,517,o),
(155,524,cs),
(154,608,ls),
(155,690,o),
(167,719,o),
(195,715,cs),
(245,715,o),
(221,630,o),
(275,630,cs),
(300,633,o),
(311,647,o),
(314,672,cs),
(313,712,o),
(270,747,o),
(219,749,cs),
(134,749,o),
(86,652,o),
(87,548,cs),
(86,546,ls),
(86,520,o),
(67,507,o),
(37,502,cs),
(29,500,o),
(27,496,o),
(28,493,cs),
(27,487,o),
(33,483,o),
(36,481,cs),
(60,481,ls),
(75,480,o),
(83,474,o),
(86,457,cs),
(86,69,ls)
);
},
{
closed = 1;
nodes = (
(488,-2,ls),
(496,-2,o),
(501,3,o),
(503,13,cs),
(504,16,o),
(496,23,o),
(493,24,cs),
(462,27,ls),
(434,27,o),
(429,37,o),
(431,69,cs),
(432,337,ls),
(429,406,o),
(481,469,o),
(544,469,cs),
(588,469,o),
(611,447,o),
(613,379,cs),
(614,65,ls),
(611,37,o),
(608,31,o),
(577,27,cs),
(563,24,ls),
(555,24,o),
(554,15,o),
(552,9,cs),
(554,3,o),
(555,-1,o),
(566,-2,cs),
(736,2,ls),
(741,-1,o),
(745,3,o),
(745,13,cs),
(749,20,o),
(745,20,o),
(738,22,cs),
(713,24,ls),
(685,28,o),
(681,40,o),
(678,65,cs),
(678,393,ls),
(679,474,o),
(640,518,o),
(581,518,cs),
(534,518,o),
(503,502,o),
(449,456,cs),
(438,446,o),
(431,446,o),
(432,460,cs),
(429,723,ls),
(432,733,o),
(427,742,o),
(420,739,cs),
(411,738,o),
(405,738,o),
(397,728,cs),
(376,720,o),
(351,709,o),
(317,698,cs),
(308,697,o),
(307,696,o),
(307,686,cs),
(306,680,o),
(308,675,o),
(314,675,cs),
(335,671,ls),
(358,668,o),
(364,662,o),
(360,639,cs),
(360,69,ls),
(364,38,o),
(355,30,o),
(326,23,cs),
(313,22,ls),
(309,23,o),
(304,15,o),
(304,9,cs),
(301,7,o),
(307,2,o),
(317,-2,cs)
);
}
);
};
layerId = m01;
shapes = (
{
closed = 1;
nodes = (
(202,2,ls),
(215,-2,o),
(216,5,o),
(217,10,cs),
(216,17,o),
(213,24,o),
(206,24,cs),
(181,28,ls),
(161,27,o),
(152,41,o),
(151,68,cs),
(154,468,ls),
(155,479,o),
(157,481,o),
(164,481,cs),
(250,480,ls),
(261,481,o),
(265,486,o),
(265,495,cs),
(265,503,o),
(258,511,o),
(250,511,cs),
(167,512,ls),
(157,511,o),
(151,517,o),
(155,524,cs),
(155,592,ls),
(155,690,o),
(197,724,o),
(247,724,cs),
(312,722,o),
(337,669,o),
(337,605,cs),
(337,69,ls),
(334,40,o),
(328,28,o),
(303,26,cs),
(286,22,ls),
(279,24,o),
(275,15,o),
(275,10,cs),
(278,6,o),
(280,-1,o),
(289,2,cs),
(461,2,ls),
(469,-1,o),
(474,2,o),
(476,12,cs),
(477,17,o),
(472,24,o),
(465,21,cs),
(435,25,ls),
(407,31,o),
(404,37,o),
(405,65,cs),
(402,336,ls),
(405,406,o),
(451,471,o),
(518,472,cs),
(559,472,o),
(587,445,o),
(587,383,cs),
(586,68,ls),
(587,38,o),
(580,31,o),
(549,24,cs),
(535,21,ls),
(532,24,o),
(528,15,o),
(528,12,cs),
(528,7,o),
(531,2,o),
(538,-2,cs),
(706,1,ls),
(716,-1,o),
(721,6,o),
(722,12,cs),
(721,20,o),
(718,21,o),
(710,25,cs),
(689,27,ls),
(658,29,o),
(654,37,o),
(651,66,cs),
(655,394,ls),
(654,471,o),
(616,518,o),
(551,517,cs),
(510,515,o),
(476,503,o),
(423,457,cs),
(410,446,o),
(401,446,o),
(404,461,cs),
(404,723,ls),
(402,737,o),
(400,741,o),
(388,741,cs),
(376,744,o),
(375,737,o),
(364,714,cs),
(362,705,o),
(356,700,o),
(350,707,cs),
(324,736,o),
(295,746,o),
(254,747,cs),
(149,746,o),
(86,652,o),
(87,548,cs),
(86,546,ls),
(86,520,o),
(67,507,o),
(37,502,cs),
(29,500,o),
(27,496,o),
(28,493,cs),
(27,487,o),
(33,483,o),
(36,481,cs),
(60,481,ls),
(75,480,o),
(83,474,o),
(86,457,cs),
(86,69,ls),
(87,38,o),
(78,29,o),
(48,23,cs),
(28,24,ls),
(15,24,o),
(12,15,o),
(12,12,cs),
(15,2,o),
(16,2,o),
(30,-2,cs)
);
}
);
width = 731;
}
);
metricLeft = f;
metricRight = h;
},
{
glyphname = f_i;
kernLeft = f;
kernRight = i;
lastChange = "2023-02-22 10:41:05 +0000";
layers = (
{
anchors = (
{
name = bottom_1;
pos = (119,0);
},
{
name = bottom_2;
pos = (358,0);
},
{
name = caret_1;
pos = (238.5,0);
},
{
name = top_1;
pos = (119,740);
},
{
name = top_2;
pos = (358,740);
}
);
background = {
shapes = (
{
closed = 1;
nodes = (
(87,38,o),
(80,28,o),
(49,27,cs),
(28,24,ls),
(15,24,o),
(12,15,o),
(12,12,cs),
(15,2,o),
(16,2,o),
(30,-2,cs),
(235,-1,ls),
(244,-1,o),
(252,6,o),
(249,10,cs),
(249,19,o),
(248,23,o),
(241,21,cs),
(188,26,ls),
(157,29,o),
(152,41,o),
(151,68,cs),
(154,468,ls),
(155,479,o),
(157,481,o),
(164,481,cs),
(250,480,ls),
(261,481,o),
(265,486,o),
(265,495,cs),
(265,503,o),
(258,511,o),
(250,511,cs),
(167,512,ls),
(157,511,o),
(151,517,o),
(155,524,cs),
(154,608,ls),
(155,690,o),
(167,719,o),
(195,715,cs),
(245,715,o),
(221,630,o),
(275,630,cs),
(300,633,o),
(311,647,o),
(314,672,cs),
(313,712,o),
(270,747,o),
(219,749,cs),
(134,749,o),
(86,652,o),
(87,548,cs),
(86,546,ls),
(86,520,o),
(67,507,o),
(37,502,cs),
(29,500,o),
(27,496,o),
(28,493,cs),
(27,487,o),
(33,483,o),
(36,481,cs),
(60,481,ls),
(75,480,o),
(83,474,o),
(86,457,cs),
(86,69,ls)
);
},
{
closed = 1;
nodes = (
(458,-1,ls),
(465,-1,o),
(470,2,o),
(474,11,cs),
(474,20,o),
(469,20,o),
(459,24,cs),
(434,27,ls),
(414,31,o),
(406,40,o),
(405,66,c),
(406,499,ls),
(406,508,o),
(402,512,o),
(397,514,cs),
(394,514,o),
(391,511,o),
(382,505,cs),
(357,481,o),
(336,469,o),
(294,459,cs),
(284,461,o),
(282,455,o),
(278,448,cs),
(278,443,o),
(285,439,o),
(292,438,cs),
(315,438,ls),
(335,431,o),
(337,426,o),
(338,405,cs),
(340,68,ls),
(341,40,o),
(331,28,o),
(299,26,cs),
(290,24,ls),
(278,22,o),
(277,18,o),
(273,9,cs),
(276,6,o),
(280,3,o),
(289,1,cs)
);
},
{
closed = 1;
nodes = (
(400,604,o),
(425,626,o),
(422,657,cs),
(425,687,o),
(401,709,o),
(373,712,cs),
(348,712,o),
(322,690,o),
(326,656,cs),
(323,628,o),
(345,603,o),
(372,603,cs)
);
}
);
};
layerId = m01;
shapes = (
{
closed = 1;
nodes = (
(202,2,ls),
(215,-2,o),
(216,5,o),
(217,10,cs),
(216,17,o),
(213,24,o),
(206,24,cs),
(181,28,ls),
(161,27,o),
(152,41,o),
(151,68,cs),
(154,468,ls),
(155,479,o),
(157,481,o),
(164,481,cs),
(318,480,ls),
(330,480,o),
(334,475,o),
(334,469,cs),
(332,66,ls),
(334,37,o),
(326,32,o),
(293,23,cs),
(284,21,ls),
(271,22,o),
(270,19,o),
(267,12,cs),
(267,2,o),
(273,-2,o),
(283,2,cs),
(452,2,ls),
(462,2,o),
(467,3,o),
(468,10,cs),
(468,19,o),
(464,23,o),
(453,25,cs),
(432,28,ls),
(410,28,o),
(403,40,o),
(399,65,cs),
(399,487,ls),
(400,502,o),
(393,509,o),
(379,511,cs),
(167,512,ls),
(157,511,o),
(151,517,o),
(155,524,cs),
(155,592,ls),
(155,690,o),
(196,720,o),
(246,717,cs),
(326,721,o),
(305,625,o),
(364,628,cs),
(392,625,o),
(405,644,o),
(404,667,cs),
(404,712,o),
(348,750,o),
(266,749,cs),
(149,746,o),
(86,652,o),
(87,548,cs),
(86,546,ls),
(86,520,o),
(67,507,o),
(37,502,cs),
(29,500,o),
(27,496,o),
(28,493,cs),
(27,487,o),
(33,483,o),
(36,481,cs),
(60,481,ls),
(75,480,o),
(83,474,o),
(86,457,cs),
(86,69,ls),
(87,38,o),
(78,29,o),
(48,23,cs),
(28,24,ls),
(15,24,o),
(12,15,o),
(12,12,cs),
(15,2,o),
(16,2,o),
(30,-2,cs)
);
}
);
width = 477;
}
);
metricLeft = f;
metricRight = i;
},
{
glyphname = f_l;
kernLeft = f;
kernRight = l;
lastChange = "2023-02-22 10:41:05 +0000";
layers = (
{
anchors = (
{
name = bottom_1;
pos = (120,0);
},
{
name = bottom_2;
pos = (361,0);
},
{
name = caret_1;
pos = (240.5,0);
},
{
name = top_1;
pos = (120,740);
},
{
name = top_2;
pos = (361,740);
}
);
layerId = m01;
shapes = (
{
closed = 1;
nodes = (
(202,2,ls),
(215,-2,o),
(216,5,o),
(217,10,cs),
(216,17,o),
(213,24,o),
(206,24,cs),
(181,28,ls),
(161,27,o),
(152,41,o),
(151,68,cs),
(154,468,ls),
(155,479,o),
(157,481,o),
(164,481,cs),
(250,480,ls),
(261,481,o),
(265,486,o),
(265,495,cs),
(265,503,o),
(258,511,o),
(250,511,cs),
(167,512,ls),
(157,511,o),
(151,517,o),
(155,524,cs),
(155,592,ls),
(155,690,o),
(197,724,o),
(247,724,cs),
(312,722,o),
(337,669,o),
(337,605,cs),
(337,69,ls),
(334,40,o),
(324,28,o),
(293,23,cs),
(278,24,ls),
(274,23,o),
(270,19,o),
(267,12,cs),
(270,6,o),
(273,-2,o),
(280,-1,cs),
(461,-1,ls),
(465,-1,o),
(470,3,o),
(470,13,cs),
(469,16,o),
(466,21,o),
(458,24,cs),
(435,25,ls),
(410,28,o),
(404,37,o),
(405,65,cs),
(404,723,ls),
(402,737,o),
(400,741,o),
(388,741,cs),
(376,744,o),
(375,737,o),
(364,714,cs),
(362,705,o),
(356,700,o),
(350,707,cs),
(324,736,o),
(295,746,o),
(254,747,cs),
(149,746,o),
(86,652,o),
(87,548,cs),
(86,546,ls),
(86,520,o),
(67,507,o),
(37,502,cs),
(29,500,o),
(27,496,o),
(28,493,cs),
(27,487,o),
(33,483,o),
(36,481,cs),
(60,481,ls),
(75,480,o),
(83,474,o),
(86,457,cs),
(86,69,ls),
(87,38,o),
(78,29,o),
(48,23,cs),
(28,24,ls),
(15,24,o),
(12,15,o),
(12,12,cs),
(15,2,o),
(16,2,o),
(30,-2,cs)
);
}
);
width = 481;
}
);
metricLeft = f;
metricRight = l;
},
{
glyphname = q_j;
lastChange = "2023-02-22 10:41:05 +0000";
layers = (
{
anchors = (
{
name = bottom_1;
pos = (164,0);
},
{
name = bottom_2;
pos = (493,0);
},
{
name = caret_1;
pos = (328.5,0);
},
{
name = top_1;
pos = (164,510);
},
{
name = top_2;
pos = (493,510);
}
);
layerId = m01;
shapes = (
{
closed = 1;
nodes = (
(347,-205,ls),
(362,-205,o),
(371,-196,o),
(371,-181,cs),
(372,349,ls),
(369,425,o),
(372,470,o),
(377,503,cs),
(383,513,o),
(379,515,o),
(373,514,cs),
(364,514,o),
(360,511,o),
(348,500,cs),
(336,481,o),
(324,481,o),
(307,492,cs),
(281,507,o),
(260,518,o),
(234,514,cs),
(117,518,o),
(28,401,o),
(32,234,cs),
(31,87,o),
(92,-9,o),
(181,-9,cs),
(223,-9,o),
(248,7,o),
(284,48,cs),
(290,63,o),
(305,58,o),
(304,44,cs),
(303,-138,ls),
(303,-166,o),
(297,-173,o),
(269,-177,cs),
(232,-182,ls),
(225,-183,o),
(221,-187,o),
(221,-193,cs),
(221,-201,o),
(226,-205,o),
(236,-205,cs)
);
},
{
closed = 1;
nodes = (
(143,39,o),
(106,111,o),
(102,245,cs),
(105,395,o),
(153,492,o),
(230,490,cs),
(275,492,o),
(304,456,o),
(305,395,cs),
(304,170,ls),
(302,94,o),
(256,36,o),
(202,36,cs)
);
},
{
closed = 1;
nodes = (
(533,-215,o),
(589,-116,o),
(588,46,cs),
(591,500,ls),
(591,511,o),
(587,512,o),
(578,514,cs),
(573,515,o),
(572,511,o),
(566,506,cs),
(540,483,o),
(518,465,o),
(480,459,cs),
(468,458,o),
(460,455,o),
(463,449,cs),
(463,445,o),
(463,439,o),
(476,440,cs),
(497,435,ls),
(513,432,o),
(519,425,o),
(523,404,cs),
(521,-91,ls),
(521,-144,o),
(507,-175,o),
(482,-175,cs),
(446,-175,o),
(460,-119,o),
(418,-119,cs),
(394,-119,o),
(379,-138,o),
(379,-161,cs),
(379,-193,o),
(407,-215,o),
(446,-215,cs)
);
},
{
closed = 1;
nodes = (
(586,606,o),
(607,628,o),
(607,660,cs),
(607,690,o),
(583,712,o),
(555,711,cs),
(525,708,o),
(508,690,o),
(505,660,cs),
(507,626,o),
(525,606,o),
(555,607,cs)
);
}
);
width = 657;
}
);
metricLeft = q;
metricRight = j;
},
{
glyphname = ordfeminine;
lastChange = "2023-08-18 20:35:28 +0000";
layers = (
{
layerId = m01;
shapes = (
{
closed = 1;
nodes = (
(148,365,o),
(172,380,o),
(202,411,cs),
(208,417,o),
(215,416,o),
(219,408,cs),
(221,385,o),
(237,365,o),
(265,362,cs),
(297,364,o),
(329,392,o),
(328,457,cs),
(332,469,o),
(324,476,o),
(317,474,cs),
(312,476,o),
(304,470,o),
(304,462,cs),
(304,422,o),
(297,408,o),
(281,407,cs),
(273,405,o),
(266,413,o),
(266,434,cs),
(263,649,ls),
(264,702,o),
(235,732,o),
(185,732,cs),
(117,732,o),
(39,674,o),
(41,619,cs),
(39,604,o),
(50,598,o),
(65,598,cs),
(85,595,o),
(100,609,o),
(104,640,cs),
(114,683,o),
(141,703,o),
(168,703,cs),
(191,705,o),
(210,685,o),
(209,643,cs),
(210,589,ls),
(210,584,o),
(209,580,o),
(199,578,cs),
(102,547,o),
(35,497,o),
(33,429,cs),
(35,390,o),
(65,362,o),
(110,364,cs)
);
},
{
closed = 1;
nodes = (
(108,400,o),
(93,417,o),
(90,445,cs),
(94,493,o),
(127,528,o),
(193,552,cs),
(204,552,o),
(209,549,o),
(209,541,cs),
(209,499,ls),
(212,442,o),
(175,399,o),
(134,400,cs)
);
}
);
width = 364;
}
);
unicode = 170;
},
{
glyphname = ordmasculine;
lastChange = "2023-08-18 20:36:01 +0000";
layers = (
{
layerId = m01;
shapes = (
{
closed = 1;
nodes = (
(268,361,o),
(329,442,o),
(330,548,cs),
(330,649,o),
(264,728,o),
(186,729,cs),
(106,728,o),
(42,651,o),
(42,548,cs),
(41,444,o),
(101,361,o),
(186,362,cs)
);
},
{
closed = 1;
nodes = (
(129,388,o),
(99,440,o),
(102,545,cs),
(100,653,o),
(129,708,o),
(186,707,cs),
(238,704,o),
(267,654,o),
(266,545,cs),
(267,439,o),
(243,385,o),
(183,388,cs)
);
}
);
width = 368;
}
);
metricLeft = O;
metricRight = O;
unicode = 186;
},
{
glyphname = zero;
lastChange = "2023-08-31 19:16:14 +0000";
layers = (
{
background = {
shapes = (
{
closed = 1;
nodes = (
(38,358,ls),
(37,99,o),
(145,-9,o),
(229,-9,cs),
(313,-9,o),
(423,100,o),
(422,359,cs),
(423,624,o),
(315,732,o),
(227,728,cs),
(147,729,o),
(35,621,o),
(37,359,cs)
);
},
{
closed = 1;
nodes = (
(119,361,ls),
(115,605,o),
(152,704,o),
(231,701,cs),
(306,701,o),
(340,605,o),
(339,362,cs),
(339,116,o),
(306,15,o),
(228,18,cs),
(149,15,o),
(115,115,o),
(119,357,cs)
);
}
);
};
layerId = m01;
shapes = (
{
closed = 1;
nodes = (
(346,-9,o),
(425,155,o),
(422,359,cs),
(426,566,o),
(344,732,o),
(231,732,cs),
(112,732,o),
(35,567,o),
(37,359,cs),
(38,155,o),
(113,-9,o),
(230,-9,cs)
);
},
{
closed = 1;
nodes = (
(147,16,o),
(109,129,o),
(110,363,cs),
(109,589,o),
(148,701,o),
(231,701,cs),
(316,702,o),
(351,592,o),
(350,360,cs),
(351,128,o),
(313,16,o),
(229,19,cs)
);
}
);
width = 460;
}
);
unicode = 48;
},
{
glyphname = one;
lastChange = "2023-08-31 19:17:48 +0000";
layers = (
{
layerId = m01;
shapes = (
{
closed = 1;
nodes = (
(225,2,ls),
(236,-2,o),
(237,5,o),
(238,13,cs),
(238,15,o),
(234,23,o),
(227,21,cs),
(194,25,ls),
(166,28,o),
(158,40,o),
(155,68,cs),
(159,711,ls),
(156,729,o),
(152,734,o),
(138,733,cs),
(118,737,o),
(93,722,o),
(20,710,cs),
(11,706,o),
(7,703,o),
(3,697,cs),
(3,686,o),
(13,680,o),
(22,681,cs),
(60,688,ls),
(80,690,o),
(95,685,o),
(92,661,cs),
(94,64,ls),
(92,39,o),
(84,32,o),
(58,28,cs),
(17,25,ls),
(7,21,o),
(3,18,o),
(6,9,cs),
(4,3,o),
(12,2,o),
(18,2,cs)
);
}
);
width = 249;
}
);
unicode = 49;
},
{
glyphname = two;
lastChange = "2023-08-31 19:14:36 +0000";
layers = (
{
background = {
shapes = (
{
closed = 1;
nodes = (
(362,554,ls),
(360,664,o),
(299,729,o),
(195,731,cs),
(80,728,o),
(22,630,o),
(23,543,cs),
(22,525,o),
(32,524,o),
(37,523,cs),
(47,524,o),
(51,529,o),
(54,544,cs),
(54,596,o),
(89,692,o),
(173,693,cs),
(238,692,o),
(277,643,o),
(278,552,cs),
(278,465,o),
(256,382,o),
(151,221,cs),
(118,171,o),
(85,118,o),
(49,70,cs),
(42,58,o),
(20,24,o),
(22,14,cs),
(19,3,o),
(26,3,o),
(33,-1,cs),
(266,2,ls),
(280,3,o),
(296,-1,o),
(312,-2,cs),
(331,-3,o),
(349,-4,o),
(351,-4,cs),
(364,-4,o),
(371,-1,o),
(367,20,cs),
(368,175,ls),
(371,205,o),
(362,214,o),
(359,214,cs),
(344,213,o),
(343,198,o),
(340,165,cs),
(325,103,o),
(299,81,o),
(238,76,cs),
(213,71,o),
(174,70,o),
(123,68,cs),
(99,68,o),
(88,69,o),
(90,80,cs),
(91,85,o),
(104,114,o),
(117,130,cs),
(148,181,o),
(190,228,o),
(220,275,cs),
(277,356,o),
(363,448,o),
(359,553,cs)
);
}
);
};
guides = (
{
pos = (82,730);
}
);
layerId = m01;
shapes = (
{
closed = 1;
nodes = (
(342,-1,ls),
(355,-1,o),
(364,7,o),
(364,24,cs),
(377,209,ls),
(381,221,o),
(371,226,o),
(368,229,cs),
(356,227,o),
(355,222,o),
(352,216,cs),
(343,167,ls),
(326,78,o),
(291,61,o),
(218,62,cs),
(108,59,ls),
(96,62,o),
(84,69,o),
(95,81,cs),
(171,202,ls),
(282,363,o),
(359,466,o),
(360,575,cs),
(360,673,o),
(299,731,o),
(204,732,cs),
(123,729,o),
(38,687,o),
(24,552,cs),
(25,544,o),
(31,533,o),
(40,532,cs),
(44,536,o),
(50,539,o),
(54,551,cs),
(65,646,o),
(124,689,o),
(191,692,cs),
(255,689,o),
(288,642,o),
(290,563,cs),
(291,471,o),
(249,367,o),
(148,213,cs),
(29,32,ls),
(20,24,o),
(22,20,o),
(22,14,cs),
(19,5,o),
(27,1,o),
(39,1,cs)
);
}
);
width = 404;
}
);
unicode = 50;
},
{
glyphname = three;
lastChange = "2023-08-31 19:18:42 +0000";
layers = (
{
background = {
shapes = (
{
closed = 1;
nodes = (
(341,252,ls),
(341,373,o),
(265,443,o),
(185,443,cs),
(168,443,o),
(155,438,o),
(149,435,cs),
(146,434,o),
(145,438,o),
(142,439,cs),
(144,443,o),
(149,446,o),
(159,456,cs),
(175,469,o),
(200,489,o),
(233,518,cs),
(278,552,o),
(302,592,o),
(302,635,cs),
(302,697,o),
(248,731,o),
(188,732,cs),
(78,732,o),
(47,620,o),
(43,596,cs),
(48,588,o),
(48,579,o),
(57,582,cs),
(68,579,o),
(65,607,o),
(79,632,cs),
(95,671,o),
(129,697,o),
(165,695,cs),
(207,698,o),
(228,671,o),
(227,623,cs),
(228,544,o),
(171,497,o),
(113,446,cs),
(91,427,o),
(72,404,o),
(54,383,cs),
(46,382,o),
(42,372,o),
(44,366,cs),
(44,360,o),
(47,355,o),
(53,357,cs),
(57,354,o),
(59,362,o),
(65,363,cs),
(81,379,o),
(105,400,o),
(143,401,cs),
(216,400,o),
(274,333,o),
(274,215,cs),
(274,104,o),
(216,16,o),
(140,16,cs),
(113,13,o),
(98,17,o),
(90,48,cs),
(87,70,o),
(81,94,o),
(53,98,cs),
(34,94,o),
(19,84,o),
(20,57,cs),
(23,26,o),
(56,-9,o),
(122,-9,cs),
(259,-9,o),
(340,134,o),
(341,248,cs)
);
}
);
};
layerId = m01;
shapes = (
{
closed = 1;
nodes = (
(242,-9,o),
(340,106,o),
(342,234,cs),
(339,354,o),
(278,440,o),
(186,439,cs),
(175,443,o),
(160,437,o),
(153,434,cs),
(143,432,o),
(143,440,o),
(149,446,cs),
(172,462,ls),
(256,521,o),
(301,573,o),
(301,630,cs),
(301,689,o),
(253,729,o),
(187,731,cs),
(112,728,o),
(54,674,o),
(43,596,cs),
(42,584,o),
(47,574,o),
(54,575,cs),
(66,578,o),
(71,583,o),
(69,589,cs),
(79,657,o),
(116,694,o),
(170,698,cs),
(210,694,o),
(229,669,o),
(232,619,cs),
(233,574,o),
(207,527,o),
(149,476,cs),
(77,406,ls),
(68,397,o),
(62,387,o),
(65,385,cs),
(74,378,o),
(78,380,o),
(89,384,cs),
(112,398,o),
(133,406,o),
(161,406,cs),
(230,403,o),
(267,342,o),
(271,213,cs),
(270,95,o),
(215,20,o),
(143,19,cs),
(70,20,o),
(108,94,o),
(58,98,cs),
(33,94,o),
(18,83,o),
(18,59,cs),
(22,20,o),
(65,-9,o),
(135,-9,cs)
);
}
);
width = 371;
}
);
unicode = 51;
},
{
glyphname = four;
lastChange = "2023-08-31 19:18:03 +0000";
layers = (
{
background = {
shapes = (
{
closed = 1;
nodes = (
(366,-2,ls),
(373,2,o),
(380,3,o),
(378,9,cs),
(377,15,o),
(377,19,o),
(364,24,cs),
(342,26,ls),
(316,30,o),
(308,39,o),
(308,68,cs),
(308,505,ls),
(311,517,o),
(300,517,o),
(293,514,cs),
(257,490,ls),
(250,487,o),
(243,484,o),
(243,477,cs),
(244,68,ls),
(243,41,o),
(241,32,o),
(209,27,cs),
(166,22,ls),
(160,21,o),
(153,15,o),
(154,9,cs),
(156,5,o),
(158,1,o),
(169,-1,cs)
);
},
{
closed = 1;
nodes = (
(9,235,l),
(9,208,l),
(378,212,l),
(381,268,l),
(32,265,l)
);
},
{
closed = 1;
nodes = (
(9,235,l),
(42,235,l),
(303,722,l),
(275,721,l)
);
}
);
};
layerId = m01;
shapes = (
{
closed = 1;
nodes = (
(366,-2,ls),
(373,2,o),
(380,3,o),
(378,9,cs),
(377,15,o),
(377,19,o),
(364,24,cs),
(342,26,ls),
(316,30,o),
(308,39,o),
(308,68,cs),
(310,198,ls),
(307,204,o),
(316,211,o),
(325,211,cs),
(366,212,ls),
(372,208,o),
(380,214,o),
(381,220,cs),
(377,253,ls),
(381,263,o),
(376,264,o),
(369,264,cs),
(322,268,ls),
(315,265,o),
(310,269,o),
(310,282,cs),
(308,505,ls),
(311,517,o),
(300,517,o),
(293,514,cs),
(257,490,ls),
(250,487,o),
(243,484,o),
(243,477,cs),
(244,279,ls),
(247,270,o),
(238,268,o),
(232,265,cs),
(71,264,ls),
(65,264,o),
(62,270,o),
(63,279,cs),
(305,701,ls),
(311,711,o),
(304,721,o),
(294,721,cs),
(274,721,ls),
(270,719,o),
(264,718,o),
(261,709,cs),
(21,251,ls),
(15,241,o),
(12,232,o),
(9,226,cs),
(9,218,o),
(16,209,o),
(30,208,cs),
(233,208,ls),
(239,212,o),
(244,207,o),
(243,195,cs),
(244,68,ls),
(243,41,o),
(241,32,o),
(209,27,cs),
(166,22,ls),
(160,21,o),
(153,15,o),
(154,9,cs),
(156,5,o),
(158,1,o),
(169,-1,cs)
);
}
);
width = 393;
}
);
unicode = 52;
},
{
glyphname = five;
lastChange = "2023-08-31 19:18:50 +0000";
layers = (
{
background = {
shapes = (
{
closed = 1;
nodes = (
(237,-9,o),
(351,79,o),
(350,241,cs),
(347,370,o),
(275,470,o),
(109,479,c),
(109,449,l),
(151,675,l),
(129,721,l),
(71,414,l),
(218,406,o),
(275,349,o),
(278,217,cs),
(275,71,o),
(204,17,o),
(145,17,cs),
(67,19,o),
(91,97,o),
(45,94,cs),
(25,94,o),
(8,81,o),
(11,63,cs),
(12,13,o),
(77,-9,o),
(132,-9,cs)
);
},
{
closed = 1;
nodes = (
(340,659,l),
(358,711,ls),
(362,726,o),
(360,736,o),
(345,733,cs),
(331,734,o),
(324,719,o),
(257,719,cs),
(129,721,l),
(136,661,l)
);
}
);
};
layerId = m01;
shapes = (
{
closed = 1;
nodes = (
(237,-9,o),
(351,79,o),
(350,228,cs),
(347,356,o),
(279,459,o),
(126,477,cs),
(113,479,o),
(112,486,o),
(113,493,cs),
(143,649,ls),
(142,654,o),
(146,659,o),
(154,659,cs),
(320,662,ls),
(330,658,o),
(336,663,o),
(338,671,cs),
(349,725,ls),
(353,733,o),
(351,746,o),
(340,744,cs),
(327,746,o),
(326,718,o),
(293,719,cs),
(134,719,ls),
(125,718,o),
(124,714,o),
(122,708,cs),
(66,432,ls),
(66,419,o),
(68,415,o),
(77,413,cs),
(222,401,o),
(275,337,o),
(276,209,cs),
(275,71,o),
(204,17,o),
(145,17,cs),
(67,19,o),
(91,97,o),
(45,94,cs),
(25,94,o),
(8,81,o),
(11,63,cs),
(12,13,o),
(77,-9,o),
(132,-9,cs)
);
}
);
width = 382;
}
);
unicode = 53;
},
{
glyphname = six;
lastChange = "2023-08-31 19:18:12 +0000";
layers = (
{
background = {
shapes = (
{
closed = 1;
nodes = (
(300,-9,o),
(374,99,o),
(378,231,cs),
(378,359,o),
(304,458,o),
(213,454,cs),
(156,457,o),
(116,426,o),
(91,377,c),
(119,391,l),
(147,560,o),
(217,661,o),
(349,706,cs),
(356,705,o),
(360,711,o),
(360,719,cs),
(360,726,o),
(354,734,o),
(340,731,cs),
(172,686,o),
(34,479,o),
(37,259,cs),
(37,101,o),
(105,-9,o),
(206,-9,cs)
);
},
{
closed = 1;
nodes = (
(140,20,o),
(109,85,o),
(110,217,cs),
(107,359,o),
(144,432,o),
(212,432,cs),
(273,430,o),
(302,368,o),
(305,225,cs),
(306,86,o),
(272,20,o),
(206,16,cs)
);
}
);
};
layerId = m01;
shapes = (
{
closed = 1;
nodes = (
(300,-9,o),
(374,99,o),
(378,231,cs),
(378,359,o),
(304,458,o),
(213,454,cs),
(184,454,o),
(162,448,o),
(141,433,cs),
(133,430,o),
(126,430,o),
(130,441,cs),
(161,579,o),
(234,663,o),
(349,706,cs),
(356,705,o),
(360,711,o),
(360,719,cs),
(360,726,o),
(354,734,o),
(340,731,cs),
(172,686,o),
(34,479,o),
(37,259,cs),
(37,101,o),
(105,-9,o),
(206,-9,cs)
);
},
{
closed = 1;
nodes = (
(137,20,o),
(104,83,o),
(103,217,cs),
(100,357,o),
(140,429,o),
(210,430,cs),
(275,429,o),
(302,368,o),
(305,225,cs),
(306,86,o),
(273,17,o),
(203,20,cs)
);
}
);
width = 404;
}
);
unicode = 54;
},
{
glyphname = seven;
lastChange = "2023-08-31 19:19:00 +0000";
layers = (
{
background = {
shapes = (
{
closed = 1;
nodes = (
(133,2,l),
(362,698,l),
(333,698,l),
(85,1,l)
);
},
{
closed = 1;
nodes = (
(42,637,o),
(43,662,o),
(76,661,cs),
(330,659,l),
(362,698,l),
(362,719,l),
(47,722,ls),
(39,719,o),
(37,714,o),
(35,707,cs),
(17,658,ls),
(14,647,o),
(18,637,o),
(26,634,cs)
);
}
);
};
layerId = m01;
shapes = (
{
closed = 1;
nodes = (
(122,1,ls),
(133,-2,o),
(137,4,o),
(140,12,cs),
(350,676,ls),
(357,692,o),
(358,702,o),
(359,707,cs),
(359,714,o),
(357,722,o),
(345,722,cs),
(47,722,ls),
(39,719,o),
(37,714,o),
(35,707,cs),
(17,658,ls),
(14,647,o),
(18,637,o),
(26,634,cs),
(42,637,o),
(43,662,o),
(76,661,cs),
(302,661,ls),
(308,658,o),
(316,656,o),
(310,645,cs),
(86,17,ls),
(87,7,o),
(91,2,o),
(97,-1,cs)
);
}
);
width = 364;
}
);
unicode = 55;
},
{
glyphname = eight;
lastChange = "2023-08-31 19:16:02 +0000";
layers = (
{
background = {
shapes = (
{
closed = 1;
nodes = (
(115,17,o),
(85,94,o),
(81,170,cs),
(81,258,o),
(119,323,o),
(198,365,c),
(189,377,l),
(84,335,o),
(21,263,o),
(18,171,cs),
(21,83,o),
(92,-9,o),
(215,-9,cs),
(327,-9,o),
(416,73,o),
(412,184,cs),
(415,269,o),
(366,336,o),
(245,403,cs),
(129,466,o),
(109,524,o),
(109,592,cs),
(105,657,o),
(156,704,o),
(228,702,cs),
(301,701,o),
(335,652,o),
(333,574,cs),
(336,504,o),
(299,437,o),
(238,407,c),
(245,389,l),
(334,426,o),
(395,496,o),
(397,572,cs),
(398,664,o),
(324,728,o),
(231,732,cs),
(129,732,o),
(43,665,o),
(46,562,cs),
(46,487,o),
(95,409,o),
(199,355,cs),
(312,300,o),
(353,228,o),
(353,153,cs),
(353,72,o),
(303,19,o),
(216,17,cs)
);
}
);
};
layerId = m01;
shapes = (
{
closed = 1;
nodes = (
(322,-9,o),
(407,73,o),
(404,185,cs),
(404,262,o),
(370,324,o),
(269,388,cs),
(261,390,o),
(265,397,o),
(272,405,cs),
(341,440,o),
(386,502,o),
(386,574,cs),
(390,661,o),
(320,728,o),
(227,728,cs),
(134,728,o),
(52,661,o),
(52,566,cs),
(51,498,o),
(87,434,o),
(162,382,cs),
(169,377,o),
(171,371,o),
(163,363,cs),
(75,318,o),
(30,257,o),
(27,171,cs),
(27,83,o),
(98,-9,o),
(215,-9,cs)
);
},
{
closed = 1;
nodes = (
(123,17,o),
(87,94,o),
(90,168,cs),
(90,248,o),
(121,313,o),
(179,351,cs),
(188,358,o),
(196,357,o),
(205,351,cs),
(285,308,o),
(347,253,o),
(347,149,cs),
(345,69,o),
(298,20,o),
(216,17,cs)
);
},
{
closed = 1;
nodes = (
(130,473,o),
(110,531,o),
(114,591,cs),
(114,660,o),
(156,705,o),
(228,702,cs),
(296,704,o),
(331,652,o),
(330,578,cs),
(327,511,o),
(301,453,o),
(251,417,cs),
(241,410,o),
(233,408,o),
(228,413,cs)
);
}
);
width = 433;
}
);
unicode = 56;
},
{
glyphname = nine;
lastChange = "2023-08-31 19:19:08 +0000";
layers = (
{
background = {
shapes = (
{
closed = 1;
nodes = (
(240,31,o),
(368,209,o),
(364,461,cs),
(367,619,o),
(299,731,o),
(195,731,cs),
(101,728,o),
(28,624,o),
(25,500,cs),
(27,380,o),
(94,284,o),
(192,286,cs),
(245,283,o),
(289,315,o),
(311,366,c),
(287,353,l),
(266,161,o),
(195,59,o),
(84,16,cs),
(77,14,o),
(72,12,o),
(69,2,cs),
(71,-4,o),
(77,-11,o),
(90,-8,cs)
);
},
{
closed = 1;
nodes = (
(125,309,o),
(99,373,o),
(99,505,cs),
(100,636,o),
(131,704,o),
(196,702,cs),
(259,704,o),
(292,639,o),
(292,511,cs),
(296,385,o),
(258,311,o),
(189,311,cs)
);
}
);
};
layerId = m01;
shapes = (
{
closed = 1;
nodes = (
(240,31,o),
(368,209,o),
(364,461,cs),
(367,619,o),
(299,731,o),
(195,731,cs),
(101,728,o),
(28,624,o),
(25,500,cs),
(27,380,o),
(94,284,o),
(192,286,cs),
(221,284,o),
(247,294,o),
(264,308,cs),
(272,316,o),
(278,311,o),
(276,300,cs),
(250,146,o),
(183,54,o),
(84,16,cs),
(77,14,o),
(72,12,o),
(69,2,cs),
(71,-4,o),
(77,-11,o),
(90,-8,cs)
);
},
{
closed = 1;
nodes = (
(100,636,o),
(131,704,o),
(196,702,cs),
(259,704,o),
(292,639,o),
(292,511,cs),
(296,385,o),
(258,311,o),
(189,311,cs),
(125,309,o),
(99,373,o),
(99,505,cs)
);
}
);
width = 402;
}
);
unicode = 57;
},
{
glyphname = period;
kernLeft = period;
kernRight = period;
lastChange = "2023-08-31 20:12:01 +0000";
layers = (
{
layerId = m01;
shapes = (
{
closed = 1;
nodes = (
(134,-9,o),
(157,14,o),
(160,45,cs),
(161,75,o),
(132,97,o),
(109,97,cs),
(78,97,o),
(55,73,o),
(53,46,cs),
(56,10,o),
(77,-9,o),
(107,-9,cs)
);
}
);
width = 213;
}
);
unicode = 46;
},
{
glyphname = comma;
kernLeft = period;
kernRight = period;
lastChange = "2023-08-31 20:13:38 +0000";
layers = (
{
layerId = m01;
shapes = (
{
closed = 1;
nodes = (
(126,-112,o),
(163,-42,o),
(162,28,cs),
(161,69,o),
(143,94,o),
(110,97,cs),
(80,95,o),
(62,74,o),
(60,50,cs),
(63,4,o),
(112,6,o),
(113,-35,cs),
(113,-71,o),
(99,-102,o),
(60,-141,cs),
(52,-149,o),
(52,-156,o),
(57,-160,cs),
(62,-164,o),
(69,-163,o),
(76,-156,cs)
);
}
);
width = 217;
}
);
unicode = 44;
},
{
glyphname = exclam;
lastChange = "2023-02-01 19:18:34 +0000";
layers = (
{
background = {
shapes = (
{
closed = 1;
nodes = (
(123,178,ls),
(131,180,o),
(131,192,o),
(135,235,cs),
(133,260,o),
(136,297,o),
(139,351,cs),
(157,596,o),
(162,644,o),
(161,672,cs),
(159,728,o),
(156,748,o),
(120,749,cs),
(86,751,o),
(81,725,o),
(83,673,cs),
(81,644,o),
(85,594,o),
(103,348,cs),
(105,288,o),
(105,252,o),
(110,222,cs),
(108,190,o),
(114,177,o),
(121,178,cs)
);
},
{
closed = 1;
nodes = (
(121,-12,ls),
(146,-12,o),
(158,16,o),
(161,42,cs),
(162,68,o),
(145,100,o),
(120,97,cs),
(94,100,o),
(81,69,o),
(84,42,cs),
(81,18,o),
(96,-12,o),
(120,-12,cs)
);
}
);
};
guides = (
{
angle = 90;
pos = (64,192);
},
{
angle = 90;
pos = (169,192);
}
);
layerId = m01;
shapes = (
{
closed = 1;
nodes = (
(126,177,o),
(130,183,o),
(131,197,cs),
(129,369,o),
(164,638,o),
(165,695,cs),
(165,726,o),
(148,751,o),
(118,748,cs),
(86,751,o),
(73,728,o),
(69,692,cs),
(70,641,o),
(105,372,o),
(104,196,cs),
(106,183,o),
(111,178,o),
(118,181,cs)
);
},
{
pos = (10,0);
ref = period;
}
);
width = 237;
}
);
unicode = 33;
},
{
glyphname = exclamdown;
lastChange = "2023-02-01 19:15:39 +0000";
layers = (
{
layerId = m01;
shapes = (
{
closed = 1;
nodes = (
(150,-215,o),
(167,-192,o),
(167,-159,cs),
(167,-104,o),
(137,142,o),
(132,318,cs),
(131,324,o),
(131,330,o),
(120,331,cs),
(115,330,o),
(111,327,o),
(107,314,cs),
(106,139,o),
(75,-104,o),
(75,-159,cs),
(75,-192,o),
(92,-215,o),
(121,-215,cs)
);
},
{
pos = (14,511);
ref = period;
scale = (1,-1);
}
);
width = 237;
}
);
metricLeft = "=|exclam";
metricRight = "=|exclam";
unicode = 161;
},
{
glyphname = question;
lastChange = "2023-02-01 19:14:29 +0000";
layers = (
{
background = {
shapes = (
{
closed = 1;
nodes = (
(29,674,ls),
(33,600,o),
(37,590,o),
(51,593,cs),
(66,592,o),
(73,622,o),
(84,656,cs),
(95,684,o),
(108,720,o),
(134,719,cs),
(165,720,o),
(192,671,o),
(196,596,cs),
(193,527,o),
(154,466,o),
(86,380,cs),
(75,367,o),
(72,363,o),
(69,310,cs),
(68,250,o),
(69,215,o),
(75,198,cs),
(76,177,o),
(83,171,o),
(86,171,cs),
(97,167,o),
(102,171,o),
(102,244,cs),
(101,269,o),
(100,267,o),
(115,294,cs),
(140,332,o),
(160,361,o),
(183,386,cs),
(217,434,o),
(239,476,o),
(236,557,cs),
(239,676,o),
(176,751,o),
(106,752,cs),
(51,751,o),
(35,743,o),
(30,707,cs),
(33,698,o),
(30,689,o),
(30,676,cs)
);
},
{
closed = 1;
nodes = (
(87,-12,ls),
(112,-12,o),
(124,16,o),
(124,45,cs),
(127,69,o),
(114,98,o),
(86,97,cs),
(64,98,o),
(50,73,o),
(47,43,cs),
(46,18,o),
(62,-12,o),
(86,-12,cs)
);
}
);
};
guides = (
{
pos = (192,750);
}
);
layerId = m01;
shapes = (
{
closed = 1;
nodes = (
(133,181,o),
(135,186,o),
(136,197,cs),
(142,343,ls),
(141,373,o),
(145,388,o),
(159,402,cs),
(198,438,ls),
(255,488,o),
(284,533,o),
(286,609,cs),
(284,700,o),
(229,751,o),
(139,752,cs),
(106,749,o),
(62,742,o),
(41,722,cs),
(36,716,o),
(33,713,o),
(29,699,cs),
(30,581,ls),
(29,570,o),
(34,565,o),
(40,564,cs),
(48,564,o),
(48,566,o),
(51,578,cs),
(83,676,o),
(108,719,o),
(169,719,cs),
(198,719,o),
(232,695,o),
(227,631,cs),
(229,565,o),
(205,535,o),
(161,493,cs),
(140,465,ls),
(112,441,o),
(106,417,o),
(106,370,cs),
(110,197,ls),
(111,186,o),
(115,180,o),
(123,178,cs)
);
},
{
pos = (16,0);
ref = period;
}
);
width = 317;
}
);
unicode = 63;
},
{
glyphname = questiondown;
lastChange = "2023-02-01 19:11:10 +0000";
layers = (
{
layerId = m01;
shapes = (
{
closed = 1;
nodes = (
(209,-215,o),
(254,-205,o),
(275,-188,cs),
(282,-182,o),
(286,-177,o),
(286,-166,cs),
(289,-45,ls),
(289,-34,o),
(285,-28,o),
(278,-28,cs),
(271,-28,o),
(268,-32,o),
(265,-42,cs),
(235,-140,o),
(207,-185,o),
(150,-185,cs),
(117,-185,o),
(89,-161,o),
(89,-95,cs),
(89,-28,o),
(111,0,o),
(157,42,cs),
(180,70,ls),
(204,94,o),
(212,118,o),
(210,162,cs),
(207,318,ls),
(203,329,o),
(201,330,o),
(194,331,cs),
(187,330,o),
(182,329,o),
(178,317,cs),
(174,196,ls),
(173,158,o),
(169,150,o),
(155,133,cs),
(116,101,ls),
(59,47,o),
(30,2,o),
(32,-76,cs),
(32,-164,o),
(87,-215,o),
(179,-215,cs)
);
},
{
angle = 180;
pos = (301,511);
ref = period;
}
);
width = 317;
}
);
metricLeft = "=|question";
metricRight = "=|question";
unicode = 191;
},
{
glyphname = asterisk;
kernLeft = asterisk;
kernRight = asterisk;
lastChange = "2023-02-23 20:03:46 +0000";
layers = (
{
background = {
shapes = (
{
closed = 1;
nodes = (
(225,418,ls),
(247,421,o),
(259,433,o),
(260,453,cs),
(259,490,o),
(230,545,o),
(227,561,cs),
(231,562,o),
(230,571,o),
(237,570,cs),
(252,568,o),
(265,550,o),
(279,529,cs),
(296,508,o),
(317,488,o),
(336,485,cs),
(358,485,o),
(370,504,o),
(373,520,cs),
(371,550,o),
(341,561,o),
(308,566,cs),
(273,570,o),
(240,568,o),
(243,586,cs),
(242,601,o),
(275,602,o),
(307,606,cs),
(337,609,o),
(373,616,o),
(373,646,cs),
(373,665,o),
(357,685,o),
(339,681,cs),
(317,682,o),
(296,665,o),
(282,644,cs),
(267,620,o),
(252,598,o),
(239,598,cs),
(234,602,o),
(231,606,o),
(231,608,cs),
(231,623,o),
(263,679,o),
(263,715,cs),
(263,735,o),
(244,747,o),
(225,748,cs),
(203,748,o),
(185,736,o),
(187,713,cs),
(182,681,o),
(219,624,o),
(219,612,cs),
(216,604,o),
(213,599,o),
(206,599,cs),
(197,599,o),
(183,622,o),
(166,642,cs),
(148,665,o),
(130,685,o),
(108,682,cs),
(89,685,o),
(73,664,o),
(72,647,cs),
(76,618,o),
(106,607,o),
(142,604,cs),
(173,603,o),
(206,601,o),
(206,582,cs),
(203,571,o),
(170,569,o),
(139,566,cs),
(109,561,o),
(76,553,o),
(72,519,cs),
(75,502,o),
(89,484,o),
(107,487,cs),
(129,488,o),
(151,506,o),
(164,526,cs),
(183,547,o),
(196,567,o),
(209,570,cs),
(212,571,o),
(219,566,o),
(216,560,cs),
(219,542,o),
(183,487,o),
(183,454,cs),
(187,433,o),
(202,418,o),
(221,421,cs)
);
}
);
};
layerId = m01;
shapes = (
{
closed = 1;
nodes = (
(248,414,o),
(263,433,o),
(262,457,cs),
(259,484,o),
(234,509,o),
(229,556,cs),
(230,567,o),
(236,567,o),
(239,564,cs),
(283,529,o),
(287,501,o),
(315,483,cs),
(333,476,o),
(352,480,o),
(368,497,cs),
(381,523,o),
(371,541,o),
(352,552,cs),
(323,570,o),
(292,554,o),
(246,579,cs),
(241,582,o),
(238,584,o),
(249,587,cs),
(295,612,o),
(324,598,o),
(352,611,cs),
(371,624,o),
(380,644,o),
(366,668,cs),
(353,690,o),
(329,693,o),
(312,679,cs),
(288,667,o),
(279,635,o),
(238,603,cs),
(232,595,o),
(230,601,o),
(231,610,cs),
(237,660,o),
(259,678,o),
(259,713,cs),
(260,732,o),
(246,752,o),
(223,751,cs),
(196,748,o),
(185,729,o),
(182,710,cs),
(182,681,o),
(206,657,o),
(215,607,cs),
(213,599,o),
(209,596,o),
(203,601,cs),
(161,635,o),
(156,666,o),
(128,679,cs),
(114,690,o),
(89,686,o),
(75,668,cs),
(66,646,o),
(72,625,o),
(93,614,cs),
(118,599,o),
(151,612,o),
(197,590,cs),
(206,588,o),
(203,579,o),
(195,575,cs),
(152,555,o),
(120,568,o),
(92,552,cs),
(72,545,o),
(66,519,o),
(79,498,cs),
(91,476,o),
(115,477,o),
(132,486,cs),
(157,499,o),
(164,528,o),
(204,561,cs),
(211,566,o),
(214,564,o),
(212,557,cs),
(206,508,o),
(182,488,o),
(182,454,cs),
(182,434,o),
(198,415,o),
(221,417,cs)
);
}
);
width = 444;
}
);
unicode = 42;
},
{
glyphname = numbersign;
lastChange = "2023-08-11 18:45:18 +0000";
layers = (
{
background = {
shapes = (
{
closed = 1;
nodes = (
(105,1,l),
(139,1,l),
(303,722,l),
(271,721,l)
);
},
{
closed = 1;
nodes = (
(329,1,l),
(364,-1,l),
(527,718,l),
(499,718,l)
);
},
{
closed = 1;
nodes = (
(72,461,l),
(616,461,l),
(614,491,l),
(71,488,l)
);
},
{
closed = 1;
nodes = (
(22,231,l),
(560,232,l),
(561,258,l),
(21,259,l)
);
}
);
};
layerId = m01;
shapes = (
{
closed = 1;
nodes = (
(139,1,l),
(186,215,ls),
(188,226,o),
(199,232,o),
(211,232,cs),
(366,231,ls),
(379,231,o),
(381,223,o),
(378,212,cs),
(329,1,l),
(364,-1,l),
(414,215,ls),
(416,222,o),
(420,229,o),
(432,229,cs),
(560,232,l),
(561,258,l),
(439,259,ls),
(428,258,o),
(423,268,o),
(428,275,cs),
(467,440,ls),
(469,452,o),
(473,462,o),
(485,461,cs),
(616,461,l),
(614,491,l),
(492,492,ls),
(484,492,o),
(479,497,o),
(479,506,cs),
(527,718,l),
(499,718,l),
(446,506,ls),
(446,497,o),
(440,491,o),
(425,489,cs),
(266,488,ls),
(256,488,o),
(254,497,o),
(253,509,cs),
(303,722,l),
(271,721,l),
(221,506,ls),
(222,497,o),
(211,488,o),
(200,489,cs),
(71,488,l),
(72,461,l),
(193,462,ls),
(204,462,o),
(208,453,o),
(207,441,cs),
(171,277,ls),
(169,268,o),
(161,258,o),
(149,258,cs),
(21,259,l),
(22,231,l),
(140,232,ls),
(154,229,o),
(156,223,o),
(154,211,cs),
(105,1,l)
);
},
{
closed = 1;
nodes = (
(203,258,o),
(202,268,o),
(204,275,cs),
(242,440,ls),
(244,454,o),
(249,458,o),
(261,461,cs),
(422,462,ls),
(431,462,o),
(437,456,o),
(434,444,cs),
(396,279,ls),
(393,268,o),
(384,261,o),
(371,258,cs),
(216,259,ls)
);
}
);
width = 635;
}
);
unicode = 35;
},
{
glyphname = slash;
lastChange = "2023-08-11 18:55:19 +0000";
layers = (
{
layerId = m01;
shapes = (
{
closed = 1;
nodes = (
(30,-130,ls),
(36,-130,o),
(40,-126,o),
(41,-121,cs),
(246,781,ls),
(247,784,o),
(245,792,o),
(241,792,cs),
(227,792,ls),
(223,789,o),
(220,784,o),
(215,783,cs),
(10,-119,ls),
(9,-125,o),
(11,-130,o),
(18,-130,cs)
);
}
);
width = 258;
}
);
unicode = 47;
},
{
glyphname = backslash;
lastChange = "2023-08-11 18:57:07 +0000";
layers = (
{
layerId = m01;
shapes = (
{
closed = 1;
nodes = (
(240,-130,ls),
(247,-130,o),
(249,-125,o),
(248,-119,cs),
(39,783,ls),
(39,784,o),
(34,788,o),
(32,792,cs),
(20,792,ls),
(13,791,o),
(10,783,o),
(8,777,cs),
(217,-121,ls),
(218,-126,o),
(222,-130,o),
(228,-130,cs)
);
}
);
width = 258;
}
);
unicode = 92;
},
{
glyphname = hyphen;
kernLeft = hyphen;
kernRight = hyphen;
lastChange = "2023-08-31 19:46:08 +0000";
layers = (
{
layerId = m01;
shapes = (
{
closed = 1;
nodes = (
(340,258,ls),
(346,257,o),
(350,264,o),
(346,267,cs),
(347,282,ls),
(347,290,o),
(345,294,o),
(337,292,cs),
(94,292,ls),
(85,295,o),
(80,288,o),
(81,285,cs),
(80,270,ls),
(84,265,o),
(84,257,o),
(94,258,cs)
);
}
);
width = 430;
}
);
unicode = 45;
},
{
glyphname = endash;
kernLeft = hyphen;
kernRight = hyphen;
lastChange = "2023-02-23 20:03:55 +0000";
layers = (
{
layerId = m01;
shapes = (
{
closed = 1;
nodes = (
(416,257,ls),
(426,258,o),
(427,262,o),
(429,268,cs),
(429,285,ls),
(429,287,o),
(423,292,o),
(417,292,cs),
(94,292,ls),
(85,295,o),
(80,288,o),
(81,285,cs),
(80,270,ls),
(84,265,o),
(84,257,o),
(94,258,cs)
);
}
);
width = 510;
}
);
unicode = 8211;
},
{
glyphname = emdash;
kernLeft = hyphen;
kernRight = hyphen;
lastChange = "2023-02-23 20:03:55 +0000";
layers = (
{
layerId = m01;
shapes = (
{
closed = 1;
nodes = (
(629,257,ls),
(633,258,o),
(637,261,o),
(637,267,cs),
(640,281,ls),
(637,288,o),
(633,294,o),
(629,294,cs),
(94,292,ls),
(85,295,o),
(80,288,o),
(81,285,cs),
(80,270,ls),
(84,265,o),
(84,257,o),
(94,258,cs)
);
}
);
width = 720;
}
);
unicode = 8212;
},
{
glyphname = underscore;
lastChange = "2023-08-11 19:14:16 +0000";
layers = (
{
layerId = m01;
shapes = (
{
closed = 1;
nodes = (
(351,-109,ls),
(357,-109,o),
(361,-105,o),
(361,-99,cs),
(361,-85,ls),
(361,-79,o),
(357,-75,o),
(351,-75,cs),
(25,-75,ls),
(19,-75,o),
(15,-79,o),
(15,-85,cs),
(15,-99,ls),
(15,-105,o),
(19,-109,o),
(25,-109,cs)
);
}
);
width = 376;
}
);
unicode = 95;
},
{
glyphname = parenleft;
lastChange = "2023-02-01 21:01:08 +0000";
layers = (
{
background = {
shapes = (
{
closed = 1;
nodes = (
(69,320,ls),
(68,48,o),
(276,-113,o),
(301,-113,cs),
(306,-113,o),
(309,-110,o),
(309,-106,cs),
(309,-99,o),
(291,-87,o),
(281,-78,cs),
(172,22,o),
(139,171,o),
(140,323,cs),
(136,467,o),
(172,622,o),
(282,718,cs),
(293,731,o),
(308,743,o),
(308,746,cs),
(310,750,o),
(305,757,o),
(302,756,cs),
(274,753,o),
(69,593,o),
(68,320,cs)
);
}
);
};
layerId = m01;
shapes = (
{
closed = 1;
nodes = (
(299,-108,o),
(302,-104,o),
(302,-100,cs),
(302,-96,o),
(300,-93,o),
(296,-89,cs),
(188,12,o),
(140,161,o),
(139,324,cs),
(139,487,o),
(184,632,o),
(298,731,cs),
(299,739,o),
(303,741,o),
(301,745,cs),
(301,747,o),
(297,754,o),
(294,753,cs),
(291,750,o),
(289,753,o),
(286,751,cs),
(191,680,o),
(69,533,o),
(68,320,cs),
(68,115,o),
(190,-38,o),
(284,-105,cs),
(287,-107,o),
(290,-108,o),
(293,-108,cs)
);
}
);
width = 340;
}
);
unicode = 40;
},
{
glyphname = braceleft;
lastChange = "2023-02-01 21:01:41 +0000";
layers = (
{
background = {
shapes = (
{
closed = 1;
nodes = (
(122,50,ls),
(120,-65,o),
(169,-98,o),
(244,-98,cs),
(253,-98,o),
(258,-94,o),
(258,-87,cs),
(258,-79,o),
(252,-77,o),
(242,-77,cs),
(193,-77,o),
(178,-33,o),
(177,44,cs),
(180,185,ls),
(177,258,o),
(167,303,o),
(98,322,c),
(100,321,l),
(165,340,o),
(179,381,o),
(179,459,cs),
(176,599,ls),
(179,673,o),
(194,719,o),
(241,720,cs),
(254,717,o),
(260,720,o),
(259,727,cs),
(260,738,o),
(252,742,o),
(243,738,cs),
(168,741,o),
(121,705,o),
(118,590,cs),
(119,440,ls),
(121,386,o),
(110,344,o),
(75,339,cs),
(56,336,o),
(46,332,o),
(46,319,cs),
(43,310,o),
(54,310,o),
(75,305,cs),
(111,297,o),
(122,256,o),
(122,202,cs)
);
}
);
};
layerId = m01;
shapes = (
{
closed = 1;
nodes = (
(253,-96,o),
(258,-91,o),
(258,-84,cs),
(258,-77,o),
(253,-72,o),
(246,-72,cs),
(199,-72,o),
(178,-38,o),
(177,34,cs),
(176,177,ls),
(179,265,o),
(154,301,o),
(106,321,c),
(157,341,o),
(177,376,o),
(177,468,cs),
(179,610,ls),
(180,680,o),
(197,717,o),
(247,717,cs),
(252,717,o),
(260,720,o),
(259,730,cs),
(256,734,o),
(252,742,o),
(248,739,cs),
(163,742,o),
(119,698,o),
(122,603,cs),
(121,463,ls),
(118,370,o),
(100,333,o),
(53,335,cs),
(47,335,o),
(41,330,o),
(39,320,cs),
(41,313,o),
(44,308,o),
(50,308,cs),
(98,308,o),
(122,277,o),
(119,183,cs),
(118,39,ls),
(120,-52,o),
(164,-96,o),
(246,-96,cs)
);
}
);
width = 318;
}
);
unicode = 123;
},
{
glyphname = bracketleft;
lastChange = "2023-02-01 21:02:14 +0000";
layers = (
{
background = {
shapes = (
{
pos = (10,0);
ref = parenleft;
}
);
};
guides = (
{
pos = (156,-108);
}
);
layerId = m01;
shapes = (
{
closed = 1;
nodes = (
(251,-98,ls),
(260,-98,o),
(265,-93,o),
(265,-86,cs),
(265,-79,o),
(260,-74,o),
(251,-74,cs),
(156,-74,ls),
(149,-74,o),
(144,-69,o),
(144,-62,cs),
(146,705,ls),
(146,710,o),
(150,718,o),
(155,714,cs),
(253,718,ls),
(261,718,o),
(263,720,o),
(264,729,cs),
(263,736,o),
(258,739,o),
(253,742,cs),
(109,739,ls),
(93,738,o),
(84,733,o),
(85,714,cs),
(86,-74,ls),
(86,-89,o),
(95,-98,o),
(110,-98,cs)
);
}
);
width = 325;
}
);
unicode = 91;
},
{
glyphname = quoteleft;
kernLeft = quoteleft;
kernRight = quoteleft;
lastChange = "2023-02-23 20:04:24 +0000";
layers = (
{
layerId = m01;
shapes = (
{
closed = 1;
nodes = (
(149,561,o),
(167,581,o),
(167,604,cs),
(165,651,o),
(116,646,o),
(112,690,cs),
(116,716,o),
(121,732,o),
(168,770,cs),
(175,774,o),
(177,785,o),
(168,789,cs),
(166,791,o),
(161,792,o),
(150,785,cs),
(91,739,o),
(62,691,o),
(65,631,cs),
(63,590,o),
(86,564,o),
(120,560,cs)
);
}
);
width = 246;
}
);
metricLeft = "=|quoteright";
metricRight = "=|quoteright";
unicode = 8216;
},
{
glyphname = quoteright;
kernLeft = quoteright;
kernRight = quoteright;
lastChange = "2023-02-19 13:28:36 +0000";
layers = (
{
layerId = m01;
shapes = (
{
closed = 1;
nodes = (
(118,551,o),
(141,604,o),
(141,664,cs),
(143,706,o),
(119,728,o),
(87,729,cs),
(60,732,o),
(42,712,o),
(38,684,cs),
(38,637,o),
(94,650,o),
(90,598,cs),
(90,584,o),
(82,560,o),
(38,522,cs),
(31,517,o),
(33,509,o),
(34,506,cs),
(39,501,o),
(46,504,o),
(57,507,cs)
);
}
);
width = 166;
}
);
unicode = 8217;
},
{
glyphname = guilsinglleft;
kernLeft = guilleft;
kernRight = guilleft;
lastChange = "2023-02-23 20:04:35 +0000";
layers = (
{
layerId = m01;
shapes = (
{
closed = 1;
nodes = (
(167,79,o),
(175,79,o),
(179,80,cs),
(191,80,o),
(190,86,o),
(187,91,cs),
(122,241,ls),
(116,250,o),
(119,252,o),
(119,261,cs),
(187,408,ls),
(191,416,o),
(188,422,o),
(178,426,cs),
(175,423,o),
(167,422,o),
(160,408,cs),
(59,269,ls),
(53,258,o),
(51,247,o),
(61,233,cs),
(162,91,ls)
);
}
);
width = 262;
}
);
unicode = 8249;
},
{
glyphname = guilsinglright;
kernLeft = guilright;
kernRight = guilright;
lastChange = "2023-02-23 20:04:44 +0000";
layers = (
{
background = {
shapes = (
{
closed = 1;
nodes = (
(109,77,l),
(230,253,l),
(110,426,l),
(86,425,l),
(161,250,l),
(85,77,l)
);
}
);
};
layerId = m01;
shapes = (
{
pos = (262,0);
ref = guilsinglleft;
scale = (-1,1);
}
);
width = 262;
}
);
metricLeft = "=|guilsinglleft";
metricRight = "=|guilsinglleft";
unicode = 8250;
},
{
glyphname = quotesingle;
kernLeft = quotesingle;
kernRight = quotesingle;
lastChange = "2023-02-01 20:16:30 +0000";
layers = (
{
background = {
shapes = (
{
pos = (-14,0);
ref = quoteright;
}
);
};
layerId = m01;
shapes = (
{
closed = 1;
nodes = (
(125,491,o),
(126,497,o),
(126,508,cs),
(133,600,o),
(159,645,o),
(159,682,cs),
(163,707,o),
(145,732,o),
(117,733,cs),
(88,730,o),
(73,710,o),
(74,679,cs),
(71,641,o),
(102,597,o),
(105,505,cs),
(103,496,o),
(108,491,o),
(117,488,cs)
);
}
);
width = 233;
}
);
unicode = 39;
},
{
glyphname = at;
kernLeft = o;
kernRight = o;
lastChange = "2023-02-23 20:05:05 +0000";
layers = (
{
layerId = m01;
shapes = (
{
closed = 1;
nodes = (
(419,-81,o),
(481,-62,o),
(527,-26,cs),
(536,-19,o),
(537,-12,o),
(532,-4,cs),
(528,5,o),
(520,1,o),
(507,-6,cs),
(466,-36,o),
(411,-52,o),
(346,-52,cs),
(190,-52,o),
(107,40,o),
(108,213,cs),
(104,415,o),
(220,554,o),
(382,554,cs),
(506,555,o),
(579,463,o),
(582,320,cs),
(582,207,o),
(516,96,o),
(450,95,cs),
(422,93,o),
(417,123,o),
(427,178,cs),
(486,414,ls),
(486,424,o),
(484,431,o),
(473,431,cs),
(466,432,o),
(462,428,o),
(454,415,cs),
(453,412,o),
(450,408,o),
(446,411,cs),
(441,413,o),
(441,413,o),
(441,418,cs),
(428,431,o),
(411,437,o),
(394,437,cs),
(299,439,o),
(197,283,o),
(195,152,cs),
(194,96,o),
(213,64,o),
(248,65,cs),
(292,64,o),
(336,103,o),
(380,191,cs),
(384,199,o),
(389,195,o),
(388,191,cs),
(390,188,o),
(388,180,o),
(388,180,cs),
(367,108,o),
(391,64,o),
(443,62,cs),
(537,64,o),
(618,187,o),
(622,317,cs),
(618,474,o),
(526,578,o),
(386,582,cs),
(202,582,o),
(42,410,o),
(41,217,cs),
(39,46,o),
(152,-81,o),
(348,-81,cs)
);
},
{
closed = 1;
nodes = (
(253,99,o),
(246,110,o),
(246,141,cs),
(249,259,o),
(326,413,o),
(388,412,cs),
(407,410,o),
(418,398,o),
(420,371,cs),
(421,280,o),
(317,102,o),
(266,99,cs)
);
}
);
width = 660;
}
);
metricLeft = O;
metricRight = O;
unicode = 64;
},
{
glyphname = ampersand;
lastChange = "2023-08-27 16:49:40 +0000";
layers = (
{
background = {
shapes = (
{
closed = 1;
nodes = (
(506,369,o),
(535,381,o),
(561,386,cs),
(580,389,ls),
(592,387,o),
(593,394,o),
(596,397,cs),
(592,408,o),
(588,412,o),
(581,412,cs),
(406,409,ls),
(397,409,o),
(389,404,o),
(392,402,cs),
(389,392,o),
(398,390,o),
(405,387,cs),
(441,381,ls),
(465,381,o),
(472,360,o),
(458,320,cs),
(385,99,o),
(303,39,o),
(217,40,cs),
(135,39,o),
(96,103,o),
(100,187,cs),
(100,269,o),
(129,341,o),
(191,386,cs),
(201,389,o),
(209,388,o),
(214,381,cs),
(382,116,l),
(445,18,ls),
(452,7,o),
(457,-1,o),
(471,2,cs),
(575,-2,ls),
(585,-1,o),
(586,3,o),
(590,12,cs),
(589,16,o),
(586,23,o),
(574,21,cs),
(534,29,ls),
(517,26,o),
(509,40,o),
(496,60,cs),
(270,420,ls),
(269,425,o),
(267,430,o),
(275,439,cs),
(372,488,o),
(410,543,o),
(413,610,cs),
(414,665,o),
(368,732,o),
(280,734,cs),
(189,735,o),
(126,666,o),
(123,588,cs),
(125,536,o),
(146,492,o),
(184,424,cs),
(187,419,o),
(189,413,o),
(180,409,cs),
(93,353,o),
(34,269,o),
(33,167,cs),
(34,72,o),
(95,-9,o),
(206,-9,cs),
(309,-9,o),
(404,76,o),
(487,314,cs)
);
},
{
closed = 1;
nodes = (
(253,452,o),
(248,453,o),
(245,464,c),
(202,532,o),
(186,564,o),
(185,605,cs),
(185,655,o),
(224,704,o),
(279,708,cs),
(337,707,o),
(355,651,o),
(355,607,cs),
(351,554,o),
(324,496,o),
(261,459,cs)
);
}
);
};
guides = (
{
angle = 121.4641;
pos = (434,159);
},
{
angle = -57.6671;
pos = (272,286);
},
{
pos = (640,388);
}
);
layerId = m01;
shapes = (
{
closed = 1;
nodes = (
(265,-9,o),
(325,19,o),
(379,87,cs),
(382,99,o),
(390,98,o),
(399,86,cs),
(445,18,ls),
(452,7,o),
(457,-1,o),
(471,2,cs),
(575,-2,ls),
(585,-1,o),
(586,3,o),
(590,12,cs),
(589,16,o),
(586,23,o),
(574,21,cs),
(534,29,ls),
(517,26,o),
(509,40,o),
(496,60,cs),
(439,150,ls),
(429,162,o),
(429,172,o),
(437,183,cs),
(456,223,o),
(474,265,o),
(487,296,cs),
(504,344,o),
(534,359,o),
(563,365,cs),
(579,363,ls),
(592,365,o),
(592,369,o),
(596,375,cs),
(595,382,o),
(588,387,o),
(582,387,cs),
(406,389,ls),
(398,390,o),
(390,382,o),
(393,380,cs),
(390,372,o),
(394,366,o),
(402,365,cs),
(438,362,ls),
(468,356,o),
(469,338,o),
(455,300,cs),
(446,283,o),
(432,247,o),
(416,214,cs),
(411,206,o),
(406,207,o),
(397,216,cs),
(270,420,ls),
(269,425,o),
(267,430,o),
(275,439,cs),
(372,488,o),
(410,543,o),
(413,610,cs),
(414,665,o),
(368,732,o),
(280,734,cs),
(189,735,o),
(126,666,o),
(123,588,cs),
(125,536,o),
(146,492,o),
(184,424,cs),
(187,419,o),
(189,413,o),
(180,409,cs),
(93,353,o),
(34,269,o),
(33,167,cs),
(34,72,o),
(95,-9,o),
(206,-9,cs)
);
},
{
closed = 1;
nodes = (
(135,39,o),
(96,103,o),
(100,187,cs),
(100,269,o),
(129,341,o),
(191,386,cs),
(201,389,o),
(209,388,o),
(214,381,cs),
(361,147,ls),
(368,138,o),
(367,127,o),
(359,115,cs),
(313,59,o),
(267,36,o),
(217,40,cs)
);
},
{
closed = 1;
nodes = (
(253,452,o),
(248,453,o),
(245,464,c),
(202,532,o),
(186,564,o),
(185,605,cs),
(185,655,o),
(224,704,o),
(279,708,cs),
(337,707,o),
(355,651,o),
(355,607,cs),
(351,554,o),
(324,496,o),
(261,459,cs)
);
}
);
width = 579;
}
);
unicode = 38;
},
{
glyphname = paragraph;
lastChange = "2023-08-13 19:12:03 +0000";
layers = (
{
layerId = m01;
shapes = (
{
closed = 1;
nodes = (
(287,-130,ls),
(296,-130,o),
(301,-125,o),
(301,-116,cs),
(303,664,ls),
(303,679,o),
(311,689,o),
(327,692,cs),
(350,688,ls),
(365,692,o),
(371,682,o),
(370,665,cs),
(372,-116,ls),
(372,-125,o),
(377,-130,o),
(386,-130,cs),
(413,-130,ls),
(422,-130,o),
(427,-125,o),
(427,-116,cs),
(429,653,ls),
(429,684,o),
(435,687,o),
(462,695,cs),
(485,695,ls),
(491,697,o),
(499,704,o),
(498,707,cs),
(498,714,o),
(491,721,o),
(480,722,cs),
(225,721,ls),
(104,721,o),
(22,637,o),
(25,521,cs),
(22,408,o),
(103,328,o),
(218,327,cs),
(230,325,ls),
(240,325,o),
(248,322,o),
(244,313,cs),
(246,-116,ls),
(246,-125,o),
(251,-130,o),
(260,-130,cs)
);
}
);
width = 516;
}
);
metricLeft = "=|P";
metricRight = "=|P";
unicode = 182;
},
